<svg data-testid="ICON_ACCENT" width="16" height="16" viewBox="0 0 16 16">
    <path d="M8.91787 4.4C8.91787 4.89706 8.51492 5.3 8.01787 5.3C7.52081 5.3 7.11787 4.89706 7.11787 4.4C7.11787 3.90294 7.52081 3.5 8.01787 3.5C8.51492 3.5 8.91787 3.90294 8.91787 4.4Z"/>
    <path d="M5.35015 5.42059C5.78061 5.66912 5.9281 6.21955 5.67957 6.65001C5.43104 7.08048 4.88061 7.22796 4.45015 6.97944C4.01969 6.73091 3.8722 6.18048 4.12073 5.75001C4.36926 5.31955 4.91969 5.17206 5.35015 5.42059Z"/>
    <path d="M4.45015 9.02059C4.88061 8.77206 5.43105 8.91955 5.67957 9.35001C5.9281 9.78048 5.78061 10.3309 5.35015 10.5794C4.91969 10.828 4.36926 10.6805 4.12073 10.25C3.8722 9.81955 4.01969 9.26912 4.45015 9.02059Z"/>
    <path d="M10.6855 5.42059C11.116 5.17206 11.6664 5.31955 11.915 5.75001C12.1635 6.18048 12.016 6.73091 11.5855 6.97944C11.1551 7.22796 10.6046 7.08048 10.3561 6.65001C10.1076 6.21955 10.2551 5.66912 10.6855 5.42059Z"/>
    <path d="M14 8C14 8.07361 13.9842 8.14936 13.851 8.25565C13.6908 8.3835 13.4059 8.5 13.0594 8.5H11C8.79086 8.5 7 10.2909 7 12.5C7 13.0139 7.0969 13.5051 7.27343 13.9565C4.30236 13.5978 2 11.0678 2 8C2 4.68629 4.68629 2 8 2C11.3137 2 14 4.68629 14 8ZM9 12.5C9 11.3954 9.89543 10.5 11 10.5H13.0594C14.5763 10.5 16 9.51692 16 8C16 3.58172 12.4183 0 8 0C3.58172 0 0 3.58172 0 8C0 12.4183 3.58172 16 8 16C8.60268 16 10.4104 15.8839 10.4104 14.9977C10.4104 13.7735 9 14.6505 9 12.5Z"/>
</svg>
