<svg width="16" height="16" viewBox="0 0 16 16">
    <path d="M8 16C12.4183 16 16 12.4183 16 8C16 3.58172 12.4183 0 8 0C3.58172 0 0 3.58172 0 8C0 12.4183 3.58172 16 8 16ZM12.9085 11.4515C12.33 10.4331 12 9.25581 12 7.99998C12 6.74406 12.33 5.5668 12.9085 4.54848C13.5961 5.52465 14 6.71516 14 8C14 9.28483 13.5962 10.4753 12.9085 11.4515ZM11.4541 12.9067C10.4774 13.5954 9.28596 14 8 14C6.71404 14 5.52257 13.5954 4.54592 12.9067C5.4653 11.4953 5.99999 9.80917 5.99999 7.99998C5.99999 6.19093 5.46534 4.50478 4.54594 3.09333C5.52259 2.40455 6.71405 2 8 2C9.28595 2 10.4774 2.40455 11.4541 3.09333C10.5347 4.50478 10 6.19093 10 7.99998C10 9.80917 10.5347 11.4953 11.4541 12.9067ZM2 8C2 6.71516 2.40385 5.52465 3.09154 4.54848C3.66996 5.5668 3.99999 6.74406 3.99999 7.99998C3.99999 9.25581 3.66998 10.4331 3.09153 11.4515C2.40385 10.4753 2 9.28483 2 8Z"/>
</svg>
