<svg width="16" height="16" viewBox="0 0 16 16">
    <path d="M8 4C7.44772 4 7 4.44772 7 5L7 7.5C7 8.05228 7.44772 8.5 8 8.5C8.55228 8.5 9 8.05228 9 7.5V5C9 4.44772 8.55228 4 8 4Z"/>
    <path d="M8 9.75C7.30964 9.75 6.75 10.3096 6.75 11C6.75 11.6904 7.30964 12.25 8 12.25C8.69036 12.25 9.25 11.6904 9.25 11C9.25 10.3096 8.69036 9.75 8 9.75Z"/>
    <path d="M8 0C3.58172 -3.86258e-07 3.86258e-07 3.58173 0 8C-3.86258e-07 12.4183 3.58172 16 8 16C12.4183 16 16 12.4183 16 8C16 3.58173 12.4183 3.86258e-07 8 0ZM8 2C11.3137 2 14 4.6863 14 8C14 11.3137 11.3137 14 8 14C4.68629 14 2 11.3137 2 8C2 4.68629 4.68629 2 8 2Z"/>
</svg>
