<svg width="16" height="16" viewBox="0 0 16 16" fill="none" xmlns="http://www.w3.org/2000/svg">
<path d="M4 11.0053V15.0009C4 15.5532 4.44772 16.0009 5 16.0009C5.55228 16.0009 6 15.5532 6 15.0009V11.766L14.3396 14.9383C14.7373 15.0896 15.1606 14.9511 15.2949 14.5473C15.5889 13.6632 16 11.6806 16 7.50494C16 3.32879 15.5872 1.34056 15.292 0.452706C15.1572 0.0471776 14.7318 -0.0922583 14.3326 0.0601753L4.00001 4.00526H3.99258L1.24141 4.21143C0.808649 4.24386 0.398763 4.53782 0.267802 5.00871C0.185488 5.30469 0 6.12549 0 7.50526C0 8.88479 0.18543 9.70061 0.268409 9.99626C0.399939 10.4649 0.80759 10.757 1.23753 10.7907L3.99109 11.0053H4ZM13.6958 2.44412C13.8551 3.46877 14 5.07203 14 7.50494C14 9.93275 13.8562 11.5322 13.6981 12.5545L6 9.6262V5.38246L13.6958 2.44412ZM4 8.99989L2.07979 8.85025C2.03736 8.52942 2 8.08291 2 7.50526C2 6.92606 2.03756 6.47717 2.08021 6.15418L4 6.01031V8.99989Z" fill="black"/>
</svg>
