<svg width="16" height="16" viewBox="0 0 16 16">
    <path d="M8 0C8.73549 0 9.39926 0 10 0.00869056V2L10 2.0091C9.42565 2.00066 8.76628 2 8 2C6.05784 2 4.80242 2.00425 3.87741 2.12861C3.00993 2.24524 2.73803 2.43354 2.58579 2.58579C2.43354 2.73803 2.24524 3.00993 2.12861 3.87741C2.00425 4.80242 2 6.05784 2 8C2 9.94216 2.00425 11.1976 2.12861 12.1226C2.24524 12.9901 2.43354 13.262 2.58579 13.4142C2.73803 13.5665 3.00993 13.7548 3.87741 13.8714C4.80242 13.9958 6.05784 14 8 14C9.94216 14 11.1976 13.9958 12.1226 13.8714C12.9901 13.7548 13.262 13.5665 13.4142 13.4142C13.5665 13.262 13.7548 12.9901 13.8714 12.1226C13.9958 11.1976 14 9.94216 14 8C14 7.23372 13.9993 6.57435 13.9909 5.99999L14 6L15.9913 5.99999C16 6.60073 16 7.26451 16 8C16 11.7712 16 13.6569 14.8284 14.8284C13.6569 16 11.7712 16 8 16C4.22876 16 2.34315 16 1.17157 14.8284C0 13.6569 0 11.7712 0 8C0 4.22876 0 2.34315 1.17157 1.17157C2.34315 0 4.22876 0 8 0Z"/>
    <path d="M14 4C15.1046 4 16 3.10457 16 2C16 0.89543 15.1046 0 14 0C12.8954 0 12 0.89543 12 2C12 3.10457 12.8954 4 14 4Z"/>
</svg>
