<svg data-testid="ICON_ARCHIVE" width="16" height="16" viewBox="0 0 16 16">
    <path d="M1 4.00006H15V14.0001C15 15.1046 14.1046 16.0001 13 16.0001H3C1.89543 16.0001 1 15.1046 1 14.0001V4.00006ZM3 6.00006V14.0001H13V6.00006H3Z"/>
    <path d="M0 2.00006C0 0.895491 0.895431 6.10352e-05 2 6.10352e-05H14C15.1046 6.10352e-05 16 0.895491 16 2.00006V6.00006H0V2.00006ZM14 2.00006H2V4.00006H14V2.00006Z"/>
    <path d="M5 9.00006C5 8.44778 5.44772 8.00006 6 8.00006H10C10.5523 8.00006 11 8.44778 11 9.00006C11 9.55235 10.5523 10.0001 10 10.0001H6C5.44772 10.0001 5 9.55235 5 9.00006Z"/>
</svg>
