<svg width="16" height="16" viewBox="0 0 16 16">
    <path d="M13.6337 5.48365C11.0149 8.12515 9.56304 9.54807 6.94431 12.1896C5.81243 13.3313 3.96412 13.3181 2.81598 12.1602C1.66783 11.0023 1.65464 9.13807 2.78652 7.99635L7.07355 3.70784C7.4573 3.32395 7.45857 2.70108 7.07638 2.31564C6.69314 1.92913 6.06973 1.92786 5.68492 2.3128L1.40059 6.59861C-0.485869 8.50147 -0.463889 11.6085 1.44968 13.5384C3.36325 15.4683 6.44378 15.4902 8.33024 13.5873L15.0196 6.88139C16.3401 5.54939 16.3247 3.37445 14.9852 2.02354C13.6457 0.672631 11.4894 0.657301 10.1688 1.9893L4.16263 8.00613C3.40805 8.76728 3.41684 10.0101 4.18227 10.782C4.94769 11.554 6.17991 11.5628 6.93449 10.8016L9.77975 7.9493C10.5463 7.18084 10.5463 5.93492 9.77974 5.16646L11.5548 3.38704C12.1207 2.81618 13.0449 2.82275 13.6189 3.40172C14.193 3.98068 14.1996 4.91279 13.6337 5.48365Z"/>
</svg>
