<svg width="8" height="16" viewBox="0 0 8 16">
    <path d="M4.45211 1.15181C4.04598 0.763336 3.3838 0.761305 3.01354 1.18122C1.18431 3.25604 0.0820313 5.9365 0.0820313 8.86327C0.0820313 11.7901 1.18431 14.4705 3.01354 16.5453C3.3838 16.9653 4.04598 16.9632 4.45211 16.5748C4.85697 16.1874 4.85317 15.5622 4.49128 15.1376C3.03319 13.4269 2.15882 11.2428 2.15882 8.86327C2.15882 6.48378 3.03319 4.29966 4.49128 2.58897C4.85317 2.16439 4.85697 1.53922 4.45211 1.15181Z"/>
    <path d="M7.38996 3.96255C6.9837 3.57387 6.31848 3.57108 5.96698 4.00594C4.88156 5.34914 4.23561 7.03403 4.23561 8.86327C4.23561 10.6925 4.88156 12.3774 5.96698 13.7206C6.31848 14.1554 6.9837 14.1527 7.38996 13.764C7.79444 13.377 7.78747 12.7533 7.45663 12.3068C6.73602 11.3343 6.3124 10.1461 6.3124 8.86327C6.3124 7.5804 6.73602 6.39222 7.45663 5.41972C7.78747 4.97319 7.79444 4.3496 7.38996 3.96255Z"/>
</svg>
