<svg width="14" height="16" viewBox="0 0 14 16" fill="black" xmlns="http://www.w3.org/2000/svg">
    <path d="M0.0443607 11.2059C-0.0993999 11.6731 0.115695 12.1758 0.552926 12.3944L0.554681 12.3953L0.556455 12.3962L0.560057 12.398L0.567481 12.4016L0.583244 12.409C0.594165 12.4141 0.605952 12.4193 0.618671 12.4248C0.644083 12.4357 0.673394 12.4474 0.707168 12.4598C0.774542 12.4846 0.860976 12.5128 0.971397 12.5429C1.19142 12.6029 1.51448 12.6729 1.98372 12.7399C2.92031 12.8737 4.47052 13 7.00014 13C9.52976 13 11.08 12.8737 12.0166 12.7399C12.4858 12.6729 12.8089 12.6029 13.0289 12.5429C13.1393 12.5128 13.2257 12.4846 13.2931 12.4598C13.3269 12.4474 13.3562 12.4357 13.3816 12.4248L13.3953 12.4188L13.417 12.409L13.4328 12.4016L13.4402 12.398L13.4438 12.3962L13.4456 12.3953L13.4474 12.3944C13.8846 12.1758 14.0997 11.6731 13.9559 11.2059C13.5438 9.86659 13.2186 8.63769 12.9203 7.51054L12.92 7.50937C12.8617 7.28889 12.8044 7.07229 12.7476 6.85952C12.4057 5.57736 12.0781 4.40624 11.6742 3.43015C11.2696 2.4525 10.751 1.57372 9.96983 0.946696C9.16449 0.300305 8.17984 0 7.00014 0C5.82043 0 4.83578 0.300305 4.03044 0.946696C3.24923 1.57372 2.73067 2.4525 2.32612 3.43015C1.92222 4.40624 1.59456 5.57736 1.25265 6.85952C1.19582 7.07266 1.1384 7.28964 1.07994 7.51053C0.781665 8.63769 0.456463 9.86658 0.0443607 11.2059ZM10.9845 8.01335C11.2068 8.85346 11.4503 9.77393 11.7358 10.7598L11.7337 10.7601C10.9203 10.8763 9.47052 11 7.00014 11C4.52976 11 3.07997 10.8763 2.26656 10.7601L2.26449 10.7598C2.54994 9.77393 2.79348 8.85346 3.01576 8.01335C3.07353 7.795 3.12986 7.58208 3.18512 7.37485C3.53071 6.07889 3.82806 5.03126 4.17416 4.19485C4.51961 3.36 4.87605 2.83253 5.28233 2.50643C5.66449 2.1997 6.17984 2 7.00014 2C7.82043 2 8.33578 2.1997 8.71794 2.50643C9.12423 2.83253 9.48067 3.36 9.82612 4.19485C10.1722 5.03126 10.4696 6.07889 10.8152 7.37485C10.8703 7.58175 10.9266 7.79432 10.9842 8.0123L10.9845 8.01335Z" />
    <path d="M0.0443607 11.2059C-0.0993999 11.6731 0.115695 12.1758 0.552926 12.3944L0.554681 12.3953L0.556455 12.3962L0.560057 12.398L0.567481 12.4016L0.583244 12.409C0.594165 12.4141 0.605952 12.4193 0.618671 12.4248C0.644083 12.4357 0.673394 12.4474 0.707168 12.4598C0.774542 12.4846 0.860976 12.5128 0.971397 12.5429C1.19142 12.6029 1.51448 12.6729 1.98372 12.7399C2.92031 12.8737 4.47052 13 7.00014 13C9.52976 13 11.08 12.8737 12.0166 12.7399C12.4858 12.6729 12.8089 12.6029 13.0289 12.5429C13.1393 12.5128 13.2257 12.4846 13.2931 12.4598C13.3269 12.4474 13.3562 12.4357 13.3816 12.4248L13.3953 12.4188L13.417 12.409L13.4328 12.4016L13.4402 12.398L13.4438 12.3962L13.4456 12.3953L13.4474 12.3944C13.8846 12.1758 14.0997 11.6731 13.9559 11.2059C13.5438 9.86659 13.2186 8.63769 12.9203 7.51054L12.92 7.50937C12.8617 7.28889 12.8044 7.07229 12.7476 6.85952C12.4057 5.57736 12.0781 4.40624 11.6742 3.43015C11.2696 2.4525 10.751 1.57372 9.96983 0.946696C9.16449 0.300305 8.17984 0 7.00014 0C5.82043 0 4.83578 0.300305 4.03044 0.946696C3.24923 1.57372 2.73067 2.4525 2.32612 3.43015C1.92222 4.40624 1.59456 5.57736 1.25265 6.85952C1.19582 7.07266 1.1384 7.28964 1.07994 7.51053C0.781665 8.63769 0.456463 9.86658 0.0443607 11.2059ZM10.9845 8.01335C11.2068 8.85346 11.4503 9.77393 11.7358 10.7598L11.7337 10.7601C10.9203 10.8763 9.47052 11 7.00014 11C4.52976 11 3.07997 10.8763 2.26656 10.7601L2.26449 10.7598C2.54994 9.77393 2.79348 8.85346 3.01576 8.01335C3.07353 7.795 3.12986 7.58208 3.18512 7.37485C3.53071 6.07889 3.82806 5.03126 4.17416 4.19485C4.51961 3.36 4.87605 2.83253 5.28233 2.50643C5.66449 2.1997 6.17984 2 7.00014 2C7.82043 2 8.33578 2.1997 8.71794 2.50643C9.12423 2.83253 9.48067 3.36 9.82612 4.19485C10.1722 5.03126 10.4696 6.07889 10.8152 7.37485C10.8703 7.58175 10.9266 7.79432 10.9842 8.0123L10.9845 8.01335Z" fill-opacity="0.48" />
    <path d="M9.53486 13.9397C8.76108 13.9754 7.92031 13.9982 7.03218 13.9989L6.95312 13.9989C6.06495 13.9982 5.22411 13.975 4.45026 13.9387C4.51903 14.3141 4.67422 14.6605 4.89518 14.9579C5.34977 15.57 6.08279 15.9749 6.91458 15.9989C6.94051 15.9996 6.96654 16 6.99266 16C7.01876 16 7.04478 15.9996 7.07069 15.9989C7.9022 15.975 8.63499 15.5703 9.08962 14.9586C9.31066 14.6613 9.46594 14.315 9.53486 13.9397Z" />
    <path d="M9.53486 13.9397C8.76108 13.9754 7.92031 13.9982 7.03218 13.9989L6.95312 13.9989C6.06495 13.9982 5.22411 13.975 4.45026 13.9387C4.51903 14.3141 4.67422 14.6605 4.89518 14.9579C5.34977 15.57 6.08279 15.9749 6.91458 15.9989C6.94051 15.9996 6.96654 16 6.99266 16C7.01876 16 7.04478 15.9996 7.07069 15.9989C7.9022 15.975 8.63499 15.5703 9.08962 14.9586C9.31066 14.6613 9.46594 14.315 9.53486 13.9397Z" fill-opacity="0.48" />
</svg>
