<svg width="16" height="16" viewBox="0 0 16 16" fill="none" xmlns="http://www.w3.org/2000/svg">
<path d="M8 12.8698L12.4453 15.8305C13.1099 16.2731 14 15.7972 14 14.9993V1.61649C14 1.23808 13.7844 0.89511 13.4264 0.771569C12.572 0.476746 10.7632 0 8 0C5.23681 0 3.42803 0.476746 2.57364 0.771569C2.21562 0.89511 2 1.23808 2 1.61649V14.9993C2 15.7972 2.89014 16.2731 3.5547 15.8305L8 12.8698ZM4 13.1325V2.43424C4.84905 2.22342 6.18139 1.9981 8 1.9981C9.81861 1.9981 11.151 2.22342 12 2.43424V13.1325L8 10.4684L4 13.1325Z" fill="black"/>
</svg>
