<svg data-testid="ICON_BOT" width="16" height="16" viewBox="0 0 16 16">
    <path d="M6 8.99999C5.44772 8.99999 5 9.4477 5 9.99999V11C5 11.5523 5.44772 12 6 12C6.55228 12 7 11.5523 7 11V9.99999C7 9.4477 6.55228 8.99999 6 8.99999Z"/>
    <path d="M9 9.99999C9 9.4477 9.44772 8.99999 10 8.99999C10.5523 8.99999 11 9.4477 11 9.99999V11C11 11.5523 10.5523 12 10 12C9.44772 12 9 11.5523 9 11V9.99999Z"/>
    <path d="M9 3.73244C9.5978 3.38663 10 2.74028 10 2C10 0.895431 9.10457 0 8 0C6.89543 0 6 0.895431 6 2C6 2.74028 6.4022 3.38663 7 3.73244V4.99999H6C3.23858 4.99999 1 7.23856 1 9.99999V14.7192C1 15.1781 1.31278 15.572 1.76622 15.6424C2.71905 15.7902 5.08501 16 8 16C10.915 16 13.2809 15.7902 14.2338 15.6424C14.6872 15.572 15 15.1781 15 14.7192V9.99999C15 7.23856 12.7614 4.99999 10 4.99999H9V3.73244ZM3 9.99999C3 8.34313 4.34315 6.99999 6 6.99999H10C11.6569 6.99999 13 8.34313 13 9.99999V13.7868C12.0136 13.8947 10.0307 14 8 14C5.96926 14 3.98641 13.8947 3 13.7868V9.99999Z"/>
</svg>
