<svg width="16" height="16" viewBox="0 0 16 16" fill="none" xmlns="http://www.w3.org/2000/svg">
<path d="M2.26427 0.58517C1.42478 0.795669 0.795669 1.42478 0.58517 2.26427C0.310279 3.36057 0 5.21486 0 8C0 10.7851 0.310279 12.6394 0.58517 13.7357C0.795669 14.5752 1.42478 15.2043 2.26427 15.4148C3.36057 15.6897 5.21486 16 8 16C10.7851 16 12.6394 15.6897 13.7357 15.4148C14.5752 15.2043 15.2043 14.5752 15.4148 13.7357C15.6897 12.6394 16 10.7851 16 8C16 5.21486 15.6897 3.36056 15.4148 2.26427C15.2043 1.42478 14.5752 0.795669 13.7357 0.58517C12.6394 0.310279 10.7851 0 8 0C5.21486 0 3.36056 0.310279 2.26427 0.58517ZM12 8C12 8.55228 11.5523 9 11 9H5C4.44772 9 4 8.55228 4 8C4 7.44772 4.44772 7 5 7H11C11.5523 7 12 7.44772 12 8Z" fill="#EE3D3D"/>
</svg>
