<svg width="16" height="16" viewBox="0 0 16 16">
    <path d="M14.5 3C15.3284 3 16 2.32843 16 1.5C16 0.671573 15.3284 0 14.5 0C13.6716 0 13 0.671573 13 1.5C13 2.32843 13.6716 3 14.5 3ZM5.8897 10.055C7.99056 12.1558 9.87093 13.2823 11.1109 13.8666C11.3754 13.9912 11.856 13.9882 12.3621 13.482L12.6185 13.2256C12.9992 12.845 13.3044 12.4953 13.5455 12.1916L11.3172 10.2725L11.2099 10.3279L11.1786 10.3452C11.1485 10.3617 11.0752 10.4019 10.986 10.4434C10.8118 10.5243 10.4496 10.6723 9.97404 10.6689C9.38233 10.6646 8.85701 10.4477 8.42036 10.1851C7.97303 9.91616 7.49322 9.52361 6.95715 8.98753C6.42107 8.45145 6.02852 7.97165 5.75953 7.52432C5.49697 7.08766 5.28008 6.56235 5.27579 5.97063C5.27235 5.4951 5.42038 5.13286 5.50128 4.9587C5.54273 4.86949 5.583 4.79617 5.59952 4.76611L5.61678 4.73477L5.67213 4.62746L3.75306 2.39922C3.44939 2.64027 3.09973 2.94546 2.71903 3.32615L2.46264 3.58255C1.95652 4.08867 1.95345 4.56926 2.07812 4.83382C2.66241 6.07375 3.78885 7.95412 5.8897 10.055ZM1.04842 2.16833L1.30482 1.91194C2.21463 1.00212 2.99704 0.441246 3.50963 0.123729C3.87951 -0.105388 4.33996 -0.00356323 4.62219 0.324138L7.6357 3.82314C7.9015 4.13176 7.95254 4.57195 7.76473 4.93601L7.39429 5.65412C7.38497 5.67218 7.375 5.69022 7.365 5.70833C7.32359 5.78328 7.28154 5.85939 7.28215 5.94331C7.28368 6.15567 7.44418 6.62804 8.3804 7.56427C9.31663 8.5005 9.78901 8.66099 10.0014 8.66253C10.0853 8.66314 10.1614 8.62109 10.2363 8.57968L10.2364 8.57963L10.2365 8.57962C10.2545 8.56963 10.2725 8.55969 10.2906 8.55039L11.0087 8.17994C11.3727 7.99214 11.8129 8.04318 12.1215 8.30898L15.6205 11.3225C15.9482 11.6047 16.0501 12.0652 15.8209 12.435C15.5034 12.9476 14.9426 13.73 14.0327 14.6399L13.7763 14.8963C12.8246 15.848 11.4568 16.253 10.2461 15.6825C8.81162 15.0066 6.73919 13.751 4.46645 11.4782C2.1937 9.20548 0.938123 7.13306 0.262139 5.69853C-0.308371 4.48783 0.0966793 3.12008 1.04842 2.16833ZM13 4.5C13 3.67157 12.3284 3 11.5 3C10.6716 3 10 3.67157 10 4.5C10 5.32843 10.6716 6 11.5 6C12.3284 6 13 5.32843 13 4.5Z"/>
</svg>
