<svg width="16" height="16" viewBox="0 0 16 16" xmlns="http://www.w3.org/2000/svg">
<path d="M4.43093 9.32058L4.42258 9.34942L4.41552 9.37151L2.04349 9.54834C2.01188 9.23923 1.99037 8.87663 1.99037 8.46207L1.99037 8.14458C1.99037 7.55874 2.26278 7.31085 2.44788 7.24433C3.56517 6.84276 5.41316 6.37864 8 6.37864C10.5868 6.37864 12.4348 6.84276 13.5521 7.24433C13.7372 7.31085 14.0096 7.55874 14.0096 8.14458V8.46207C14.0096 8.87663 13.9881 9.23923 13.9565 9.54834L11.5845 9.37151L11.5773 9.34891L11.5691 9.32058C11.5605 9.29121 11.5392 9.2177 11.5081 9.13284C11.4475 8.96712 11.3073 8.63254 10.9928 8.32259C10.6032 7.93851 10.1211 7.74001 9.67632 7.62927C9.22019 7.5157 8.66962 7.46128 8 7.46128C7.33038 7.46128 6.77981 7.5157 6.32368 7.62927C5.87886 7.74001 5.39685 7.93851 5.00717 8.32259C4.69269 8.63254 4.55246 8.96712 4.49188 9.13284C4.46085 9.21769 4.43947 9.29121 4.43093 9.32058ZM14.222 5.35952C12.9031 4.8855 10.8289 4.37708 8 4.37708C5.17105 4.37708 3.09688 4.8855 1.77801 5.35952C0.616162 5.7771 -4.20003e-08 6.92909 0 8.14458L8.40007e-08 8.46207C-2.52002e-07 9.59846 0.138361 10.4393 0.26111 10.9617C0.363478 11.3973 0.770991 11.6503 1.19933 11.6183L5.23151 11.3177C5.63616 11.2876 5.9816 11.0135 6.10545 10.6257L6.32071 9.95177C6.32666 9.93314 6.33224 9.91374 6.33713 9.8968C6.35986 9.81792 6.37428 9.77776 6.40035 9.75206C6.44593 9.70715 6.55453 9.63379 6.80201 9.57217C7.0488 9.51073 7.42613 9.46285 8 9.46285C8.57388 9.46285 8.9512 9.51073 9.19799 9.57217C9.44547 9.63379 9.55407 9.70715 9.59965 9.75206C9.62571 9.77775 9.64032 9.81856 9.66306 9.89746C9.66794 9.9144 9.67335 9.93315 9.67929 9.95176L9.89455 10.6257C10.0184 11.0135 10.3638 11.2876 10.7685 11.3177L14.8007 11.6183C15.229 11.6503 15.6365 11.3973 15.7389 10.9617C15.8616 10.4393 16 9.59846 16 8.46207V8.14458C16 6.92909 15.3838 5.7771 14.222 5.35952Z"/>
</svg>