<svg data-testid="ICON_CASHTAG" width="16" height="16" viewBox="0 0 16 16">
    <path d="M7 1C7 0.447715 7.44772 0 8 0C8.55228 0 9 0.447715 9 1V2L10.5 2C12.433 2 14 3.567 14 5.5C14 6.05228 13.5523 6.5 13 6.5C12.4477 6.5 12 6.05228 12 5.5C12 4.67157 11.3284 4 10.5 4L9 4V7H10.5C12.433 7 14 8.567 14 10.5C14 12.433 12.433 14 10.5 14H9V15C9 15.5523 8.55228 16 8 16C7.44772 16 7 15.5523 7 15V14H5.5C3.567 14 2 12.433 2 10.5C2 9.94772 2.44772 9.5 3 9.5C3.55228 9.5 4 9.94772 4 10.5C4 11.3284 4.67157 12 5.5 12H7V9H5.5C3.567 9 2 7.433 2 5.5C2 3.567 3.567 2 5.5 2L7 2V1ZM7 4L5.5 4C4.67157 4 4 4.67157 4 5.5C4 6.32843 4.67157 7 5.5 7L7 7V4ZM10.5 12C11.3284 12 12 11.3284 12 10.5C12 9.67157 11.3284 9 10.5 9H9V12H10.5Z"/>
</svg>
