<svg width="16" height="16" viewBox="0 0 16 16">
    <path d="M4.99693 0C3.06513 0 1.49907 1.56702 1.49907 3.5C1.49907 3.90649 1.56831 4.29675 1.69564 4.65967L0.150384 6.13867C0.0419976 6.24242 -0.000965512 6.37255 1.6426e-05 6.5C0.00198406 6.75538 0.195219 7 0.495784 7H9.49417C11.426 7 12.992 5.43298 12.992 3.5C12.992 1.56702 11.426 0 9.49417 0H4.99693ZM9.49417 2C10.3221 2 10.9932 2.67157 10.9932 3.5C10.9932 4.32843 10.3221 5 9.49417 5H4.99693C4.16901 5 3.49785 4.32843 3.49785 3.5C3.49785 2.67157 4.16901 2 4.99693 2H9.49417Z"/>
    <path d="M10.9932 16C12.925 16 14.4911 14.433 14.4911 12.5C14.4911 12.0935 14.4219 11.7032 14.2945 11.3403L15.8398 9.86133C16.1654 9.54968 15.945 9 15.4944 9H6.49601C4.56421 9 2.99815 10.567 2.99815 12.5C2.99815 14.433 4.56421 16 6.49601 16H10.9932ZM6.49601 14C5.66809 14 4.99693 13.3284 4.99693 12.5C4.99693 11.6716 5.66809 11 6.49601 11H10.9932C11.8212 11 12.4923 11.6716 12.4923 12.5C12.4923 13.3284 11.8212 14 10.9932 14H6.49601Z"/>
</svg>
