<svg data-testid="ICON_CHECK-ROUND" width="16" height="16" viewBox="0 0 16 16">
    <path d="M11.7526 6.6585C12.1163 6.24286 12.0741 5.6111 11.6585 5.24742C11.2429 4.88374 10.6111 4.92585 10.2474 5.34149L7.45129 8.53707L5.70711 6.79289C5.31659 6.40236 4.68342 6.40236 4.2929 6.79289C3.90237 7.18341 3.90237 7.81658 4.2929 8.2071L6.7929 10.7071C6.9886 10.9028 7.25667 11.0087 7.53328 10.9994C7.8099 10.9902 8.07033 10.8668 8.25258 10.6585L11.7526 6.6585Z"/>
    <path d="M16 8C16 12.4183 12.4183 16 8 16C3.58172 16 0 12.4183 0 8C0 3.58173 3.58172 0 8 0C12.4183 0 16 3.58173 16 8ZM14 8C14 4.68629 11.3137 2 8 2C4.68629 2 2 4.68629 2 8C2 11.3137 4.68629 14 8 14C11.3137 14 14 11.3137 14 8Z"/>
</svg>
