<svg width="16" height="16" viewBox="0 0 16 16">
    <path d="M0 4C0 1.79086 1.79086 0 4 0H12C14.2091 0 16 1.79086 16 4V12C16 14.2091 14.2091 16 12 16H4C1.79086 16 0 14.2091 0 12V4ZM12.669 5.66897C13.0384 5.25846 13.0051 4.62617 12.5946 4.25671C12.1841 3.88726 11.5518 3.92053 11.1824 4.33104L6.88748 9.5476L4.63278 7.2929C4.24225 6.90238 3.60909 6.90238 3.21856 7.2929C2.82804 7.68343 2.82804 8.31659 3.21856 8.70712L6.21856 11.7071C6.41255 11.9011 6.67771 12.0069 6.95196 11.9997C7.2262 11.9925 7.48544 11.8729 7.66896 11.669L12.669 5.66897Z"/>
</svg>
