<svg data-testid="ICON_CHEVRON-RIGHT" width="16" height="16" viewBox="0 0 16 16">
    <path d="M8.29289 3.29289C7.90237 3.68342 7.90237 4.31658 8.29289 4.70711L11.5858 8L8.29289 11.2929C7.90237 11.6834 7.90237 12.3166 8.29289 12.7071C8.68342 13.0976 9.31658 13.0976 9.70711 12.7071L13.7071 8.70711C13.8946 8.51957 14 8.26522 14 8C14 7.73478 13.8946 7.48043 13.7071 7.29289L9.70711 3.29289C9.31658 2.90237 8.68342 2.90237 8.29289 3.29289Z"/>
    <path d="M2.29289 3.29289C1.90237 3.68342 1.90237 4.31658 2.29289 4.70711L5.58579 8L2.29289 11.2929C1.90237 11.6834 1.90237 12.3166 2.29289 12.7071C2.68342 13.0976 3.31658 13.0976 3.70711 12.7071L7.70711 8.70711C7.89464 8.51957 8 8.26522 8 8C8 7.73478 7.89464 7.48043 7.70711 7.29289L3.70711 3.29289C3.31658 2.90237 2.68342 2.90237 2.29289 3.29289Z"/>
</svg>
