<svg width="16" height="16" viewBox="0 0 16 16">
    <path d="M7.70711 3.29289C7.31658 2.90237 6.68342 2.90237 6.29289 3.29289L2.29289 7.29289C2.10536 7.48043 2 7.73478 2 8C2 8.26522 2.10536 8.51957 2.29289 8.70711L6.29289 12.7071C6.68342 13.0976 7.31658 13.0976 7.70711 12.7071C8.09763 12.3166 8.09763 11.6834 7.70711 11.2929L4.41421 8L7.70711 4.70711C8.09763 4.31658 8.09763 3.68342 7.70711 3.29289Z"/>
    <path d="M13.7071 3.29289C14.0976 3.68342 14.0976 4.31658 13.7071 4.70711L10.4142 8L13.7071 11.2929C14.0976 11.6834 14.0976 12.3166 13.7071 12.7071C13.3166 13.0976 12.6834 13.0976 12.2929 12.7071L8.29289 8.70711C8.10536 8.51957 8 8.26522 8 8C8 7.73478 8.10536 7.48043 8.29289 7.29289L12.2929 3.29289C12.6834 2.90237 13.3166 2.90237 13.7071 3.29289Z"/>
</svg>
