<svg width="16" height="16" viewBox="0 0 16 16">
    <path d="M6 0C5.44772 0 5 0.447715 5 1C5 1.55228 5.44772 2 6 2H7V4C7 4.02372 7.00083 4.04724 7.00245 4.07054C3.60896 4.55472 1 7.47268 1 11V12C1 12.5523 1.44772 13 2 13H14C14.5523 13 15 12.5523 15 12V11C15 7.47268 12.391 4.55472 8.99755 4.07054C8.99918 4.04724 9 4.02372 9 4V2H10C10.5523 2 11 1.55228 11 1C11 0.447715 10.5523 0 10 0H6ZM8 6C10.7614 6 13 8.23858 13 11H3C3 8.23858 5.23858 6 8 6Z"/>
    <path d="M1 14C0.447715 14 0 14.4477 0 15C0 15.5523 0.447715 16 1 16H15C15.5523 16 16 15.5523 16 15C16 14.4477 15.5523 14 15 14H1Z"/>
</svg>
