<svg width="16" height="16" viewBox="0 0 16 11" fill="none" xmlns="http://www.w3.org/2000/svg">
    <path d="M1.04349 5.49979C1.04349 7.30042 1.74896 8.9934 3.0297 10.2666L2.29189 11C1.57348 10.2858 1.00927 9.45408 0.61512 8.52774C0.206987 7.56841 0 6.54976 0 5.5C0 4.45024 0.206987 3.43138 0.61512 2.47226C1.00927 1.54592 1.57327 0.714154 2.29189 0L3.0297 0.733444C1.74896 2.0066 1.04349 3.69958 1.04349 5.50021V5.49979Z" fill="#008EFF"/>
    <path d="M4.50511 2.19971L3.7673 1.46627C2.68353 2.54362 2.08657 3.97607 2.08657 5.49959C2.08657 7.0231 2.68332 8.45556 3.7673 9.53291L4.5049 8.79967C3.61811 7.91813 3.12985 6.74619 3.12985 5.49959C3.12985 4.25298 3.61811 3.08105 4.5049 2.19951L4.50511 2.19971Z" fill="#008EFF"/>
    <path d="M13.3999 2.43845C11.8882 2.43845 10.9724 3.41748 10.9724 4.46497V4.59378C10.9724 5.62425 11.8448 6.34566 13.2098 6.34566C13.9959 6.34566 14.5142 6.07083 15.0066 5.66718V6.00217C15.0066 6.95527 14.5056 7.70241 13.2962 7.70241C12.7097 7.70241 12.0906 7.4842 11.6282 7.11063L11.0071 7.72813C11.5859 8.25187 12.3633 8.56114 13.2962 8.56114C15.1535 8.56114 16 7.29876 16 5.77878V5.04886C16 3.59753 15.0498 2.43825 13.3999 2.43825V2.43845ZM14.9722 4.94598C14.5834 5.31519 14.0998 5.55559 13.4258 5.55559C12.4929 5.55559 11.9658 5.16066 11.9658 4.47368V4.39631C11.9658 3.73505 12.4841 3.30568 13.3826 3.30568C14.2811 3.30568 14.9722 3.95823 14.9722 4.7398V4.94598Z" fill="white"/>
    <path d="M5.64855 5.82173C5.64855 6.82648 6.38281 7.67649 7.74763 7.67649C8.42681 7.67649 8.97767 7.40602 9.37244 7.03805L10.0149 7.6767C9.48011 8.17638 8.68179 8.56094 7.68733 8.56094C5.73514 8.56094 4.60338 7.28136 4.60338 5.82152V5.22041C4.60338 3.75207 5.82131 2.43805 7.73052 2.43805C8.68325 2.43805 9.4968 2.81618 10.0253 3.31192L9.36139 3.97194C8.96494 3.60729 8.41387 3.32229 7.69589 3.32229C6.37425 3.32229 5.64855 4.19824 5.64855 5.22V5.82173Z" fill="white"/>
</svg>

