<svg width="16" height="16" viewBox="0 0 16 16" fill="none" xmlns="http://www.w3.org/2000/svg">
    <path d="M6.52658 9.27157L8.41862 9.86958C8.12855 10.921 7.6451 11.703 6.96827 12.2156C6.29584 12.7238 5.44101 12.9779 4.40379 12.9779C3.12045 12.9779 2.06565 12.542 1.23939 11.6701C0.41313 10.794 0 9.59796 0 8.08214C0 6.47871 0.415328 5.23452 1.24598 4.34957C2.07664 3.46023 3.1688 3.01556 4.52246 3.01556C5.70471 3.01556 6.66502 3.36385 7.40338 4.06042C7.84288 4.47223 8.1725 5.06366 8.39225 5.83471L6.46065 6.29471C6.34638 5.79528 6.10685 5.401 5.74207 5.11185C5.38168 4.82271 4.94218 4.67814 4.42357 4.67814C3.70718 4.67814 3.12485 4.93442 2.67656 5.447C2.23266 5.95957 2.01071 6.78976 2.01071 7.93757C2.01071 9.15548 2.23046 10.0229 2.66996 10.5399C3.10946 11.0568 3.68081 11.3153 4.38401 11.3153C4.90262 11.3153 5.34872 11.151 5.72229 10.8224C6.09587 10.4939 6.36396 9.97691 6.52658 9.27157Z" fill="black"/>
    <path d="M9.73053 10.5859L11.5237 10.3887C11.5676 10.7523 11.6819 11.0218 11.8665 11.197C12.0511 11.3722 12.295 11.4599 12.5983 11.4599C12.9806 11.4599 13.3059 11.2846 13.574 10.9341C13.8421 10.5837 14.0135 9.85643 14.0882 8.75243C13.6223 9.29129 13.04 9.56072 12.3412 9.56072C11.5808 9.56072 10.9238 9.26938 10.37 8.68672C9.82063 8.09967 9.54594 7.33738 9.54594 6.39986C9.54594 5.4229 9.83601 4.63652 10.4162 4.04071C11.0007 3.44052 11.7434 3.14042 12.6444 3.14042C13.6245 3.14042 14.4288 3.51937 15.0573 4.27728C15.6858 5.03081 16 6.27281 16 8.00329C16 9.76443 15.6726 11.0349 15.0177 11.8147C14.3629 12.5945 13.5102 12.9844 12.4598 12.9844C11.7039 12.9844 11.093 12.7851 10.6271 12.3864C10.1612 11.9834 9.86238 11.3832 9.73053 10.5859ZM13.9234 6.551C13.9234 5.95519 13.7849 5.493 13.508 5.16442C13.2355 4.83585 12.9191 4.67157 12.5587 4.67157C12.2159 4.67157 11.9302 4.80738 11.7017 5.079C11.4775 5.34623 11.3655 5.78652 11.3655 6.39986C11.3655 7.02195 11.4885 7.47976 11.7347 7.77329C11.9808 8.06243 12.2884 8.207 12.6576 8.207C13.0136 8.207 13.3125 8.06681 13.5542 7.78643C13.8003 7.50605 13.9234 7.09424 13.9234 6.551Z" fill="black"/>
</svg>