<svg width="16" height="16" viewBox="0 0 16 10" fill="none" xmlns="http://www.w3.org/2000/svg">
    <path d="M6.52658 6.27157L8.41862 6.86958C8.12855 7.92101 7.6451 8.70301 6.96827 9.21558C6.29584 9.72377 5.44101 9.97787 4.40379 9.97787C3.12045 9.97787 2.06565 9.54196 1.23939 8.67015C0.41313 7.79396 0 6.59796 0 5.08214C0 3.47871 0.415328 2.23452 1.24598 1.34957C2.07664 0.460231 3.1688 0.015564 4.52246 0.015564C5.70471 0.015564 6.66502 0.36385 7.40338 1.06042C7.84288 1.47223 8.1725 2.06366 8.39225 2.83471L6.46065 3.29471C6.34638 2.79528 6.10685 2.401 5.74207 2.11185C5.38168 1.82271 4.94218 1.67814 4.42357 1.67814C3.70718 1.67814 3.12485 1.93442 2.67656 2.447C2.23266 2.95957 2.01071 3.78976 2.01071 4.93757C2.01071 6.15548 2.23046 7.02291 2.66996 7.53986C3.10946 8.05682 3.68081 8.31529 4.38401 8.31529C4.90262 8.31529 5.34872 8.15101 5.72229 7.82243C6.09587 7.49386 6.36396 6.97691 6.52658 6.27157Z" fill="black"/>
    <path d="M9.73053 7.58586L11.5237 7.38872C11.5676 7.75234 11.6819 8.02177 11.8665 8.19701C12.0511 8.37224 12.295 8.45986 12.5983 8.45986C12.9806 8.45986 13.3059 8.28463 13.574 7.93415C13.8421 7.58367 14.0135 6.85643 14.0882 5.75243C13.6223 6.29129 13.04 6.56072 12.3412 6.56072C11.5808 6.56072 10.9238 6.26938 10.37 5.68672C9.82063 5.09967 9.54594 4.33738 9.54594 3.39986C9.54594 2.4229 9.83601 1.63652 10.4162 1.04071C11.0007 0.440517 11.7434 0.140421 12.6444 0.140421C13.6245 0.140421 14.4288 0.519374 15.0573 1.27728C15.6858 2.03081 16 3.27281 16 5.00329C16 6.76443 15.6726 8.03491 15.0177 8.81472C14.3629 9.59453 13.5102 9.98444 12.4598 9.98444C11.7039 9.98444 11.093 9.7851 10.6271 9.38644C10.1612 8.98339 9.86238 8.3832 9.73053 7.58586ZM13.9234 3.551C13.9234 2.95519 13.7849 2.493 13.508 2.16442C13.2355 1.83585 12.9191 1.67157 12.5587 1.67157C12.2159 1.67157 11.9302 1.80738 11.7017 2.079C11.4775 2.34623 11.3655 2.78652 11.3655 3.39986C11.3655 4.02195 11.4885 4.47976 11.7347 4.77329C11.9808 5.06243 12.2884 5.207 12.6576 5.207C13.0136 5.207 13.3125 5.06681 13.5542 4.78643C13.8003 4.50605 13.9234 4.09424 13.9234 3.551Z" fill="black"/>
</svg>
