<svg width="16" height="16" viewBox="0 0 16 16">
    <path d="M5.72527 15.9618C5.19423 15.8101 4.88674 15.2566 5.03846 14.7255L9.03846 0.725536C9.19019 0.194501 9.74367 -0.112991 10.2747 0.0387335C10.8057 0.190458 11.1132 0.743944 10.9615 1.27498L6.96151 15.275C6.80979 15.806 6.2563 16.1135 5.72527 15.9618Z"/>
    <path d="M4.20711 11.2074C3.81658 11.5979 3.18342 11.5979 2.79289 11.2074L0.292893 8.70736C-0.0976311 8.31684 -0.0976311 7.68367 0.292893 7.29315L2.79289 4.79315C3.18342 4.40263 3.81658 4.40263 4.20711 4.79315C4.59763 5.18367 4.59763 5.81684 4.20711 6.20736L2.41421 8.00026L4.20711 9.79315C4.59763 10.1837 4.59763 10.8168 4.20711 11.2074Z"/>
    <path d="M15.7071 8.70736C15.8946 8.51983 16 8.26547 16 8.00026C16 7.73504 15.8946 7.48069 15.7071 7.29315L13.2071 4.79315C12.8166 4.40263 12.1834 4.40263 11.7929 4.79315C11.4024 5.18368 11.4024 5.81684 11.7929 6.20736L13.5858 8.00026L11.7929 9.79315C11.4024 10.1837 11.4024 10.8168 11.7929 11.2074C12.1834 11.5979 12.8166 11.5979 13.2071 11.2074L15.7071 8.70736Z"/>
</svg>
