<svg data-testid="ICON_COLLECTION" width="16" height="16" viewBox="0 0 16 16">
    <path d="M0 1C0 0.447715 0.447715 0 1 0H6C6.55228 0 7 0.447715 7 1V8C7 8.55229 6.55228 9 6 9H1C0.447715 9 0 8.55229 0 8V1ZM2 7H5V2H2V7Z"/>
    <path d="M9 1C9 0.447715 9.44772 0 10 0H15C15.5523 0 16 0.447715 16 1V5C16 5.55228 15.5523 6 15 6H10C9.44771 6 9 5.55228 9 5V1ZM11 4H14V2H11V4Z"/>
    <path d="M10 8C9.44772 8 9 8.44772 9 9V15C9 15.5523 9.44771 16 10 16H15C15.5523 16 16 15.5523 16 15V9C16 8.44772 15.5523 8 15 8H10ZM14 10V14H11V10H14Z"/>
    <path d="M0 12C0 11.4477 0.447715 11 1 11H6C6.55228 11 7 11.4477 7 12V15C7 15.5523 6.55228 16 6 16H1C0.447715 16 0 15.5523 0 15V12ZM2 14H5V13H2V14Z"/>
</svg>
