<svg width="16" height="16" viewBox="0 0 16 16">
    <path d="M2.70711 1.29289C2.31658 0.902369 1.68342 0.902369 1.29289 1.29289C0.902369 1.68342 0.902369 2.31658 1.29289 2.70711L6.58579 8L1.29289 13.2929C0.90237 13.6834 0.90237 14.3166 1.29289 14.7071C1.68342 15.0976 2.31658 15.0976 2.70711 14.7071L8 9.41422L13.2929 14.7071C13.6834 15.0976 14.3166 15.0976 14.7071 14.7071C15.0976 14.3166 15.0976 13.6834 14.7071 13.2929L9.41422 8L14.7071 2.70711C15.0976 2.31659 15.0976 1.68342 14.7071 1.2929C14.3166 0.902371 13.6834 0.902371 13.2929 1.2929L8 6.58579L2.70711 1.29289Z"/>
</svg>
