<svg width="16" height="16" viewBox="0 0 16 16">
    <path d="M9.99954 2.04328C9.99985 2.02889 10 2.01446 10 2C10 0.895431 9.10457 0 8 0C6.89543 0 6 0.895431 6 2C6 2.01446 6.00015 2.02889 6.00046 2.04328C4.08489 2.12896 2.81731 2.32187 2.19803 2.43763C1.4741 2.57296 1 3.20561 1 3.89039V7C1 7.55228 1.44772 8 2 8H2.2L2.90995 15.0995C2.96107 15.6107 3.39124 16 3.90499 16H12.095C12.6088 16 13.0389 15.6107 13.09 15.0995L13.8 8H14C14.5523 8 15 7.55228 15 7V3.89039C15 3.20562 14.5259 2.57296 13.802 2.43763C13.1827 2.32187 11.9151 2.12896 9.99954 2.04328ZM11.79 8L11.19 14H4.80997L4.20998 8H11.79ZM13 6H3L3 4.32951C3.88754 4.19093 5.55361 4.00007 7.99863 4L8 4C10.4458 4 12.1123 4.19091 13 4.32952V6Z"/>
</svg>
