<svg width="14" height="16" viewBox="0 0 14 16">
    <path d="M13.7071 1.70711C14.0976 1.31658 14.0976 0.683417 13.7071 0.292893C13.3166 -0.0976311 12.6834 -0.0976311 12.2929 0.292893L5 7.58579L1.70711 4.29289C1.31658 3.90237 0.683418 3.90237 0.292893 4.29289C-0.0976312 4.68342 -0.0976309 5.31658 0.292893 5.70711L4.29289 9.70711C4.68342 10.0976 5.31658 10.0976 5.70711 9.70711L13.7071 1.70711Z"/>
    <path d="M13.7071 7.70711C14.0976 7.31658 14.0976 6.68342 13.7071 6.29289C13.3166 5.90237 12.6834 5.90237 12.2929 6.29289L5 13.5858L1.70711 10.2929C1.31658 9.90237 0.683418 9.90237 0.292893 10.2929C-0.0976312 10.6834 -0.0976309 11.3166 0.292893 11.7071L4.29289 15.7071C4.68342 16.0976 5.31658 16.0976 5.70711 15.7071L13.7071 7.70711Z"/>
</svg>