<svg width="16" height="10" viewBox="0 0 16 10">
    <g opacity="0.9">
        <path d="M15.7593 2.15081C16.1187 1.73148 16.0701 1.10018 15.6508 0.740762C15.2315 0.381339 14.6002 0.429901 14.2407 0.849227L8.94351 7.02932L5.7071 3.79291C5.31658 3.40239 4.68341 3.40239 4.29289 3.79291C3.90236 4.18344 3.90236 4.8166 4.29289 5.20713L8.29289 9.20712C8.48985 9.40409 8.76003 9.50997 9.03837 9.49928C9.31671 9.48859 9.57798 9.3623 9.75925 9.15081L15.7593 2.15081Z"/>
        <path d="M10.7593 2.15081L8.64867 4.61316L7.23028 3.19477L9.24074 0.849227C9.60017 0.429902 10.2315 0.38134 10.6508 0.740762C11.0701 1.10018 11.1187 1.73148 10.7593 2.15081Z"/>
        <path d="M1.70711 4.79291L5.3851 8.42066L4.75926 9.15081C4.57798 9.3623 4.31672 9.48859 4.03838 9.49928C3.76004 9.50997 3.48985 9.40409 3.29289 9.20713L0.292893 6.20712C-0.097631 5.8166 -0.0976313 5.18344 0.292893 4.79291C0.683418 4.40239 1.31658 4.40239 1.70711 4.79291Z"/>
    </g>
</svg>
