<svg width="16" height="16" viewBox="0 0 16 16">
    <path d="M4.00177 1.5C4.00177 2.32843 3.3298 3 2.50088 3C1.67197 3 1 2.32843 1 1.5C1 0.671573 1.67197 0 2.50088 0C3.3298 0 4.00177 0.671573 4.00177 1.5Z"/>
    <path d="M9.00471 1.5C9.00471 2.32843 8.33274 3 7.50382 3C6.67491 3 6.00294 2.32843 6.00294 1.5C6.00294 0.671573 6.67491 0 7.50382 0C8.33274 0 9.00471 0.671573 9.00471 1.5Z"/>
    <path d="M12.5068 3C13.3357 3 14.0076 2.32843 14.0076 1.5C14.0076 0.671573 13.3357 0 12.5068 0C11.6779 0 11.0059 0.671573 11.0059 1.5C11.0059 2.32843 11.6779 3 12.5068 3Z"/>
    <path d="M4.00177 6.5C4.00177 7.32843 3.3298 8 2.50088 8C1.67197 8 1 7.32843 1 6.5C1 5.67157 1.67197 5 2.50088 5C3.3298 5 4.00177 5.67157 4.00177 6.5Z"/>
    <path d="M12.5068 8C13.3357 8 14.0076 7.32843 14.0076 6.5C14.0076 5.67157 13.3357 5 12.5068 5C11.6779 5 11.0059 5.67157 11.0059 6.5C11.0059 7.32843 11.6779 8 12.5068 8Z"/>
    <path d="M4.00177 11.5C4.00177 12.3284 3.3298 13 2.50088 13C1.67197 13 1 12.3284 1 11.5C1 10.6716 1.67197 10 2.50088 10C3.3298 10 4.00177 10.6716 4.00177 11.5Z"/>
    <path d="M6.50324 6C6.50324 5.44772 6.95121 5 7.50382 5C8.05643 5 8.50441 5.44772 8.50441 6V9.09321C11.5353 9.38397 13.3598 10.282 14.1097 10.7342C14.37 10.8911 14.5103 11.1775 14.4994 11.4811C14.4346 13.2975 14.0171 14.6967 13.7448 15.4302C13.6129 15.7853 13.268 16 12.889 16H8.00521C7.68664 16.0003 7.36798 15.879 7.12492 15.6361L5.36653 13.8787C4.88096 13.3934 4.88096 12.6066 5.36653 12.1213L6.50324 10.9853V6Z"/>
</svg>
