<svg data-testid="ICON_DOCUMENT-SHARING" width="16" height="16" viewBox="0 0 16 16">
    <path d="M15.7072 3.29285C16.0977 3.68337 16.0977 4.31654 15.7072 4.70706L12.7072 7.70712C12.3166 8.09764 11.6835 8.09765 11.293 7.70712C10.9024 7.3166 10.9024 6.68344 11.293 6.29291L12.5858 5.00001L10.5 5C9.67157 5 9 5.67157 9 6.5L8.99997 9.5C8.99997 11 7 11 7 9.5V6.5C7 4.567 8.567 3 10.5 3H12.5859L11.293 1.70711C10.9024 1.31659 10.9024 0.683422 11.293 0.292896C11.6835 -0.0976298 12.3166 -0.0976323 12.7072 0.29289L15.7072 3.29285Z"/>
    <path d="M14 15C14 15.5523 13.5523 16 13 16H3C2.44772 16 2 15.5523 2 15V1C2 0.447715 2.44772 1.11837e-08 3 1.11837e-08H8V2H4V14H12V10H14V15Z"/>
</svg>
