<svg data-testid="ICON_EDIT" width="16" height="17" viewBox="0 0 16 17">
    <path d="M12.8585 3.82L12.5184 3.48L12.1782 3.14L7.43595 7.88L2.69371 12.62L2.59366 13.06L2.49361 13.5L2.93382 13.4L3.37403 13.3L8.11627 8.56L12.8585 3.82ZM4.39451 15.11L2.49361 15.55L0.602718 15.99C0.422633 16.03 0.252553 15.97 0.142501 15.86C0.0324488 15.75 -0.0275796 15.58 0.0124393 15.4L0.452647 13.51L0.892856 11.62L6.33543 6.18L11.778 0.74C12.2482 0.24 12.8785 0 13.5188 0C14.1491 0 14.7894 0.24 15.2697 0.73C15.7599 1.21 16 1.85 16 2.48C16 3.11 15.7599 3.75 15.2697 4.23L9.82708 9.67L4.39451 15.11Z"/>
</svg>
