<svg data-testid="ICON_EMAIL" width="16" height="16" viewBox="0 0 16 16">
    <path d="M0 3.28078C0 2.82191 0.313704 2.43067 0.76806 2.36649C1.81656 2.21837 4.03478 2 8 2C11.9652 2 14.1834 2.21837 15.2319 2.36649C15.6863 2.43067 16 2.82191 16 3.28078V12.7192C16 13.1781 15.6863 13.5693 15.2319 13.6335C14.1834 13.7816 11.9652 14 8 14C4.03478 14 1.81656 13.7816 0.76806 13.6335C0.313704 13.5693 0 13.1781 0 12.7192V3.28078ZM11.4209 4.0644C10.4754 4.02553 9.34312 4 8 4C6.65687 4 5.52459 4.02553 4.57911 4.0644L7.99999 7.48528L11.4209 4.0644ZM2 4.31372V11.765C3.17557 11.8805 5.09442 12 8 12C10.9056 12 12.8244 11.8805 14 11.765V4.3137L8.70709 9.6066C8.31657 9.99713 7.68341 9.99713 7.29288 9.6066L2 4.31372Z"/>
</svg>
