<svg data-testid="ICON_EMOTICON" width="16" height="16" viewBox="0 0 16 16">
    <path d="M6.01591 9.25052C5.60184 8.88505 4.9699 8.92445 4.60444 9.33852C4.23897 9.75259 4.27837 10.3845 4.69244 10.75C5.57325 11.5274 6.73263 12.0003 8 12.0003C9.26737 12.0003 10.4267 11.5274 11.3076 10.75C11.7216 10.3845 11.761 9.75259 11.3956 9.33852C11.0301 8.92445 10.3982 8.88505 9.98409 9.25052C9.45464 9.71782 8.76152 10.0003 8 10.0003C7.23848 10.0003 6.54536 9.71782 6.01591 9.25052Z"/>
    <path d="M16 8.00024C16 12.4185 12.4183 16.0002 8 16.0002C3.58172 16.0002 0 12.4185 0 8.00024C0 3.58197 3.58172 0.000244141 8 0.000244141C12.4183 0.000244141 16 3.58197 16 8.00024ZM14 8.00024C14 4.68654 11.3137 2.00024 8 2.00024C4.68629 2.00024 2 4.68654 2 8.00024C2 11.314 4.68629 14.0002 8 14.0002C11.3137 14.0002 14 11.314 14 8.00024Z"/>
</svg>
