<svg data-testid="ICON_ENTER" width="16" height="16" viewBox="0 0 16 16">
    <path d="M16 1C16 0.447715 15.5523 0 15 0C14.4477 0 14 0.447715 14 1V8H3.41421L6.70711 4.70711C7.09763 4.31658 7.09763 3.68342 6.70711 3.29289C6.31658 2.90237 5.68342 2.90237 5.29289 3.29289L0.292893 8.29289C0.105356 8.48043 0 8.73478 0 9C0 9.26522 0.105356 9.51957 0.292893 9.70711L5.29289 14.7071C5.68342 15.0976 6.31658 15.0976 6.70711 14.7071C7.09763 14.3166 7.09763 13.6834 6.70711 13.2929L3.41421 10H15C15.5523 10 16 9.55229 16 9V1Z"/>
</svg>
