<svg width="16" height="16" viewBox="0 0 16 16">
    <path d="M1 1C0.447715 1 0 1.44772 0 2C0 2.55228 0.447715 3 1 3H15C15.5523 3 16 2.55228 16 2C16 1.44772 15.5523 1 15 1H1Z"/>
    <path d="M1 5C0.447715 5 0 5.44772 0 6C0 6.55228 0.447715 7 1 7H12C12.5523 7 13 6.55228 13 6C13 5.44772 12.5523 5 12 5H1Z"/>
    <path d="M0 10C0 9.44772 0.447715 9 1 9H9C9.55229 9 10 9.44771 10 10C10 10.5523 9.55229 11 9 11H1C0.447715 11 0 10.5523 0 10Z"/>
    <path d="M1 13C0.447715 13 0 13.4477 0 14C0 14.5523 0.447715 15 1 15H6C6.55228 15 7 14.5523 7 14C7 13.4477 6.55228 13 6 13H1Z"/>
</svg>
