<svg width="16" height="16" viewBox="0 0 16 16">
<path d="M6.41899 0.00476074L7.70711 1.29288C8.93515 2.52093 9.47712 4.409 9.73387 5.8211C9.73693 5.83793 9.73995 5.85472 9.74294 5.87148C9.86961 5.64038 9.97654 5.40809 10.0513 5.18376L10.563 3.64875L11.7071 4.79288C13.3925 6.47828 14 8.23176 14 9.99999C14 12.0093 13.2713 13.5465 12.0924 14.5682C10.937 15.5696 9.43799 16 7.99999 16C6.55559 16 5.16943 15.5654 4.13421 14.6098C3.08586 13.6421 2.5 12.2343 2.5 10.5C2.5 8.69968 3.26879 7.4827 4.003 6.32046C4.01184 6.30646 4.02068 6.29247 4.02951 6.27849L4.03758 6.26571C4.77504 5.09809 5.56513 3.84714 6.02381 1.78305L6.41899 0.00476074ZM8 8.50037L7.99996 8.49413L7.99962 8.46356C7.9992 8.43521 7.99835 8.39129 7.99657 8.33347C7.99301 8.21775 7.98578 8.04693 7.97112 7.83441C7.94171 7.40792 7.88289 6.82106 7.76613 6.17887C7.65666 5.57681 7.50371 4.96988 7.29822 4.41405C6.81094 5.62016 6.23736 6.52821 5.74309 7.3107L5.72049 7.34648C4.96258 8.5465 4.5 9.32197 4.5 10.5C4.5 11.7657 4.91413 12.6079 5.49078 13.1402C6.08055 13.6846 6.94439 14 7.99999 14C9.062 14 10.063 13.6804 10.7826 13.0568C11.4787 12.4535 12 11.4907 12 9.99999C12 9.12084 11.8001 8.23419 11.2076 7.32064C11.0038 7.64126 10.7924 7.93147 10.6019 8.17642C10.3648 8.48125 10.145 8.73482 9.98372 8.91309C9.8944 9.01181 9.80383 9.1096 9.71005 9.20414L9.70711 9.20709L8 10.9142V8.50037Z"/>
</svg>
