<svg width="16" height="16" viewBox="0 0 16 16" fill="none" xmlns="http://www.w3.org/2000/svg">
<path d="M0 3C0 1.89543 0.895431 1 2 1H6.58579C7.11622 1 7.62493 1.21071 8 1.58579L10.4142 4H14C15.1046 4 16 4.89543 16 6V13.7192C16 14.1781 15.6863 14.5693 15.2319 14.6335C14.1834 14.7816 11.9652 15 8 15C4.03478 15 1.81656 14.7816 0.76806 14.6335C0.313704 14.5693 0 14.1781 0 13.7192V3ZM2 12.765C3.17557 12.8805 5.09442 13 8 13C10.9056 13 12.8244 12.8805 14 12.765V6H10.4142C9.88378 6 9.37507 5.78929 9 5.41421L6.58579 3L2 3V12.765Z" fill="black"/>
</svg>
