<svg width="16" height="16" viewBox="0 0 16 16" fill="none" xmlns="http://www.w3.org/2000/svg">
<path d="M8 3.5C8 3.77614 7.55228 4 7 4C6.44772 4 6 3.77614 6 3.5C6 3.22386 6.44772 3 7 3C7.55228 3 8 3.22386 8 3.5Z" fill="black"/>
<path d="M10 5C10.5523 5 11 4.77614 11 4.5C11 4.22386 10.5523 4 10 4C9.44771 4 9 4.22386 9 4.5C9 4.77614 9.44771 5 10 5Z" fill="black"/>
<path d="M0 7.13514C0 3.19451 3.19451 0 7.13514 0H8.86486C12.8055 0 16 3.19451 16 7.13514C16 7.61279 15.6128 8 15.1351 8H0.864865C0.387214 8 0 7.61279 0 7.13514ZM7.13514 2C4.68914 2 2.64258 3.71015 2.12589 6H13.8741C13.3574 3.71015 11.3109 2 8.86486 2H7.13514Z" fill="black"/>
<path d="M2 9H7.74999L9.59999 11.4667C9.79999 11.7333 10.2 11.7333 10.4 11.4667L12.25 9H14C14.5523 9 15 9.44771 15 10C15 10.5523 14.5523 11 14 11H15C15.5523 11 16 11.4477 16 12V14C16 15.1046 15.1046 16 14 16H2C0.895431 16 0 15.1046 0 14V12C0 11.4477 0.447715 11 1 11H2C1.44772 11 1 10.5523 1 10C1 9.44771 1.44772 9 2 9ZM2 14H14V13H2V14Z" fill="black"/>
</svg>
