<svg data-testid="ICON_FORMAT" width="16" height="16" viewBox="0 0 16 16">
<path d="M2 2.00024C2 1.44796 2.44772 1.00024 3 1.00024H13C13.5523 1.00024 14 1.44796 14 2.00024V5.18817C14 5.63667 13.6364 6.00024 13.1879 6.00024C12.791 6.00024 12.4522 5.71325 12.3869 5.32168L12 3.00024H9.25V13.0002L11.3214 13.3871C11.713 13.4524 12 13.7912 12 14.1882C12 14.6367 11.6364 15.0002 11.1879 15.0002H4.81207C4.36358 15.0002 4 14.6367 4 14.1882C4 13.7912 4.287 13.4524 4.67857 13.3871L6.72 13.0002V3.00024H4L3.61309 5.32168C3.54783 5.71325 3.20904 6.00024 2.81207 6.00024C2.36358 6.00024 2 5.63667 2 5.18817V2.00024Z"/>
</svg>
