<svg width="16" height="16" viewBox="0 0 16 16">
<path d="M9.29785 2.70711C8.90761 2.31658 8.90761 1.68342 9.29785 1.29289C9.68809 0.902369 10.3208 0.902369 10.711 1.29289L15.7073 6.29289C15.8947 6.48043 16 6.73478 16 7C16 7.00001 16 6.99999 16 7C16 7.27861 15.8861 7.53065 15.7024 7.71198L10.711 12.7071C10.3208 13.0976 9.68809 13.0976 9.29785 12.7071C8.90762 12.3166 8.90762 11.6834 9.29785 11.2929L12.5883 8.00002L6.00739 8C4.86643 8 4.10984 8.35504 3.57791 8.83585C3.02511 9.33552 2.64763 10.0337 2.39959 10.806C2.15261 11.5749 2.05238 12.3605 2.01639 12.9656C1.99857 13.2652 1.99689 13.5134 1.9995 13.6839C2.0008 13.7689 2.00316 13.8341 2.00506 13.8761C2.00601 13.8971 2.00684 13.9123 2.00736 13.9212L2.00781 13.9287L2.0079 13.93C2.04628 14.4802 1.63221 14.9581 1.08228 14.9974C0.531808 15.0368 0.0536856 14.6221 0.0143661 14.0712L1.01109 13.9999C0.0143661 14.0712 0.0143966 14.0716 0.0143661 14.0712L0.0142356 14.0693L0.0140631 14.0669L0.0136018 14.0599L0.012281 14.0385C0.011249 14.0209 0.00994529 13.9968 0.00857683 13.9665C0.0058418 13.906 0.00283519 13.8208 0.00120847 13.7145C-0.00204021 13.5021 0.000184978 13.2034 0.021399 12.8468C0.0634726 12.1394 0.181836 11.175 0.496939 10.194C0.810984 9.21622 1.33908 8.16446 2.23833 7.35164C3.15845 6.51995 4.40038 6 6.0074 6L12.5883 6.00002L9.29785 2.70711Z"/>
</svg>
