<svg data-testid="ICON_FULLSCREEN-OFF" width="16" height="16" viewBox="0 0 16 16">
<path d="M15.0001 5.00614C15.5523 5.00617 16 5.4536 16 6.00552C16 6.55747 15.5523 7.00491 15 7.00491L14.9842 7.00479L10.0001 7.00479C9.4478 7.00479 9.00009 6.55747 9.00009 6.00552L9.00009 1.00846C9.00009 0.456517 9.44775 0.00919558 10 0.00919563C10.5523 0.00919568 11 0.456573 11.0001 1.00846V3.5927L14.3339 0.249585L14.3353 0.250994C14.5117 0.0948088 14.7438 0 14.9981 0C15.5503 0 15.9981 0.447429 15.9981 0.999376C15.9981 1.25346 15.9032 1.4854 15.7469 1.66174L15.7481 1.66291C14.9995 2.41109 14.2524 3.16107 13.5054 3.91103L13.5032 3.91324C13.1403 4.27758 12.7773 4.6419 12.4143 5.00601L15.0001 5.00614Z"/>
<path d="M14 15L9.00009 15L9.00009 13.0012H13V9.00367L15 9.00367L15 14.0006C15 14.5526 14.5523 15 14 15Z"/>
<path d="M2.00004 1H6.99994V2.99878H3.00004V6.99633H1.00004V1.99939C1.00004 1.44744 1.44776 1 2.00004 1Z"/>
<path d="M0.999943 10.9939C0.447685 10.9938 0 10.5464 0 9.99448C0 9.44253 0.447715 8.99509 1 8.99509L1.0158 8.99521H5.99994C6.55223 8.99521 6.99994 9.44253 6.99994 9.99448V14.9915C6.99994 15.5435 6.55229 15.9908 6 15.9908C5.44776 15.9908 5.00001 15.5434 4.99994 14.9915V12.4073L1.66615 15.7504L1.66474 15.749C1.4883 15.9052 1.25621 16 1.00197 16C0.449688 16 0.0019725 15.5526 0.0019725 15.0006C0.0019725 14.7465 0.0968502 14.5146 0.253133 14.3383L0.251962 14.3371C1.00026 13.5892 1.74706 12.8395 2.49382 12.0898L2.49454 12.0891C2.85818 11.724 3.22197 11.3588 3.58576 10.994L0.999943 10.9939Z"/>
</svg>
