<svg width="16" height="16" viewBox="0 0 16 16">
<path d="M9 1C9 1.55227 9.44768 1.99997 9.99994 2L12.5858 2.00012C11.3905 3.19543 10.1952 4.39083 8.99999 5.58606L9.00116 5.58723C8.84488 5.76368 8.75 5.99576 8.75 6.25C8.75 6.80228 9.19771 7.25 9.75 7.25C10.0042 7.25 10.2363 7.15512 10.4128 6.99884L10.4142 7.00025L13.9999 3.4143V6.00012C14 6.55235 14.4478 7 15 7C15.5523 7 16 6.55228 16 6L15.9999 5.98919V1.00012C15.9999 0.447837 15.5522 0.00012209 14.9999 0.000122114L10.0158 0.000122332L10 0C9.44771 0 9 0.447715 9 1Z"/>
<path d="M2 12.5857L5.58577 8.99977L5.58719 9.00119C5.76364 8.84489 5.99574 8.75 6.25 8.75C6.80228 8.75 7.25 9.19771 7.25 9.75C7.25 10.0043 7.15511 10.2364 6.9988 10.4128L6.99996 10.414C5.80479 11.6092 4.60944 12.8046 3.41419 13.9999H6C6.55229 13.9999 7 14.4477 7 15C7 15.5523 6.55228 16 6 16L5.98557 15.9999H1C0.447719 15.9999 3.83427e-06 15.5522 3.85841e-06 14.9999L4.07683e-06 10.0029L0 10C0 9.44771 0.447715 9 1 9C1.55225 9 1.99995 9.44766 2 9.9999V12.5857Z"/>
<path d="M7 1.00001H2C1.44772 1.00001 1 1.44773 1 2.00001V7.00001H3V3.00001H7V1.00001Z"/>
<path d="M13 13H9V15L14 15C14.5523 15 15 14.5523 15 14L15 9.00001H13V13Z"/>
</svg>
