<svg width="17" height="18" viewBox="0 0 17 18">
    <path d="M2.99998 0.999938C1.89541 0.999938 0.999979 1.89537 0.999979 2.99994V6.00789C0.999979 7.11246 1.89541 8.00789 2.99998 8.00789L6.00542 8.00594C7.10999 8.00594 8.00542 7.11051 8.00542 6.00594V2.99798C8.00542 1.89341 7.10999 0.997984 6.00542 0.997984L2.99998 0.999938ZM5.99998 2.99994V5.99994L3.00242 6.00189V3.00189L5.99998 2.99994Z"/>
    <path d="M11.9976 0.998047C10.893 0.998047 9.99756 1.89348 9.99756 2.99805L9.99512 6.012C9.99512 7.11657 10.8905 8.012 11.9951 8.012L14.9975 8.0059C16.1021 8.0059 16.9975 7.11047 16.9975 6.0059L17 2.99194C17 1.88737 16.1045 0.991943 15 0.991943L11.9976 0.998047ZM14.9945 2.9939L14.9921 5.9999L11.9976 6.006L12 3L14.9945 2.9939Z"/>
    <path d="M11.9951 9.99603C10.8905 9.99603 9.99512 10.8915 9.99512 11.996L9.99756 15.006C9.99756 16.1106 10.893 17.006 11.9976 17.006L15.0001 16.9999C16.1047 16.9999 17.0001 16.1045 17.0001 14.9999L16.9976 11.9899C16.9976 10.8854 16.1022 9.98993 14.9976 9.98993L11.9951 9.99603ZM14.9922 11.9919L14.9946 14.9939L12 15L11.9976 11.998L14.9922 11.9919Z"/>
    <path d="M2.99451 9.99994C1.88994 9.99994 0.994507 10.8954 0.994507 11.9999L0.999979 15C0.999979 16.1046 1.89541 17 2.99998 17L6.01634 16.9981C7.12091 16.9981 8.01634 16.1027 8.01634 14.9981L8.01087 11.998C8.01087 10.8934 7.11544 9.99798 6.01087 9.99798L2.99451 9.99994ZM6.00542 11.9999L6.0109 14.9921L3.00242 14.994L2.99695 12.0019L6.00542 11.9999Z"/>
</svg>
