<svg width="16" height="16" viewBox="0 0 16 16">
<path d="M5.8897 5.8897C7.99056 3.78885 9.87093 2.66241 11.1109 2.07812C11.3754 1.95345 11.856 1.95652 12.3621 2.46264L12.6185 2.71903C12.9992 3.09973 13.3044 3.44939 13.5455 3.75306L11.3172 5.67213L11.2099 5.61678C11.2069 5.61512 11.1982 5.61029 11.1786 5.59952C11.1485 5.583 11.0752 5.54273 10.986 5.50128C10.8118 5.42038 10.4496 5.27235 9.97404 5.27579C9.38233 5.28008 8.85701 5.49697 8.42036 5.75953C7.97303 6.02852 7.49322 6.42107 6.95715 6.95715C6.42107 7.49322 6.02852 7.97303 5.75953 8.42036C5.49697 8.85701 5.28008 9.38233 5.27579 9.97404C5.27235 10.4496 5.42038 10.8118 5.50128 10.986C5.54273 11.0752 5.583 11.1485 5.59951 11.1786C5.6103 11.1982 5.61513 11.207 5.61679 11.2099L5.67213 11.3172L3.75306 13.5455C3.44939 13.3044 3.09973 12.9992 2.71903 12.6185L2.46263 12.3621C1.95652 11.856 1.95346 11.3754 2.07812 11.1109C2.66241 9.87093 3.78885 7.99056 5.8897 5.8897ZM13.7763 1.04842C12.8246 0.0966799 11.4568 -0.308371 10.2461 0.262139C8.81162 0.938123 6.73919 2.1937 4.46645 4.46644C2.1937 6.73919 0.938123 8.81162 0.262138 10.2461C-0.308371 11.4568 0.0966799 12.8246 1.04842 13.7763L1.30481 14.0327C2.21463 14.9426 2.99704 15.5034 3.50963 15.8209C3.87951 16.0501 4.33996 15.9482 4.62219 15.6205L7.6357 12.1215C7.9015 11.8129 7.95254 11.3727 7.76473 11.0087L7.39429 10.2906C7.38497 10.2725 7.375 10.2545 7.365 10.2363C7.32359 10.1614 7.28154 10.0853 7.28215 10.0014C7.28368 9.78901 7.44418 9.31663 8.38041 8.3804C9.31663 7.44418 9.78901 7.28368 10.0014 7.28215C10.0853 7.28154 10.1614 7.32359 10.2363 7.365C10.2545 7.375 10.2725 7.38497 10.2906 7.39429L11.0087 7.76473C11.3727 7.95254 11.8129 7.9015 12.1215 7.6357L15.6205 4.62219C15.9482 4.33996 16.0501 3.87951 15.8209 3.50963C15.5034 2.99704 14.9426 2.21463 14.0327 1.30482L13.7763 1.04842Z"/>
</svg>
