<svg width="16" height="16" viewBox="0 0 16 16">
<path d="M8 12.25C8.69036 12.25 9.25 11.6904 9.25 11C9.25 10.3096 8.69036 9.75 8 9.75C7.30964 9.75 6.75 10.3096 6.75 11C6.75 11.6904 7.30964 12.25 8 12.25Z"/>
<path d="M10.6394 4.34384C9.89749 3.05877 8.25428 2.61847 6.96921 3.36041L5.4885 4.2153C5.0212 4.48509 4.8611 5.08262 5.13089 5.54992C5.40068 6.01722 5.99822 6.17732 6.46551 5.90753L7.94622 5.05264C8.29669 4.8503 8.74484 4.97038 8.94719 5.32085C9.14953 5.67133 9.02945 6.11947 8.67898 6.32182L7.19827 7.17671C6.73098 7.4465 6.57087 8.04403 6.84066 8.51133C7.11046 8.97863 7.70799 9.13874 8.17529 8.86894L9.65599 8.01406C10.9411 7.27212 11.3814 5.62891 10.6394 4.34384Z"/>
<path d="M16 8C16 12.4183 12.4183 16 8 16C3.58172 16 0 12.4183 0 8C0 3.58172 3.58172 0 8 0C12.4183 0 16 3.58172 16 8ZM14 8C14 4.68629 11.3137 2 8 2C4.68629 2 2 4.68629 2 8C2 11.3137 4.68629 14 8 14C11.3137 14 14 11.3137 14 8Z"/>
</svg>
