<svg data-testid="ICON_IDLE" width="16" height="16" viewBox="0 0 16 16">
    <path d="M2.26427 0.58517C3.36056 0.310279 5.21486 0 8 0C10.7851 0 12.6394 0.310279 13.7357 0.58517C14.5752 0.795669 15.2043 1.42478 15.4148 2.26427C15.6897 3.36056 16 5.21486 16 8C16 10.7851 15.6897 12.6394 15.4148 13.7357C15.2043 14.5752 14.5752 15.2043 13.7357 15.4148C12.6394 15.6897 10.7851 16 8 16C5.21486 16 3.36057 15.6897 2.26427 15.4148C1.42478 15.2043 0.795669 14.5752 0.58517 13.7357C0.310279 12.6394 0 10.7851 0 8C0 5.21486 0.310279 3.36057 0.58517 2.26427C0.795669 1.42478 1.42478 0.795669 2.26427 0.58517ZM7.13397 8.49987L8.88178 11.5272C9.15792 12.0055 9.76951 12.1694 10.2478 11.8932C10.7261 11.6171 10.89 11.0055 10.6138 10.5272L9 7.73193V3C9 2.44772 8.55228 2 8 2C7.44772 2 7 2.44772 7 3V7.99988C7 8.17541 7.0462 8.34785 7.13397 8.49987Z"/>
</svg>
