<svg data-testid="ICON_ITALIC" width="16" height="16" viewBox="0 0 16 16">
<path d="M4.25 2.00024C4.25 1.44796 4.69772 1.00024 5.25 1.00024H13.25C13.8023 1.00024 14.25 1.44796 14.25 2.00024C14.25 2.55253 13.8023 3.00024 13.25 3.00024H10.32L8.18 13.0002H10.75C11.3023 13.0002 11.75 13.448 11.75 14.0002C11.75 14.5525 11.3023 15.0002 10.75 15.0002H2.75C2.19772 15.0002 1.75 14.5525 1.75 14.0002C1.75 13.448 2.19772 13.0002 2.75 13.0002H5.68L7.82 3.00024H5.25C4.69772 3.00024 4.25 2.55253 4.25 2.00024Z"/>
</svg>
