<svg data-testid="ICON_LIST" width="16" height="16" viewBox="0 0 16 16">
<path d="M1.5 4.5C2.32843 4.5 3 3.82843 3 3C3 2.17157 2.32843 1.5 1.5 1.5C0.671573 1.5 0 2.17157 0 3C0 3.82843 0.671573 4.5 1.5 4.5Z"/>
<path d="M3 8C3 8.82843 2.32843 9.5 1.5 9.5C0.671573 9.5 0 8.82843 0 8C0 7.17157 0.671573 6.5 1.5 6.5C2.32843 6.5 3 7.17157 3 8Z"/>
<path d="M3 13C3 13.8284 2.32843 14.5 1.5 14.5C0.671573 14.5 0 13.8284 0 13C0 12.1716 0.671573 11.5 1.5 11.5C2.32843 11.5 3 12.1716 3 13Z"/>
<path d="M6 2C5.44772 2 5 2.44772 5 3C5 3.55228 5.44771 4 6 4H15C15.5523 4 16 3.55228 16 3C16 2.44772 15.5523 2 15 2H6Z"/>
<path d="M5 8C5 7.44772 5.44772 7 6 7H15C15.5523 7 16 7.44772 16 8C16 8.55229 15.5523 9 15 9H6C5.44771 9 5 8.55229 5 8Z"/>
<path d="M6 12C5.44772 12 5 12.4477 5 13C5 13.5523 5.44771 14 6 14H15C15.5523 14 16 13.5523 16 13C16 12.4477 15.5523 12 15 12H6Z"/>
</svg>
