<svg data-testid="ICON_LOADING" width="16" height="16" viewBox="0 0 16 16">
<path d="M2.28571 8C2.28571 10.7671 4.25253 13.0748 6.86444 13.6015C7.48317 13.7262 8 14.226 8 14.8571C8 15.4883 7.4854 16.0086 6.86054 15.9195C2.98197 15.3664 0 12.0314 0 8C0 3.58172 3.58172 0 8 0C12.4183 0 16 3.58172 16 8C16 9.79317 15.41 11.4486 14.4136 12.7826C14.053 13.2654 13.3602 13.2853 12.909 12.8858C12.4177 12.4507 12.4094 11.6934 12.7711 11.1459C13.3673 10.2436 13.7143 9.16233 13.7143 8C13.7143 4.84409 11.1559 2.28571 8 2.28571C4.84409 2.28571 2.28571 4.84409 2.28571 8Z"/>
</svg>
