<svg data-testid="ICON_LOCK" width="16" height="16" viewBox="0 0 16 16">
<path d="M13 6.30767C13.3348 6.35489 13.6021 6.40028 13.802 6.43763C14.5259 6.57296 15 7.20562 15 7.89039V14.1096C15 14.7944 14.5259 15.427 13.802 15.5624C12.9879 15.7145 11.0537 16 8 16C4.9463 16 3.01206 15.7145 2.19803 15.5624C1.4741 15.427 1 14.7944 1 14.1096V7.89039C1 7.20562 1.4741 6.57296 2.19803 6.43763C2.39786 6.40028 2.66518 6.35489 3 6.30767V5C3 2.23858 5.23858 0 8 0C10.7614 0 13 2.23858 13 5V6.30767ZM11 6.10095V5C11 3.34315 9.65685 2 8 2C6.34315 2 5 3.34315 5 5V6.10095C5.83784 6.04134 6.83785 6 8 6C9.16215 6 10.1622 6.04134 11 6.10095ZM3 13.6705C3.88771 13.8091 5.55423 14 8 14C10.4458 14 12.1123 13.8091 13 13.6705V8.32952C12.1123 8.19091 10.4458 8 8 8C5.55423 8 3.88771 8.19091 3 8.32952V13.6705Z"/>
</svg>
