<svg width="16" height="17" viewBox="0 0 16 17" fill="none" xmlns="http://www.w3.org/2000/svg">
<path d="M13.0004 5.76394V5C13.0004 2.23858 10.7618 -3.78978e-07 8.00035 0C5.23893 2.24121e-07 3.00035 2.23858 3.00035 5V6.30767C2.66554 6.35489 2.39821 6.40028 2.19839 6.43763C1.47446 6.57296 1.00035 7.20562 1.00035 7.89039V12.6921L3.00035 11.5374V8.32952C3.88806 8.19091 5.55458 8 8.00035 8C8.38785 8 8.75578 8.00479 9.10416 8.01341L13.0004 5.76394ZM11.0004 6.10095V5C11.0004 3.34315 9.65721 2 8.00035 2C6.3435 2 5.00035 3.34315 5.00035 5L5.00035 6.10095C5.83819 6.04134 6.8382 6 8.00035 6C9.1625 6 10.1625 6.04134 11.0004 6.10095Z" fill="black"/>
<path d="M1.00035 13.8438V13.8464L0.500167 14.1352C0.0218744 14.4113 -0.142001 15.0229 0.134142 15.5012C0.410284 15.9795 1.02187 16.1434 1.50017 15.8672L2.07669 15.5344C2.11641 15.5453 2.15699 15.5546 2.19839 15.5624C3.01241 15.7145 4.94666 16 8.00035 16C11.054 16 12.9883 15.7145 13.8023 15.5624C14.5262 15.427 15.0004 14.7944 15.0004 14.1096L15.0004 8.07288L15.4964 7.7865C15.9747 7.51036 16.1385 6.89877 15.8624 6.42047C15.5863 5.94218 14.9747 5.7783 14.4964 6.05445L14.4332 6.09089C14.4276 6.09448 14.4218 6.09797 14.4159 6.10137L1.04609 13.8204C1.03109 13.8291 1.01582 13.8369 1.00035 13.8438ZM8.00035 14C6.7833 14 5.7592 13.9527 4.92801 13.8881L13.0004 9.22758V13.6705C12.1126 13.8091 10.4461 14 8.00035 14Z" fill="black"/>
</svg>
