<svg data-testid="ICON_MARKET" width="16" height="16" viewBox="0 0 16 16">
<path d="M1 16C0.447715 16 0 15.5523 0 15C0 14.4477 0.447715 14 1 14V6.23611C0.386251 5.68679 0 4.8885 0 4V2C0 0.895431 0.895431 0 2 0H14C15.1046 0 16 0.895431 16 2V4C16 4.8885 15.6137 5.68679 15 6.23611V14C15.5523 14 16 14.4477 16 15C16 15.5523 15.5523 16 15 16H1ZM5.5 3.6589C6.16958 3.6589 6.79474 3.99397 7.16547 4.55155C7.34798 4.82606 7.65411 5 8 5C8.34589 5 8.65202 4.82606 8.83453 4.55155C9.20526 3.99397 9.83042 3.65889 10.5 3.65889C11.1696 3.65889 11.7947 3.99397 12.1655 4.55155C12.348 4.82606 12.6541 5 13 5C13.5523 5 14 4.55228 14 4V2H2V4C2 4.55228 2.44772 5 3 5C3.34589 5 3.65202 4.82606 3.83453 4.55155C4.20526 3.99397 4.83042 3.6589 5.5 3.6589ZM12.0998 6.86259C11.4385 6.65483 10.8759 6.22427 10.5 5.65889C10.1241 6.22427 9.5615 6.65483 8.90023 6.86259C8.61605 6.95187 8.31365 7 8 7C7.68635 7 7.38395 6.95187 7.09977 6.86259C6.4385 6.65484 5.87591 6.22428 5.5 5.6589C5.12409 6.22428 4.5615 6.65484 3.90023 6.86259C3.61605 6.95187 3.31365 7 3 7V14H5V10C5 9.44771 5.44772 9 6 9H10C10.5523 9 11 9.44772 11 10V14H13V7C12.6864 7 12.384 6.95187 12.0998 6.86259ZM7 14H9V11H7V14Z"/>
</svg>
