<svg width="16" height="16" viewBox="0 0 16 16">
<path d="M0 8C0 12.4183 3.58173 16 8 16C8.55229 16 9 15.5523 9 15C9 14.4477 8.55229 14 8 14C4.68628 14 2 11.3137 2 8C2 4.68628 4.68628 2 8 2C11.3137 2 14 4.68628 14 8C14 8.70129 13.8797 9.37445 13.6586 10H11.4649C11.8052 9.41168 12 8.72858 12 8C12 5.79083 10.2092 4 8 4C5.79083 4 4 5.79083 4 8C4 10.2092 5.79083 12 8 12H14.353C14.7099 12 15.0443 11.8118 15.2003 11.4907C15.7126 10.4359 16 9.2515 16 8C16 3.58173 12.4183 0 8 0C3.58173 0 0 3.58173 0 8ZM8 10C6.89545 10 6 9.10455 6 8C6 6.89545 6.89545 6 8 6C9.10455 6 10 6.89545 10 8C10 9.10455 9.10455 10 8 10Z"/>
</svg>
