<svg width="16" height="16" viewBox="0 0 16 16" fill="none" xmlns="http://www.w3.org/2000/svg">
<path d="M0.903031 1.17402C0.962623 1.05621 1.05702 0.962729 1.17662 0.906808C1.70758 0.658549 3.53669 0 8 0C12.4633 0 14.2924 0.658549 14.8234 0.906808C14.943 0.962728 15.0374 1.05621 15.097 1.17402C15.3481 1.67042 16 3.27028 16 6.5C16 9.72971 15.3481 11.3296 15.097 11.826C15.0374 11.9438 14.943 12.0373 14.8234 12.0932C14.4928 12.2477 13.6592 12.5613 12 12.776L12 15.5C12 15.9288 11.4957 16.1587 11.172 15.8774L7.8 13L7.80361 12.9996C3.48285 12.9806 1.69973 12.3378 1.17662 12.0932C1.05702 12.0373 0.962623 11.9438 0.903032 11.826C0.651941 11.3296 0 9.72972 0 6.5C0 3.27029 0.651941 1.67042 0.903031 1.17402ZM8 11C11.1127 11 12.7624 10.6649 13.5004 10.4496C13.7073 9.82408 14 8.57312 14 6.5C14 4.42688 13.7073 3.17592 13.5004 2.55038C12.7624 2.3351 11.1127 2 8 2C4.88726 2 3.23764 2.33509 2.49961 2.55038C2.29273 3.17592 2 4.42688 2 6.5C2 8.57312 2.29273 9.82408 2.49961 10.4496C3.23764 10.6649 4.88727 11 8 11Z" fill="black"/>
</svg>
