<svg data-testid="ICON_MIC-OFF" width="16" height="16" viewBox="0 0 16 16">
<path d="M8.00016 0C5.79103 0 4.00016 1.79086 4.00016 4V7C4.00016 7.67531 4.16751 8.31153 4.46299 8.86946L6.20167 7.87593C6.0726 7.6114 6.00016 7.31416 6.00016 7V4C6.00016 2.89543 6.8956 2 8.00016 2C9.10473 2 10.0002 2.89543 10.0002 4V5.70536L12.0002 4.56249V4C12.0002 1.79086 10.2093 0 8.00016 0Z"/>
<path d="M2.75016 7C2.75016 7.90104 2.97714 8.74905 3.37706 9.49L2.07415 10.2345C1.54881 9.27407 1.25016 8.17191 1.25016 7C1.25016 6.58579 1.58595 6.25 2.00016 6.25C2.41438 6.25 2.75016 6.58579 2.75016 7Z"/>
<path d="M3.99998 12.4376L1.49631 13.8682C1.01679 14.1422 0.40594 13.9756 0.131929 13.4961C-0.142082 13.0166 0.0245138 12.4058 0.504031 12.1317L14.504 4.13171C14.9835 3.8577 15.5944 4.0243 15.8684 4.50381C16.1424 4.98333 15.9758 5.59419 15.4963 5.8682L14.7502 6.29457V7C14.7502 10.3881 12.2539 13.1932 9.00016 13.6764V15C9.00016 15.5523 8.55246 16 8.00016 16C7.44787 16 7.00016 15.5523 7.00016 15V13.6764C5.88859 13.5114 4.86542 13.0753 3.99998 12.4376ZM13.248 7.15296L11.892 7.9278C11.4736 9.68954 9.88991 11 8.00016 11C7.59065 11 7.1955 10.9385 6.82348 10.8241L5.46674 11.5994C6.2179 12.014 7.08147 12.25 8.00016 12.25C10.8485 12.25 13.167 9.98171 13.248 7.15296Z"/>
</svg>
