<svg width="16" height="16" viewBox="0 0 16 16">
<path d="M6.25 1.75C6.25 2.7165 7.03351 3.5 8 3.5C8.96649 3.5 9.75 2.7165 9.75 1.75C9.75 0.783501 8.96649 4.22467e-08 8 0C7.03351 -4.22467e-08 6.25 0.783501 6.25 1.75Z"/>
<path d="M8 9.75C7.03351 9.75 6.25 8.9665 6.25 8C6.25 7.0335 7.03351 6.25 8 6.25C8.96649 6.25 9.75 7.0335 9.75 8C9.75 8.9665 8.96649 9.75 8 9.75Z"/>
<path d="M8 16C7.03351 16 6.25 15.2165 6.25 14.25C6.25 13.2835 7.03351 12.5 8 12.5C8.96649 12.5 9.75 13.2835 9.75 14.25C9.75 15.2165 8.96649 16 8 16Z"/>
</svg>
