<svg width="16" height="16" viewBox="0 0 16 16" fill="none" xmlns="http://www.w3.org/2000/svg">
<path d="M1.75 9.75C2.7165 9.75 3.5 8.96649 3.5 8C3.5 7.03351 2.7165 6.25 1.75 6.25C0.783501 6.25 0 7.03351 0 8C0 8.96649 0.783501 9.75 1.75 9.75Z" fill="black"/>
<path d="M9.75 8C9.75 8.96649 8.9665 9.75 8 9.75C7.0335 9.75 6.25 8.96649 6.25 8C6.25 7.03351 7.0335 6.25 8 6.25C8.9665 6.25 9.75 7.03351 9.75 8Z" fill="black"/>
<path d="M16 8C16 8.96649 15.2165 9.75 14.25 9.75C13.2835 9.75 12.5 8.96649 12.5 8C12.5 7.03351 13.2835 6.25 14.25 6.25C15.2165 6.25 16 7.03351 16 8Z" fill="black"/>
</svg>
