<svg width="16" height="16" viewBox="0 0 16 16">
<path d="M15.7115 6.37008C16.0999 5.96395 16.102 5.30177 15.6821 4.93151C13.6072 3.10228 10.9268 2 8.00001 2C5.0732 2 2.39274 3.10228 0.317951 4.93151C-0.101992 5.30177 -0.0999302 5.96395 0.288511 6.37008C0.675922 6.77494 1.30109 6.77114 1.7257 6.40925C3.43637 4.95116 5.62049 4.07679 8.00001 4.07679C10.3795 4.07679 12.5636 4.95116 14.2743 6.40925C14.6989 6.77114 15.3241 6.77494 15.7115 6.37008Z"/>
<path d="M12.9007 9.30793C13.2894 8.90167 13.2922 8.23645 12.8573 7.88495C11.5141 6.79953 9.82925 6.15358 8.00001 6.15358C6.17077 6.15358 4.48587 6.79953 3.1427 7.88495C2.70784 8.23645 2.7106 8.90167 3.09931 9.30793C3.48633 9.71241 4.10995 9.70544 4.55646 9.3746C5.52898 8.65399 6.71717 8.23037 8.00001 8.23037C9.28288 8.23037 10.4711 8.65399 11.4436 9.3746C11.8901 9.70544 12.5137 9.71241 12.9007 9.30793Z"/>
<path d="M8.70252 13.6959L10.1305 12.2033C10.5018 11.8152 10.5055 11.1893 10.0514 10.9026C9.45253 10.5246 8.75057 10.3072 8.00001 10.3072C7.24945 10.3072 6.54748 10.5246 5.94866 10.9026C5.49447 11.1893 5.49823 11.8152 5.86953 12.2033L7.2975 13.6959C7.68548 14.1014 8.31453 14.1014 8.70252 13.6959Z"/>
</svg>
