<svg width="16" height="13" viewBox="0 0 16 13">
<path d="M15.6821 3.93141C16.102 4.30166 16.0999 4.96384 15.7115 5.36997C15.3241 5.77483 14.6989 5.77103 14.2743 5.40914C13.6255 4.85614 12.9086 4.38711 12.1388 4.01789L9.80093 5.36765C10.9311 5.64132 11.969 6.16697 12.8573 6.88485C13.2922 7.23634 13.2894 7.90157 12.9007 8.30782C12.5137 8.7123 11.8901 8.70533 11.4436 8.3745C10.4711 7.65388 9.28288 7.23026 8.00001 7.23026C7.2438 7.23026 6.52048 7.37746 5.85484 7.64593L1.50084 10.1597C1.02255 10.4359 0.410961 10.272 0.134818 9.79369C-0.141324 9.31539 0.0225511 8.7038 0.500844 8.42766L14.4972 0.346833C14.9755 0.0706913 15.5871 0.234567 15.8633 0.71286C16.1394 1.19115 15.9755 1.80274 15.4972 2.07889L14.2103 2.82193C14.7282 3.15297 15.2202 3.52417 15.6821 3.93141Z"/>
<path d="M10.7774 1.33983L7.76416 3.07955C5.47629 3.13526 3.37969 3.99936 1.7257 5.40914C1.30109 5.77103 0.675922 5.77483 0.288511 5.36997C-0.0999302 4.96384 -0.101992 4.30166 0.31795 3.93141C2.39274 2.10217 5.0732 0.999894 8.00001 0.999894C8.95629 0.999894 9.88629 1.11757 10.7774 1.33983Z"/>
<path d="M8.70252 12.6958L10.1305 11.2032C10.5018 10.8151 10.5055 10.1892 10.0514 9.90249C9.45253 9.52453 8.75057 9.30705 8.00001 9.30705C7.24945 9.30705 6.54748 9.52453 5.94866 9.90249C5.49446 10.1892 5.49823 10.8151 5.86953 11.2032L7.2975 12.6958C7.68548 13.1013 8.31453 13.1013 8.70252 12.6958Z"/>
</svg>
