<svg data-testid="ICON_NOTIFICATIONS-ON" width="16" height="16" viewBox="0 0 16 16">
<path d="M1.04422 11.2059C0.900461 11.6731 1.11556 12.1758 1.55279 12.3944L1.55454 12.3953L1.55632 12.3962L1.55992 12.398L1.56734 12.4016L1.5831 12.409C1.59403 12.4141 1.60581 12.4193 1.61853 12.4248C1.64394 12.4357 1.67325 12.4474 1.70703 12.4598C1.7744 12.4846 1.86084 12.5128 1.97126 12.5429C2.19128 12.6029 2.51434 12.6729 2.98358 12.7399C3.92017 12.8737 5.47038 13 8 13C10.5296 13 12.0798 12.8737 13.0164 12.7399C13.4857 12.6729 13.8087 12.6029 14.0287 12.5429C14.1392 12.5128 14.2256 12.4846 14.293 12.4598C14.3267 12.4474 14.3561 12.4357 14.3815 12.4248L14.3951 12.4188L14.4169 12.409L14.4327 12.4016L14.4401 12.398L14.4437 12.3962L14.4455 12.3953L14.4472 12.3944C14.8844 12.1758 15.0995 11.6731 14.9558 11.2059C14.5437 9.86659 14.2185 8.63769 13.9202 7.51054L13.9199 7.50937C13.8615 7.28889 13.8042 7.07229 13.7475 6.85952C13.4056 5.57736 13.0779 4.40624 12.674 3.43015C12.2695 2.4525 11.7509 1.57372 10.9697 0.946696C10.1644 0.300305 9.1797 0 8 0C6.82029 0 5.83564 0.300305 5.0303 0.946696C4.24909 1.57372 3.73053 2.4525 3.32598 3.43015C2.92208 4.40624 2.59443 5.57736 2.25252 6.85952C2.19568 7.07266 2.13826 7.28964 2.07981 7.51053C1.78153 8.63769 1.45632 9.86658 1.04422 11.2059ZM11.9844 8.01335C12.2067 8.85346 12.4502 9.77393 12.7357 10.7598L12.7336 10.7601C11.9202 10.8763 10.4704 11 8 11C5.52962 11 4.07983 10.8763 3.26642 10.7601L3.26435 10.7598C3.5498 9.77393 3.79334 8.85346 4.01562 8.01335C4.07339 7.795 4.12972 7.58208 4.18499 7.37485C4.53058 6.07889 4.82792 5.03126 5.17402 4.19485C5.51947 3.36 5.87591 2.83253 6.2822 2.50643C6.66436 2.1997 7.1797 2 8 2C8.82029 2 9.33564 2.1997 9.7178 2.50643C10.1241 2.83253 10.4805 3.36 10.826 4.19485C11.1721 5.03126 11.4694 6.07889 11.815 7.37485C11.8702 7.58175 11.9264 7.79432 11.9841 8.0123L11.9844 8.01335Z"/>
<path d="M10.5347 13.9397C9.76094 13.9754 8.92017 13.9982 8.03204 13.9989L7.95299 13.9989C7.06481 13.9982 6.22397 13.975 5.45012 13.9387C5.51889 14.3141 5.67408 14.6605 5.89504 14.9579C6.34963 15.57 7.08265 15.9749 7.91444 15.9989C7.94037 15.9996 7.9664 16 7.99252 16C8.01862 16 8.04464 15.9996 8.07055 15.9989C8.90206 15.975 9.63485 15.5703 10.0895 14.9586C10.3105 14.6613 10.4658 14.315 10.5347 13.9397Z"/>
</svg>
