<svg width="10" height="10" viewBox="0 0 10 10">
    <path d="M0.365731 1.41517C0.497293 0.890487 0.890487 0.497293 1.41517 0.365731C2.10035 0.193925 3.25929 0 5 0C6.74071 0 7.89965 0.193925 8.58483 0.365731C9.10951 0.497293 9.50271 0.890486 9.63427 1.41517C9.80608 2.10035 10 3.25929 10 5C10 6.74071 9.80608 7.89965 9.63427 8.58483C9.50271 9.10951 9.10951 9.50271 8.58483 9.63427C7.89965 9.80608 6.74071 10 5 10C3.25929 10 2.10035 9.80608 1.41517 9.63427C0.890487 9.50271 0.497293 9.10951 0.365731 8.58483C0.193925 7.89965 0 6.74071 0 5C0 3.25929 0.193925 2.10035 0.365731 1.41517ZM2.46967 2.46967C2.17678 2.76256 2.17678 3.23744 2.46967 3.53033L3.93934 5L2.46967 6.46967C2.17678 6.76256 2.17678 7.23744 2.46967 7.53033C2.76256 7.82322 3.23744 7.82322 3.53033 7.53033L5 6.06066L6.46967 7.53033C6.76256 7.82322 7.23744 7.82322 7.53033 7.53033C7.82322 7.23744 7.82322 6.76256 7.53033 6.46967L6.06066 5L7.53033 3.53033C7.82322 3.23744 7.82322 2.76256 7.53033 2.46967C7.23744 2.17678 6.76256 2.17678 6.46967 2.46967L5 3.93934L3.53033 2.46967C3.23744 2.17678 2.76256 2.17678 2.46967 2.46967Z"/>
</svg>
