<svg data-testid="ICON_PERSON-DOT" width="16" height="16" viewBox="0 0 16 16">
<path d="M6.5 8C8.433 8 10 6.433 10 4.5C10 2.567 8.433 1 6.5 1C4.567 1 3 2.567 3 4.5C3 6.433 4.567 8 6.5 8ZM6.5 6C5.67157 6 5 5.32843 5 4.5C5 3.67157 5.67157 3 6.5 3C7.32843 3 8 3.67157 8 4.5C8 5.32843 7.32843 6 6.5 6Z"/>
<path d="M16 2C16 3.10457 15.1046 4 14 4C12.8954 4 12 3.10457 12 2C12 0.895431 12.8954 0 14 0C15.1046 0 16 0.895431 16 2Z"/>
<path d="M0 12.4721C0 12.1616 0.0732988 11.8522 0.294596 11.6344C0.881006 11.0573 2.50104 10 6.5 10C10.499 10 12.119 11.0573 12.7054 11.6344C12.9267 11.8522 13 12.1616 13 12.4721V15C13 15.5523 12.5523 16 12 16H1C0.447715 16 0 15.5523 0 15V12.4721ZM6.5 12C3.80074 12 2.52382 12.5241 2 12.8382V14H11V12.8382C10.4762 12.5241 9.19926 12 6.5 12Z"/>
</svg>
