<svg width="16" height="16" viewBox="0 0 16 16">
<path d="M13.5 14V12.2053C13.5 11.8879 13.4388 11.4069 13.1146 10.9533C12.676 10.3395 11.7909 9.54283 10.0972 9.02657C10.379 9.00932 10.6795 9 11 9C14.5058 9 15.6217 10.1152 15.9118 10.5212C15.9774 10.613 16 10.7249 16 10.8377V13C16 13.5523 15.5523 14 15 14H13.5Z"/>
<path d="M10 12.7771V14H2V12.7771C2.46516 12.4797 3.59221 12 6 12C8.40779 12 9.53484 12.4797 10 12.7771ZM1.71769 13.0075C1.71769 13.0075 1.72179 13.0011 1.73164 12.9902C1.72289 13.0023 1.71769 13.0075 1.71769 13.0075ZM10.2684 12.9902C10.2782 13.0011 10.2823 13.0075 10.2823 13.0075C10.2823 13.0075 10.2771 13.0023 10.2684 12.9902ZM0.105835 11.8254C0.0270957 11.9356 0 12.0698 0 12.2053V15C0 15.5523 0.447715 16 1 16H11C11.5523 16 12 15.5523 12 15V12.2053C12 12.0698 11.9729 11.9356 11.8942 11.8254C11.5461 11.3383 10.2069 10 6 10C1.7931 10 0.453934 11.3383 0.105835 11.8254Z"/>
<path d="M10 4C10 6.20914 8.20914 8 6 8C3.79086 8 2 6.20914 2 4C2 1.79086 3.79086 0 6 0C8.20914 0 10 1.79086 10 4ZM8 4C8 2.89543 7.10457 2 6 2C4.89543 2 4 2.89543 4 4C4 5.10457 4.89543 6 6 6C7.10457 6 8 5.10457 8 4Z"/>
<path d="M11 4C11 5.06473 10.6672 6.05172 10.1 6.86264C10.3841 6.95189 10.6864 7 11 7C12.6569 7 14 5.65685 14 4C14 2.34315 12.6569 1 11 1C10.6864 1 10.3841 1.04811 10.1 1.13736C10.6672 1.94828 11 2.93527 11 4Z"/>
</svg>
