<svg data-testid="ICON_PERSON-ADD" width="16" height="16" viewBox="0 0 16 16">
<path d="M10 4C10 6.20914 8.20914 8 6 8C3.79086 8 2 6.20914 2 4C2 1.79086 3.79086 0 6 0C8.20914 0 10 1.79086 10 4ZM8 4C8 2.89543 7.10457 2 6 2C4.89543 2 4 2.89543 4 4C4 5.10457 4.89543 6 6 6C7.10457 6 8 5.10457 8 4Z"/>
<path d="M13 8C13 7.44772 12.5523 7 12 7C11.4477 7 11 7.44772 11 8V10H9C8.44772 10 8 10.4477 8 11C8 11.5523 8.44772 12 9 12H11V14C11 14.5523 11.4477 15 12 15C12.5523 15 13 14.5523 13 14V12H15C15.5523 12 16 11.5523 16 11C16 10.4477 15.5523 10 15 10H13V8Z"/>
<path d="M6 10C1.96291 10 0.533518 11.3038 0.132692 11.806C0.0358484 11.9274 0 12.0808 0 12.2361V15C0 15.5523 0.447715 16 1 16H9V14H2V12.8074C2.1174 12.7321 2.27654 12.6442 2.48691 12.5546C3.10404 12.2915 4.19466 12 6 12V10Z"/>
</svg>
