<svg width="16" height="16" viewBox="0 0 16 16">
<path d="M6 8C7.10457 8 8 7.10457 8 6C8 4.89543 7.10457 4 6 4C4.89543 4 4 4.89543 4 6C4 7.10457 4.89543 8 6 8Z"/>
<path d="M15.2319 0.366489C15.6863 0.430674 16 0.821909 16 1.28078V14.7192C16 15.1781 15.6863 15.5693 15.2319 15.6335C14.1834 15.7816 11.9652 16 8 16C4.03478 16 1.81656 15.7816 0.76806 15.6335C0.313704 15.5693 0 15.1781 0 14.7192V1.28077C0 0.821908 0.313704 0.430672 0.768061 0.366488C1.81656 0.218373 4.03478 0 8 0C11.9652 0 14.1834 0.218374 15.2319 0.366489ZM2 2.23502L2 10.095L3.76887 10.2719C5.03444 10.3985 6.30343 10.067 7.34539 9.33758C9.30159 7.96824 11.7852 7.64992 14 8.44128L14 2.23502C12.8244 2.11948 10.9056 2 8 2C5.09442 2 3.17557 2.11948 2 2.23502ZM13.9167 10.5764C12.1723 9.70417 10.0901 9.85757 8.49231 10.976C7.05823 11.9799 5.31169 12.4362 3.56987 12.262L2 12.105V13.765C3.17557 13.8805 5.09442 14 8 14C10.9056 14 12.8244 13.8805 14 13.765V10.618L13.9167 10.5764Z"/>
</svg>
