<svg width="16" height="16" viewBox="0 0 16 16">
  <path d="M6.80074 6.87041L6.28884 7.99674L9.74136 7.99673L9.19926 6.8704L10.6609 1.99918L5.33907 1.9992L6.80074 6.87041ZM12.4401 9.29509C12.578 9.62909 12.3323 9.99591 11.971 9.99591H9L8.53911 15.4937C8.52133 15.7783 8.28526 16 8 16C7.71474 16 7.47867 15.7783 7.46089 15.4937L6.99751 9.99593L4.05918 9.99592C3.69785 9.99592 3.45224 9.6291 3.59006 9.29511L4.68131 6.7646L3.04348 1.30627C2.8481 0.655249 3.33573 1.40044e-05 4.01558 1.45099e-05L11.9844 0C12.6643 0 13.1519 0.655236 12.9565 1.30626L11.3187 6.76459L12.4401 9.29509Z"/>
</svg>