<svg width="16" height="16" viewBox="0 0 16 16">
<path d="M0.25 7.25C0.25 6.69773 0.697684 6.25003 1.24994 6.25L4.83576 6.24988L0.249989 1.66394L0.25116 1.66277C0.0948772 1.48632 0 1.25424 0 1C0 0.447715 0.447715 0 1 0C1.25424 0 1.48632 0.0948787 1.66277 0.25116L1.66418 0.249752L6.24994 4.8357V1.24988C6.25001 0.697649 6.69776 0.25 7.25 0.25C7.80229 0.25 8.25 0.697715 8.25 1.25L8.24994 1.26081V7.24988C8.24994 7.80216 7.80223 8.24988 7.24994 8.24988H1.2658L1.25 8.25C0.697715 8.25 0.25 7.80228 0.25 7.25Z"/>
<path d="M11 2.00001H15C15.5523 2.00001 16 2.44773 16 3.00001V15C16 15.5523 15.5523 16 15 16L3 16C2.44771 16 2 15.5523 2 15V11H4V14L14 14V4.00001H11V2.00001Z"/>
</svg>
