<svg data-testid="ICON_POP-OUT" width="16" height="16" viewBox="0 0 16 16">
<path d="M9 1C9 1.55227 9.44768 1.99997 9.99994 2L12.5858 2.00012L7.99999 6.58606L8.00116 6.58723C7.84488 6.76368 7.75 6.99576 7.75 7.25C7.75 7.80228 8.19771 8.25 8.75 8.25C9.00424 8.25 9.23632 8.15512 9.41277 7.99884L9.41418 8.00025L13.9999 3.4143V6.00012C14 6.55235 14.4478 7 15 7C15.5523 7 16 6.55228 16 6L15.9999 5.98919V1.00012C15.9999 0.447837 15.5522 0.00012209 14.9999 0.000122114L10.0158 0.000122332L10 0C9.44771 0 9 0.447715 9 1Z"/>
<path d="M6 2.00001H1C0.447715 2.00001 0 2.44773 0 3.00001V15C0 15.5523 0.447715 16 1 16L13 16C13.5523 16 14 15.5523 14 15V10H12V14L2 14V4.00001H6V2.00001Z"/>
</svg>
