<svg data-testid="ICON_PRESENCE-OOO" width="16" height="16" viewBox="0 0 16 16">
    <path d="M2.26427 0.58517C1.42478 0.795669 0.795669 1.42478 0.58517 2.26427C0.310279 3.36057 0 5.21486 0 8C0 10.7851 0.310279 12.6394 0.58517 13.7357C0.795669 14.5752 1.42478 15.2043 2.26427 15.4148C3.36057 15.6897 5.21486 16 8 16C10.7851 16 12.6394 15.6897 13.7357 15.4148C14.5752 15.2043 15.2043 14.5752 15.4148 13.7357C15.6897 12.6394 16 10.7851 16 8C16 5.21486 15.6897 3.36056 15.4148 2.26427C15.2043 1.42478 14.5752 0.795669 13.7357 0.58517C12.6394 0.310279 10.7851 0 8 0C5.21486 0 3.36056 0.310279 2.26427 0.58517ZM8 13C5.23858 13 3 10.7614 3 8C3 5.23858 5.23858 3 8 3C10.7614 3 13 5.23858 13 8C13 10.7614 10.7614 13 8 13Z"/>
</svg>