<svg width="16" height="16" viewBox="0 0 16 16" fill="none" xmlns="http://www.w3.org/2000/svg">
<path d="M2.26427 0.58517C1.42478 0.795669 0.795669 1.42478 0.58517 2.26427C0.310279 3.36057 0 5.21486 0 8C0 10.7851 0.310279 12.6394 0.58517 13.7357C0.795669 14.5752 1.42478 15.2043 2.26427 15.4148C3.36057 15.6897 5.21486 16 8 16C10.7851 16 12.6394 15.6897 13.7357 15.4148C14.5752 15.2043 15.2043 14.5752 15.4148 13.7357C15.6897 12.6394 16 10.7851 16 8C16 5.21486 15.6897 3.36056 15.4148 2.26427C15.2043 1.42478 14.5752 0.795669 13.7357 0.58517C12.6394 0.310279 10.7851 0 8 0C5.21486 0 3.36056 0.310279 2.26427 0.58517ZM3.83284 4.2123C4.40148 3.64366 4.89049 3.29311 5.21085 3.09466C5.44203 2.95147 5.72981 3.01511 5.90621 3.21992L7.40212 5.01927C7.56824 5.21216 7.60014 5.48727 7.48276 5.71481C7.40761 5.86051 7.31513 5.99113 7.22332 6.12081C7.14269 6.2347 7.06258 6.34786 6.99518 6.46984C6.96929 6.51669 6.94301 6.56425 6.94339 6.6167C6.94436 6.74943 7.34812 7.51626 7.93326 8.10141C8.5184 8.68655 9.32177 9.12684 9.45449 9.1278C9.50694 9.12819 9.55451 9.1019 9.60135 9.07602C9.71963 9.01067 9.82507 8.92247 9.9326 8.83253C10.0528 8.73201 10.1756 8.6293 10.3218 8.55386C10.5493 8.43648 10.8245 8.46838 11.0174 8.6345L12.7802 10.0939C12.985 10.2703 13.0486 10.5581 12.9054 10.7892C12.707 11.1096 12.3564 11.5986 11.7878 12.1672L11.6275 12.3275C11.0327 12.9223 10.1779 13.1755 9.42118 12.8189C8.5246 12.3964 7.22933 11.6117 5.80886 10.1912C4.3884 8.77076 3.60366 7.47549 3.18117 6.57892C2.8246 5.82223 3.07776 4.96738 3.6726 4.37254L3.83284 4.2123Z" fill="#DD342E"/>
</svg>