<svg data-testid="ICON_PRINT" width="16" height="16" viewBox="0 0 16 16">
<path d="M4 3.00006V6.10352e-05H12V3.00006H14C15.1046 3.00006 16 3.89549 16 5.00006V10.0001C16 11.1046 15.1046 12.0001 14 12.0001H13.8889L13.3333 10.0001H14V5.00006H2V10.0001H2.66667L2.11111 12.0001H2C0.895431 12.0001 0 11.1046 0 10.0001V5.00006C0 3.89549 0.895431 3.00006 2 3.00006H4ZM6 2.00006V3.00006H10V2.00006H6Z"/>
<path d="M4.75 8.25018H11.25L12.3687 14.0001H3.63128L4.75 8.25018ZM12.5 7.00006H3.5L1 16.0001H15L12.5 7.00006Z"/>
</svg>
