<svg data-testid="ICON_READ" width="16" height="16" viewBox="0 0 16 16">
    <path d="M15.669 0.256714C16.0795 0.626173 16.1128 1.25846 15.7433 1.66897L12.7433 5.66897C12.5598 5.87289 12.3005 5.99245 12.0263 5.99966C11.752 6.00688 11.4869 5.9011 11.2929 5.70712L9.29289 3.70712C8.90237 3.31659 8.90237 2.68343 9.29289 2.2929C9.68342 1.90238 10.3166 1.90238 10.7071 2.2929L11.9618 3.5476L14.2567 0.331044C14.6262 -0.0794662 15.2585 -0.112745 15.669 0.256714Z"/>
    <path d="M16 6.32673V14.7192C16 15.1781 15.6863 15.5693 15.2319 15.6335C14.1834 15.7816 11.9652 16 8 16C4.03478 16 1.81656 15.7816 0.76806 15.6335C0.313704 15.5693 0 15.1781 0 14.7192V6.00001C0 5.67705 0.155966 5.37398 0.418763 5.18627L6.75474 0.660574C6.12403 1.53323 5.88862 2.60302 6.0485 3.62284L2.72047 6.00001L8 9.7711L9.90714 8.40886C10.5617 8.81068 11.3242 9.0192 12.1052 8.99866C12.2648 8.99446 12.4231 8.98075 12.5795 8.95786L8.58124 11.8137C8.23354 12.0621 7.76646 12.0621 7.41876 11.8137L2 7.94319V13.765C3.17557 13.8805 5.09442 14 8 14C10.9056 14 12.8244 13.8805 14 13.765V8.46415C14.3603 8.25614 14.6894 7.99124 14.9732 7.6759C15.0329 7.6095 15.0897 7.54047 15.1433 7.46901L16 6.32673Z"/>
</svg>
