<svg data-testid="ICON_RECENT" width="16" height="16" viewBox="0 0 16 16">
    <path d="M16 8C16 12.4183 12.4183 16 8 16C3.58172 16 0 12.4183 0 8C0 3.58172 3.58172 0 8 0C12.4183 0 16 3.58172 16 8ZM14 8C14 4.68629 11.3137 2 8 2C4.68629 2 2 4.68629 2 8C2 11.3137 4.68629 14 8 14C11.3137 14 14 11.3137 14 8Z"/>
    <path d="M7.29259 8.7068L9.41616 10.8322C9.80652 11.2229 10.4397 11.2232 10.8304 10.8328C11.2211 10.4424 11.2213 9.80928 10.831 9.41859L9 7.58604V4.5C9 3.94772 8.55228 3.5 8 3.5C7.44772 3.5 7 3.94772 7 4.5V8C7 8.13633 7.02728 8.26629 7.07668 8.38471C7.12541 8.5018 7.19738 8.61152 7.29259 8.7068Z"/>
</svg>
