<svg width="16" height="14" viewBox="0 0 16 14">
    <path d="M9.29785 1.70711C8.90761 1.31658 8.90761 0.683418 9.29785 0.292893C9.68809 -0.0976311 10.3208 -0.0976311 10.711 0.292893L15.7073 5.29289C15.8947 5.48043 16 5.73478 16 6C16 5.99999 16 6.00001 16 6C16 6.27861 15.8861 6.53065 15.7024 6.71198L10.711 11.7071C10.3208 12.0976 9.68809 12.0976 9.29785 11.7071C8.90762 11.3166 8.90762 10.6834 9.29785 10.2929L12.5883 7.00002L6.00739 7C4.86643 7 4.10984 7.35504 3.57791 7.83585C3.02511 8.33552 2.64763 9.03374 2.39959 9.80599C2.15261 10.5749 2.05238 11.3605 2.01639 11.9656C1.99857 12.2652 1.99689 12.5134 1.9995 12.6839C2.0008 12.7689 2.00316 12.8341 2.00506 12.8761C2.00601 12.8971 2.00684 12.9123 2.00736 12.9212L2.00781 12.9287L2.0079 12.93C2.04628 13.4802 1.63221 13.9581 1.08228 13.9974C0.531808 14.0368 0.0536856 13.6221 0.0143661 13.0712L1.01109 12.9999C0.0143661 13.0712 0.0143966 13.0716 0.0143661 13.0712L0.0142356 13.0693L0.0140631 13.0669L0.0136018 13.0599L0.012281 13.0385C0.011249 13.0209 0.00994529 12.9968 0.00857683 12.9665C0.0058418 12.906 0.00283519 12.8208 0.00120847 12.7145C-0.00204021 12.5021 0.000184978 12.2034 0.021399 11.8468C0.0634726 11.1394 0.181836 10.175 0.496939 9.19396C0.810984 8.21622 1.33908 7.16446 2.23833 6.35164C3.15845 5.51995 4.40038 5 6.0074 5L12.5883 5.00002L9.29785 1.70711Z"/>
</svg>
