<svg width="17" height="16" viewBox="0 0 17 16">
    <path d="M6.70711 1.29289C7.09763 1.68342 7.09763 2.31658 6.70711 2.70711L2.41421 7L6.70711 11.2929C7.09763 11.6834 7.09763 12.3166 6.70711 12.7071C6.31658 13.0976 5.68342 13.0976 5.29289 12.7071L0.292893 7.70711C0.105356 7.51957 0 7.26522 0 7C0 6.73478 0.105356 6.48043 0.292893 6.29289L5.29289 1.29289C5.68342 0.902369 6.31658 0.902369 6.70711 1.29289Z"/>
    <path d="M7.91421 6H10C11.6082 6 12.851 6.51995 13.7718 7.35164C14.6718 8.16446 15.2003 9.21622 15.5145 10.194C15.8299 11.175 15.9483 12.1394 15.9904 12.8468C16.0117 13.2034 16.0139 13.5021 16.0106 13.7145C16.009 13.8208 16.006 13.906 16.0033 13.9665C16.0019 13.9968 16.0006 14.0209 15.9995 14.0385L15.9982 14.0599L15.9978 14.0669L15.9976 14.0693L15.9975 14.0704C15.9975 14.0708 15.9975 14.0712 15 13.9999L15.9975 14.0704C15.9582 14.6212 15.4796 15.0368 14.9288 14.9974C14.3783 14.9581 13.9638 14.4803 14.0025 13.93L14.0025 13.9287L14.003 13.9212C14.0033 13.9163 14.0037 13.9094 14.0041 13.9007C14.0045 13.8937 14.0049 13.8855 14.0053 13.8761C14.0072 13.8341 14.0096 13.7689 14.0109 13.6839C14.0135 13.5134 14.0118 13.2652 13.994 12.9656C13.9579 12.3605 13.8576 11.5749 13.6105 10.806C13.3622 10.0337 12.9845 9.33552 12.4313 8.83585C11.899 8.35504 11.1418 8 10 8H7.91421L11.2071 11.2929C11.5976 11.6834 11.5976 12.3166 11.2071 12.7071C10.8166 13.0976 10.1834 13.0976 9.79289 12.7071L4.79289 7.70711C4.60536 7.51957 4.5 7.26522 4.5 7C4.5 6.73478 4.60536 6.48043 4.79289 6.29289L9.79289 1.29289C10.1834 0.902369 10.8166 0.902369 11.2071 1.29289C11.5976 1.68342 11.5976 2.31658 11.2071 2.70711L7.91421 6Z"/>
</svg>
