<svg width="16" height="16" viewBox="0 0 16 16">
    <path d="M6.70215 2.70711C7.09238 2.31658 7.09238 1.68342 6.70215 1.29289C6.31191 0.902369 5.67922 0.902369 5.28898 1.29289L0.292677 6.29289C0.105279 6.48043 0 6.73478 0 7C0 7.00001 0 6.99999 0 7C1.52641e-06 7.27862 0.113863 7.53066 0.297559 7.71199L5.28898 12.7071C5.67922 13.0976 6.31191 13.0976 6.70215 12.7071C7.09238 12.3166 7.09238 11.6834 6.70215 11.2929L3.41171 8.00002L9.99261 8C11.1336 8 11.8902 8.35504 12.4221 8.83585C12.9749 9.33552 13.3524 10.0337 13.6004 10.806C13.8474 11.5749 13.9476 12.3605 13.9836 12.9656C14.0014 13.2652 14.0031 13.5134 14.0005 13.6839C13.9992 13.7689 13.9968 13.8341 13.9949 13.8761C13.994 13.8971 13.9932 13.9123 13.9926 13.9212L13.9922 13.9287L13.9921 13.93C13.9537 14.4802 14.3678 14.9581 14.9177 14.9974C15.4682 15.0368 15.9463 14.6221 15.9856 14.0712L14.9889 13.9999C15.9856 14.0712 15.9856 14.0716 15.9856 14.0712L15.9858 14.0693L15.9859 14.0669L15.9864 14.0599L15.9877 14.0385C15.9888 14.0209 15.9901 13.9968 15.9914 13.9665C15.9942 13.906 15.9972 13.8208 15.9988 13.7145C16.002 13.5021 15.9998 13.2034 15.9786 12.8468C15.9365 12.1394 15.8182 11.175 15.5031 10.194C15.189 9.21622 14.6609 8.16446 13.7617 7.35164C12.8415 6.51995 11.5996 6 9.9926 6L3.41167 6.00002L6.70215 2.70711Z"/>
</svg>
