<svg data-testid="ICON_SCREEN-SHARE" width="16" height="16" viewBox="0 0 16 16">
<path d="M15.7072 4.70706C16.0977 4.31654 16.0977 3.68337 15.7072 3.29285L12.7072 0.29289C12.3166 -0.0976323 11.6835 -0.0976298 11.293 0.292896C10.9024 0.683422 10.9024 1.31659 11.293 1.70711L12.5859 3H10.5C8.567 3 7 4.567 7 6.5V9.5C7 11 8.99997 11 8.99997 9.5L9 6.5C9 5.67157 9.67157 5 10.5 5L12.5858 5.00001L11.293 6.29291C10.9024 6.68344 10.9024 7.3166 11.293 7.70712C11.6835 8.09765 12.3166 8.09764 12.7072 7.70712L15.7072 4.70706Z"/>
<path d="M2 4H5V6H3V14H13V10H15V14H16V15C16 15.5523 15.5523 16 15 16H1C0.447693 16 0 15.5523 0 15V14H1V5C1 4.44769 1.44769 4 2 4Z"/>
</svg>
