<svg width="16" height="16" viewBox="0 0 16 16">
<path d="M2 0H6.5V2H2V11H14V9.5H16V11C16 12.1046 15.1046 13 14 13H9V14H11.5C11.7761 14 12 14.2239 12 14.5V15.5C12 15.7761 11.7761 16 11.5 16H4.5C4.22386 16 4 15.7761 4 15.5V14.5C4 14.2239 4.22386 14 4.5 14H7V13H2C0.895431 13 0 12.1046 0 11V2C0 0.89543 0.895431 0 2 0ZM9.99994 2C9.44768 1.99997 9 1.55227 9 1C9 0.447715 9.44771 0 10 0L14.9999 0.000122114C15.5522 0.00012209 15.9999 0.447837 15.9999 1.00012L16 6C16 6.55228 15.5523 7 15 7C14.4478 7 14 6.55235 13.9999 6.00012V3.4143L10.6642 6.75025L10.6628 6.74884C10.4863 6.90512 10.2542 7 10 7C9.44771 7 9 6.55228 9 6C9 5.74576 9.09488 5.51368 9.25116 5.33723L9.24999 5.33606L12.5858 2.00012L9.99994 2Z"/>
</svg>
