<svg width="16" height="16" viewBox="0 0 16 16" fill="none" xmlns="http://www.w3.org/2000/svg">
<path d="M5 1.00024C5 0.447959 4.55228 0.000244141 4 0.000244141H1C0.447715 0.000244141 0 0.44796 0 1.00024V5.00024C0 5.55253 0.447715 6.00024 1 6.00024C1.55228 6.00024 2 5.55253 2 5.00024V2.00024H4C4.55228 2.00024 5 1.55253 5 1.00024Z" fill="black"/>
<path d="M11 2.00024H8C7.44772 2.00024 7 1.55253 7 1.00024C7 0.447959 7.44772 0.000244141 8 0.000244141H12C12.5523 0.000244141 13 0.447959 13 1.00024V4.00024C13 4.55253 12.5523 5.00024 12 5.00024C11.4477 5.00024 11 4.55253 11 4.00024V2.00024Z" fill="black"/>
<path d="M13 9.00024C13 8.44796 12.5523 8.00024 12 8.00024C11.4477 8.00024 11 8.44796 11 9.00024V11.0002H9C8.44772 11.0002 8 11.448 8 12.0002C8 12.5525 8.44772 13.0002 9 13.0002H11V15.0002C11 15.5525 11.4477 16.0002 12 16.0002C12.5523 16.0002 13 15.5525 13 15.0002V13.0002H15C15.5523 13.0002 16 12.5525 16 12.0002C16 11.448 15.5523 11.0002 15 11.0002H13V9.00024Z" fill="black"/>
<path d="M2 9.00024C2 8.44796 1.55228 8.00024 1 8.00024C0.447715 8.00024 0 8.44796 0 9.00024V12.0002C0 12.5525 0.447715 13.0002 1 13.0002H4C4.55228 13.0002 5 12.5525 5 12.0002C5 11.448 4.55228 11.0002 4 11.0002H2V9.00024Z" fill="black"/>
</svg>
