<svg width="16" height="16" viewBox="0 0 16 16">
<path d="M4 7.75C4.55228 7.75 5 7.30228 5 6.75C5 6.19772 4.55228 5.75 4 5.75C3.44772 5.75 3 6.19772 3 6.75C3 7.30228 3.44772 7.75 4 7.75Z"/>
<path d="M7.75 6.75C7.75 7.30228 7.30228 7.75 6.75 7.75C6.19772 7.75 5.75 7.30228 5.75 6.75C5.75 6.19772 6.19772 5.75 6.75 5.75C7.30228 5.75 7.75 6.19772 7.75 6.75Z"/>
<path d="M9.5 7.75C10.0523 7.75 10.5 7.30228 10.5 6.75C10.5 6.19772 10.0523 5.75 9.5 5.75C8.94771 5.75 8.5 6.19772 8.5 6.75C8.5 7.30228 8.94771 7.75 9.5 7.75Z"/>
<path d="M10.7635 12.1777C9.64168 13.0086 8.25322 13.5 6.75 13.5C3.02208 13.5 0 10.4779 0 6.75C0 3.02208 3.02208 0 6.75 0C10.4779 0 13.5 3.02208 13.5 6.75C13.5 8.25322 13.0086 9.64168 12.1777 10.7635C13.0529 11.6722 15.7161 14.302 15.7161 14.302C15.8918 14.4822 16 14.7285 16 15C16 15.5523 15.5523 16 15 16C14.732 16 14.4885 15.8945 14.309 15.7228C14.309 15.7228 11.5725 13.0178 10.7635 12.1777ZM11.5 6.75C11.5 4.12665 9.37335 2 6.75 2C4.12665 2 2 4.12665 2 6.75C2 9.37335 4.12665 11.5 6.75 11.5C9.37335 11.5 11.5 9.37335 11.5 6.75Z"/>
</svg>
