<svg data-testid="ICON_SEARCH" width="16" height="16" viewBox="0 0 16 16">
<path d="M6.75 13.5C8.25322 13.5 9.64168 13.0086 10.7635 12.1777C11.5725 13.0178 14.309 15.7228 14.309 15.7228C14.4885 15.8945 14.732 16 15 16C15.5523 16 16 15.5523 16 15C16 14.7285 15.8918 14.4822 15.7161 14.302C15.7161 14.302 13.0529 11.6722 12.1777 10.7635C13.0086 9.64168 13.5 8.25322 13.5 6.75C13.5 3.02208 10.4779 0 6.75 0C3.02208 0 0 3.02208 0 6.75C0 10.4779 3.02208 13.5 6.75 13.5ZM6.75 11.5C4.12665 11.5 2 9.37335 2 6.75C2 4.12665 4.12665 2 6.75 2C9.37335 2 11.5 4.12665 11.5 6.75C11.5 9.37335 9.37335 11.5 6.75 11.5Z"/>
</svg>
