<svg width="16" height="16" viewBox="0 0 16 16">
<path d="M0 1C0 0.447715 0.447715 0 1 0H9C9.55229 0 10 0.447715 10 1C10 1.55228 9.55229 2 9 2H1C0.447715 2 0 1.55228 0 1Z"/>
<path d="M0 5C0 4.44772 0.447715 4 1 4H6C6.55229 4 7 4.44772 7 5C7 5.55228 6.55229 6 6 6H1C0.447715 6 0 5.55228 0 5Z"/>
<path d="M0 9C0 8.44772 0.447715 8 1 8H4C4.55229 8 5 8.44771 5 9C5 9.55228 4.55229 10 4 10H1C0.447715 10 0 9.55228 0 9Z"/>
<path d="M12.5545 13.5047C13.2836 14.462 14.1915 15.6231 14.1915 15.6231C14.3471 15.8168 14.5747 15.9531 14.8404 15.9881C15.388 16.0602 15.8903 15.6747 15.9624 15.1272C15.9978 14.858 15.9227 14.5997 15.7721 14.3981C15.7721 14.3981 14.8411 13.2101 14.0873 12.2172C14.6601 11.4622 15 10.5208 15 9.5C15 7.01472 12.9853 5 10.5 5C8.01472 5 6 7.01472 6 9.5C6 11.9853 8.01472 14 10.5 14C11.2402 14 11.9386 13.8213 12.5545 13.5047ZM13 9.5C13 10.8807 11.8807 12 10.5 12C9.11929 12 8 10.8807 8 9.5C8 8.11929 9.11929 7 10.5 7C11.8807 7 13 8.11929 13 9.5Z"/>
</svg>
