<svg width="16" height="16" viewBox="0 0 16 16">
<path d="M15.952 1.30628C16.0685 0.943872 15.9691 0.54676 15.6957 0.281931C15.4222 0.0171032 15.0222 -0.0695049 14.6637 0.0585267L0.663667 5.0585C0.286411 5.19323 0.025967 5.5401 0.00181996 5.93996C-0.022327 6.33983 0.194484 6.71551 0.552785 6.89467L6.28633 9.76147L9.63622 15.5041C9.83511 15.8451 10.2159 16.0371 10.6083 15.9944C11.0007 15.9516 11.3312 15.6821 11.452 15.3063L15.952 1.30628ZM6.80255 7.78351L3.54321 6.15382L13.4278 2.62362L10.2341 12.5597L8.25221 9.16227L9.70711 7.70737C10.0976 7.31685 10.0976 6.68368 9.70711 6.29316C9.31658 5.90264 8.68342 5.90264 8.29289 6.29316L6.80255 7.78351Z"/>
</svg>
