<svg data-testid="ICON_SHARE" width="16" height="16" viewBox="0 0 16 16">
<path d="M8.70711 0.292893C8.31658 -0.097631 7.68342 -0.0976311 7.29289 0.292893L3.29289 4.29289C2.90237 4.68342 2.90237 5.31658 3.29289 5.70711C3.68342 6.09763 4.31658 6.09763 4.70711 5.70711L7 3.41421L7 11C7 11.5523 7.44772 12 8 12C8.55229 12 9 11.5523 9 11L9 3.41421L11.2929 5.70711C11.6834 6.09763 12.3166 6.09763 12.7071 5.70711C13.0976 5.31658 13.0976 4.68342 12.7071 4.29289L8.70711 0.292893Z"/>
<path d="M15 16C15.5523 16 16 15.5523 16 15V10C16 9.44772 15.5523 9 15 9C14.4477 9 14 9.44771 14 10V14H2V10C2 9.44772 1.55228 9 1 9C0.447715 9 0 9.44771 0 10V15C0 15.5523 0.447715 16 1 16H15Z"/>
</svg>
