<svg width="16" height="16" viewBox="0 0 16 16" fill="none" xmlns="http://www.w3.org/2000/svg">
<path d="M13.6132 2.38684C16.7956 5.56929 16.7956 10.7291 13.6132 13.9115L12.5327 12.8311C15.1185 10.2453 15.1185 6.05302 12.5327 3.46728C9.94698 0.881535 5.75466 0.881535 3.16892 3.46728L2.08848 2.38684C5.27094 -0.795613 10.4307 -0.795613 13.6132 2.38684Z" fill="black"/>
<path d="M11.4523 4.54772C13.4413 6.53675 13.4413 9.76161 11.4523 11.7506L10.3718 10.6702C11.7642 9.27788 11.7642 7.02048 10.3718 5.62815C8.97952 4.23583 6.72212 4.23583 5.3298 5.62815L4.24936 4.54772C6.23839 2.55868 9.46325 2.55868 11.4523 4.54772Z" fill="black"/>
<path d="M6.83186 9.88843C7.39982 10.1597 8.10069 10.0602 8.57111 9.58976C9.16782 8.99305 9.16782 8.02559 8.57111 7.42888C7.9744 6.83218 7.00695 6.83218 6.41024 7.42888C5.93981 7.89931 5.84025 8.60018 6.11157 9.16814L5.3298 9.94991L0.856697 5.47681C-0.606174 8.17937 -0.195578 11.6275 2.08848 13.9115C4.37255 16.1956 7.82063 16.6062 10.5232 15.1433L6.05009 10.6702L6.83186 9.88843Z" fill="black"/>
</svg>
