<svg width="16" height="16" viewBox="0 0 16 16" fill="none" xmlns="http://www.w3.org/2000/svg">
<path d="M1.07585 2.03501C1.38068 2.01182 1.68887 2 2 2C8.62742 2 14 7.37258 14 14C14 14.3111 13.9882 14.6193 13.965 14.9241C13.9231 15.4748 14.3356 15.9552 14.8863 15.9971C15.437 16.039 15.9173 15.6265 15.9592 15.0759C15.9863 14.7206 16 14.3618 16 14C16 6.26801 9.73199 0 2 0C1.63819 0 1.2794 0.0137458 0.92415 0.0407705C0.373456 0.0826626 -0.0390092 0.563048 0.00288282 1.11374C0.0447748 1.66444 0.52516 2.0769 1.07585 2.03501Z" fill="black"/>
<path d="M2 6C1.69877 6 1.4018 6.0166 1.10988 6.04887C0.560938 6.10956 0.0667405 5.71374 0.00605818 5.1648C-0.0546242 4.61586 0.341188 4.12167 0.890128 4.06098C1.25488 4.02066 1.62521 4 2 4C7.52285 4 12 8.47715 12 14C12 14.3748 11.9793 14.7451 11.939 15.1099C11.8783 15.6588 11.3841 16.0546 10.8352 15.9939C10.2863 15.9333 9.89045 15.4391 9.95113 14.8901C9.9834 14.5982 10 14.3012 10 14C10 9.58172 6.41828 6 2 6Z" fill="black"/>
<path d="M1.19893 10.08C1.45693 10.0277 1.72472 10 2 10C4.20914 10 6 11.7909 6 14C6 14.2753 5.97234 14.5431 5.91997 14.8011C5.8101 15.3423 6.1598 15.8701 6.70105 15.98C7.24229 16.0899 7.77013 15.7402 7.87999 15.1989C7.9588 14.8107 8 14.4097 8 14C8 10.6863 5.31371 8 2 8C1.59034 8 1.18928 8.0412 0.801065 8.12C0.259819 8.22987 -0.089883 8.7577 0.0199843 9.29895C0.129851 9.8402 0.657683 10.1899 1.19893 10.08Z" fill="black"/>
<path d="M2 16C3.10457 16 4 15.1046 4 14C4 12.8954 3.10457 12 2 12C0.895431 12 1.5134e-09 12.8954 1.5134e-09 14C1.5134e-09 15.1046 0.895431 16 2 16Z" fill="black"/>
</svg>
