<svg width="16" height="16" viewBox="0 0 16 16" fill="none" xmlns="http://www.w3.org/2000/svg">
<path d="M10.2817 0.281742C9.90609 0.657397 9.90609 1.26645 10.2817 1.64211L11.6396 3L10.283 4.35663C9.90735 4.73229 9.90735 5.34134 10.283 5.717C10.6587 6.09265 11.2677 6.09265 11.6434 5.717L13 4.36037L14.3579 5.71826C14.7335 6.09391 15.3426 6.09391 15.7183 5.71826C16.0939 5.3426 16.0939 4.73355 15.7183 4.35789L14.3604 3L15.717 1.64338C16.0926 1.26773 16.0926 0.658671 15.717 0.283016C15.3413 -0.0926394 14.7323 -0.0926399 14.3566 0.283015L13 1.63963L11.6421 0.281741C11.2665 -0.0939139 10.6574 -0.0939138 10.2817 0.281742Z" fill="black"/>
<path d="M11.3321 8.98164C10.5348 9.05575 9.71934 8.88902 9.00381 8.48146L7.99999 9.48528L4.57911 6.0644C5.31068 6.03433 6.15408 6.01224 7.12046 6.00378C6.95599 5.34755 6.96173 4.65742 7.13768 4.00356C3.70886 4.03234 1.73798 4.22948 0.76806 4.36649C0.313704 4.43067 0 4.82191 0 5.28078V14.7192C0 15.1781 0.313704 15.5693 0.76806 15.6335C1.81656 15.7816 4.03478 16 8 16C11.9652 16 14.1834 15.7816 15.2319 15.6335C15.6863 15.5693 16 15.1781 16 14.7192V8.88207C15.3437 9.04565 14.6536 9.03906 14 8.86228V13.765C12.8244 13.8805 10.9056 14 8 14C5.09442 14 3.17557 13.8805 2 13.765V6.31372L7.29288 11.6066C7.68341 11.9971 8.31657 11.9971 8.70709 11.6066L11.3321 8.98164Z" fill="black"/>
</svg>
