<svg width="16" height="16" viewBox="0 0 16 16" fill="none" xmlns="http://www.w3.org/2000/svg">
<path d="M6 4.51576L3.22254 5.00587C3.19373 5.01095 3.1645 5.01318 3.13527 5.01449C2.8076 5.02908 2.5104 5.2067 2.39617 5.51499C2.21773 5.99653 2 6.82486 2 8C2 8.83981 2.1112 9.5025 2.23979 9.98807L4.06543 8.94485C4.02676 8.68122 4 8.36646 4 8C4 7.54546 4.04117 7.17047 4.09517 6.87392L6.86177 6.38572L10.681 3.28073C10.7543 3.81462 10.8223 4.40786 10.8765 5.05276L12.7803 3.9649C12.6907 3.14814 12.5833 2.4276 12.4772 1.82039L12.4729 1.79571C12.4413 1.61523 12.4097 1.44488 12.3789 1.28513C12.3085 0.920997 12.2416 0.611907 12.1841 0.363268C12.1038 0.0163118 11.6936 -0.113085 11.4166 0.112118L6 4.51576Z" fill="black"/>
<path d="M15.8682 4.50383C16.1423 4.98335 15.9757 5.5942 15.4961 5.86822L12.9933 7.2984C12.9977 7.5285 13 7.76243 13 7.99998C13 10.5643 12.7346 12.7058 12.4772 14.1796L12.4729 14.2043C12.4413 14.3848 12.4097 14.5551 12.3789 14.7149C12.3085 15.079 12.2416 15.3881 12.1841 15.6367C12.1038 15.9837 11.6936 16.1131 11.4166 15.8879L5.99999 11.4842L5.74649 11.4395L1.49616 13.8682C1.01664 14.1423 0.405787 13.9757 0.131776 13.4961C-0.142235 13.0166 0.0243612 12.4058 0.503878 12.1318L14.5039 4.13173C14.9834 3.85772 15.5942 4.02432 15.8682 4.50383ZM7.71983 10.3119L10.681 12.7193C10.8416 11.5502 10.9766 10.0965 10.9973 8.43905L7.71983 10.3119Z" fill="black"/>
</svg>
