<svg data-testid="ICON_SPEAKER-ON" width="16" height="16" viewBox="0 0 16 16">
<path d="M1.22254 5.00587L4 4.51576L9.41659 0.112118C9.69359 -0.113085 10.1038 0.0163118 10.1841 0.363268C10.2416 0.611907 10.3085 0.920997 10.3789 1.28513C10.4097 1.44488 10.4413 1.61523 10.4729 1.79571L10.4772 1.82039C10.7346 3.29419 11 5.43573 11 8C11 10.5643 10.7346 12.7058 10.4772 14.1796L10.4729 14.2043C10.4413 14.3848 10.4097 14.5551 10.3789 14.7149C10.3085 15.079 10.2416 15.3881 10.1841 15.6367C10.1038 15.9837 9.69359 16.1131 9.41659 15.8879L4 11.4842L1.22254 10.9941C1.19374 10.989 1.1645 10.9868 1.13527 10.9855C0.807604 10.9709 0.510407 10.7933 0.396168 10.485C0.217729 10.0035 0 9.17514 0 8C0 6.82486 0.217729 5.99653 0.396169 5.51499C0.510407 5.2067 0.807605 5.02908 1.13527 5.01449C1.1645 5.01318 1.19374 5.01095 1.22254 5.00587ZM2.09517 6.87392C2.04117 7.17047 2 7.54546 2 8C2 8.45454 2.04117 8.82953 2.09517 9.12608L4.86178 9.61428L8.68099 12.7193C8.85562 11.4481 9 9.84034 9 8C9 6.15966 8.85562 4.55193 8.68099 3.28073L4.86178 6.38572L2.09517 6.87392Z"/>
<path d="M14.2828 12.953C13.9425 13.3841 13.3076 13.3787 12.9192 12.9903C12.5268 12.5979 12.5375 11.9647 12.863 11.5152C13.5783 10.5273 14 9.31292 14 8.00002C14 6.68713 13.5783 5.47272 12.863 4.48485C12.5375 4.03536 12.5268 3.40213 12.9192 3.00971C13.3076 2.62132 13.9425 2.61594 14.2828 3.04707C15.3582 4.40933 16 6.12973 16 8.00002C16 9.87031 15.3582 11.5907 14.2828 12.953Z"/>
</svg>
