<svg width="16" height="16" viewBox="0 0 16 16" fill="none" xmlns="http://www.w3.org/2000/svg">
<path d="M7 1C7 0.447715 7.44772 0 8 0C8.55229 0 9 0.447715 9 1V5.58579L12.2426 2.34314C12.6332 1.95261 13.2663 1.95261 13.6569 2.34314C14.0474 2.73366 14.0474 3.36683 13.6569 3.75735L10.4142 7H15C15.5523 7 16 7.44771 16 8C16 8.55228 15.5523 9 15 9H10.4142L13.6569 12.2426C14.0474 12.6331 14.0474 13.2663 13.6569 13.6568C13.2663 14.0474 12.6332 14.0474 12.2426 13.6568L9 10.4142V15C9 15.5523 8.55229 16 8 16C7.44772 16 7 15.5523 7 15V10.4142L3.75737 13.6568C3.36684 14.0474 2.73368 14.0474 2.34316 13.6568C1.95263 13.2663 1.95263 12.6332 2.34316 12.2426L5.58579 9H1C0.447715 9 0 8.55229 0 8C0 7.44772 0.447715 7 1 7H5.58582L2.34315 3.75734C1.95263 3.36681 1.95263 2.73365 2.34315 2.34313C2.73368 1.9526 3.36684 1.9526 3.75737 2.34313L7 5.58576V1Z" fill="black"/>
</svg>
