<svg width="16" height="16" viewBox="0 0 16 16" fill="none" xmlns="http://www.w3.org/2000/svg">
  <path d="M14 14V7c0-3.301-2.686-6-6-6S2 3.699 2 7v2" stroke="currentColor" stroke-width="1.6"/>
  <path d="M3.42 12.655A4.78 4.78 0 0 0 5 9.103V7.505a3 3 0 1 1 6-.005v2.64a10 10 0 0 1-1.168 4.695l-.229.432" stroke="currentColor" stroke-width="1.6"/>
  <path d="M8.8 8a.8.8 0 1 0-1.6 0zM8 10.068h-.8zM7.2 8v2.068h1.6V8zm0 2.068a6.1 6.1 0 0 1-2.021 4.538l1.07 1.189A7.7 7.7 0 0 0 8.8 10.068z" fill="currentColor"/>
</svg>