<svg data-testid="ICON_SYMPHONY" width="16" height="16" viewBox="0 0 16 16">
<path d="M4 11.3127C4 11.6678 4.18891 11.9962 4.49613 12.1751L7.5 13.9245L10.5039 12.1751C10.8111 11.9962 11 11.6678 11 11.3127L11 9.50474L2 7.00879V2.53107C2 1.87532 2.33835 1.16532 3.06228 0.839698C3.83609 0.491646 5.31783 0 7.5 0C9.68218 0 11.1639 0.491646 11.9377 0.839698C12.6617 1.16532 13 1.87532 13 2.53107V5.04736L11 4.49271V2.60973C10.4131 2.36315 9.24845 1.99676 7.5 1.99676C5.75156 1.99676 4.58692 2.36315 4 2.60973V5.49109L13 8V11.3127C13 12.378 12.4333 13.3631 11.5116 13.8999L8.25581 15.796C7.78876 16.068 7.21124 16.068 6.74419 15.796L3.48839 13.8999C2.56673 13.3631 2 12.378 2 11.3127V9.4846L4 10V11.3127Z"/>
</svg>
