<svg width="14" height="14" viewBox="0 0 14 14" fill="none" xmlns="http://www.w3.org/2000/svg">
    <circle cx="7" cy="7" r="7" fill="#008EFF"/>
    <path d="M4.77273 8.93246C4.77273 9.1396 4.89294 9.33114 5.08844 9.43551L7 10.456L8.91155 9.43551C9.10705 9.33114 9.22727 9.1396 9.22727 8.93246L9.22727 7.87781L3.5 6.42184V3.80983C3.5 3.42731 3.71531 3.01314 4.176 2.8232C4.66842 2.62017 5.61134 2.33337 7 2.33337C8.38866 2.33337 9.33158 2.62017 9.824 2.8232C10.2847 3.01314 10.5 3.42731 10.5 3.80983V5.27767L9.22727 4.95412V3.85572C8.85378 3.71188 8.11265 3.49815 7 3.49815C5.88735 3.49815 5.14622 3.71188 4.77273 3.85572V5.53651L10.5 7.00004V8.93246C10.5 9.55387 10.1393 10.1285 9.55284 10.4416L7.48097 11.5477C7.18376 11.7064 6.81624 11.7064 6.51903 11.5477L4.44715 10.4416C3.86065 10.1285 3.5 9.55387 3.5 8.93246V7.86606L4.77273 8.16671V8.93246Z" fill="white"/>
</svg>
