<svg data-testid="ICON_TEAMS-MEETING" width="16" height="16" viewBox="0 0 16 16">
    <path d="M9.6 5.8C10.9256 5.8 12 4.7256 12 3.4C12 2.0744 10.9256 1 9.6 1C8.2744 1 7.2 2.0744 7.2 3.4H0.8C0.36 3.4 0 3.76 0 4.2V12.2C0 12.64 0.36 13 0.8 13H5.784C6.2544 14.3952 7.5736 15.4 9.128 15.4H9.272C10.7272 15.4 11.976 14.5192 12.5152 13.2616C12.8312 13.4424 13.2064 13.496 13.4952 13.496C14.8784 13.496 16 12.468 16 11.2V7.2888C16 6.9088 15.6632 6.6 15.2488 6.6H9.6V5.8ZM11.2009 3.39964C11.2009 4.28204 10.4833 4.99964 9.60091 4.99964V4.19964C9.60091 3.75964 9.24091 3.39964 8.80091 3.39964H8.00091C8.00091 2.51724 8.71851 1.79964 9.60091 1.79964C10.4833 1.79964 11.2009 2.51724 11.2009 3.39964ZM5.17456 11.3001H3.63616V6.64413H1.89456V5.10013H6.90576V6.64413H5.17456V11.3001ZM11.9989 11.9049C11.9973 11.9257 11.9965 11.9481 11.9973 11.9705C11.9453 13.4289 10.7421 14.6001 9.27094 14.6001H9.12694C8.02454 14.6001 7.07334 13.9433 6.64294 13.0001H8.79894C9.23894 13.0001 9.59894 12.6401 9.59894 12.2001V7.40013H11.9989V11.9049ZM15.1997 11.2001C15.1997 12.0249 14.4349 12.6961 13.4949 12.6961C13.4085 12.6961 13.0277 12.6849 12.8269 12.5049C12.8291 12.3851 12.8198 12.27 12.8114 12.1665L12.8093 12.1393L12.8061 12.1059C12.8022 12.0658 12.7985 12.0272 12.7973 11.9921C12.7989 11.9521 12.7997 11.9121 12.7997 11.8721V7.40013H15.1997V11.2001ZM15.3618 4.20004C15.3618 3.67044 14.9314 3.24004 14.4018 3.24004C13.8722 3.24004 13.4418 3.67044 13.4418 4.20004C13.4418 4.72964 13.8722 5.16004 14.4018 5.16004C14.9314 5.16004 15.3618 4.72964 15.3618 4.20004ZM14.4003 2.60003C15.2843 2.60003 16.0003 3.31683 16.0003 4.20003C16.0003 5.08323 15.2843 5.80003 14.4003 5.80003C13.5171 5.80003 12.8003 5.08323 12.8003 4.20003C12.8003 3.31683 13.5171 2.60003 14.4003 2.60003Z"/>
</svg>
