<svg width="15" height="12" viewBox="0 0 15 12">
    <path d="M3.75 0C1.67893 0 0 1.67893 0 3.75V5.25C0 5.66421 0.335786 6 0.75 6C1.16421 6 1.5 5.66421 1.5 5.25V3.75C1.5 2.50736 2.50736 1.5 3.75 1.5C4.99264 1.5 6 2.50736 6 3.75V4.73075C5.74889 4.76617 5.54839 4.80021 5.39853 4.82822C4.85558 4.92972 4.5 5.40421 4.5 5.91779V10.5822C4.5 11.0958 4.85558 11.5703 5.39853 11.6718C6.00905 11.7859 7.45973 12 9.75 12C12.0403 12 13.491 11.7859 14.1015 11.6718C14.6444 11.5703 15 11.0958 15 10.5822V5.91779C15 5.40421 14.6444 4.92972 14.1015 4.82822C13.9516 4.80021 13.7511 4.76617 13.5 4.73075L12 4.57571C11.3716 4.53101 10.6216 4.5 9.75 4.5C8.87839 4.5 8.12838 4.53101 7.5 4.57571V3.75C7.5 1.67893 5.82107 0 3.75 0ZM6 10.2529V6.24714C6.66578 6.14318 7.91567 6 9.75 6C11.5843 6 12.8342 6.14318 13.5 6.24714V10.2529C12.8342 10.3568 11.5843 10.5 9.75 10.5C7.91567 10.5 6.66578 10.3568 6 10.2529Z"/>
    <path d="M3.75 0C1.67893 0 0 1.67893 0 3.75V5.25C0 5.66421 0.335786 6 0.75 6C1.16421 6 1.5 5.66421 1.5 5.25V3.75C1.5 2.50736 2.50736 1.5 3.75 1.5C4.99264 1.5 6 2.50736 6 3.75V4.73075C5.74889 4.76617 5.54839 4.80021 5.39853 4.82822C4.85558 4.92972 4.5 5.40421 4.5 5.91779V10.5822C4.5 11.0958 4.85558 11.5703 5.39853 11.6718C6.00905 11.7859 7.45973 12 9.75 12C12.0403 12 13.491 11.7859 14.1015 11.6718C14.6444 11.5703 15 11.0958 15 10.5822V5.91779C15 5.40421 14.6444 4.92972 14.1015 4.82822C13.9516 4.80021 13.7511 4.76617 13.5 4.73075L12 4.57571C11.3716 4.53101 10.6216 4.5 9.75 4.5C8.87839 4.5 8.12838 4.53101 7.5 4.57571V3.75C7.5 1.67893 5.82107 0 3.75 0ZM6 10.2529V6.24714C6.66578 6.14318 7.91567 6 9.75 6C11.5843 6 12.8342 6.14318 13.5 6.24714V10.2529C12.8342 10.3568 11.5843 10.5 9.75 10.5C7.91567 10.5 6.66578 10.3568 6 10.2529Z"/>
</svg>