<svg width="16" height="16" viewBox="0 0 16 16" fill="none" xmlns="http://www.w3.org/2000/svg">
<path d="M16 3.5C16 4.88071 14.8807 6 13.5 6C12.1193 6 11 4.88071 11 3.5C11 2.11929 12.1193 1 13.5 1C14.8807 1 16 2.11929 16 3.5Z" fill="black"/>
<path d="M16 8.40033V14.7193C16 15.1781 15.6863 15.5694 15.2319 15.6335C14.1834 15.7817 11.9652 16 8 16C4.03478 16 1.81656 15.7817 0.76806 15.6335C0.313704 15.5694 0 15.1781 0 14.7193V5.28081C0 4.82194 0.313704 4.43071 0.76806 4.36652C1.81656 4.21841 4.03478 4.00004 8 4.00004C8.00748 4.00004 8.01495 4.00004 8.02242 4.00004C8.08691 4.71562 8.28845 5.39169 8.6006 6.00178C8.40526 6.00063 8.20509 6.00004 8 6.00004C6.65687 6.00004 5.52459 6.02557 4.57911 6.06444L7.99999 9.48532L9.86108 7.62423C10.3763 8.07921 10.9775 8.43914 11.6372 8.67656L8.70709 11.6066C8.31657 11.9972 7.68341 11.9972 7.29288 11.6066L2 6.31376V13.765C3.17557 13.8806 5.09442 14 8 14C10.9056 14 12.8244 13.8806 14 13.765V8.97761C14.7149 8.91319 15.3904 8.71197 16 8.40033Z" fill="black"/>
</svg>
