<svg width="16" height="16" viewBox="0 0 16 16" fill="none" xmlns="http://www.w3.org/2000/svg">
<path d="M2.5 3.05176e-05C1.94772 3.05176e-05 1.5 0.447746 1.5 1.00003L1.5 9.99991C1.5 10.5522 1.94772 10.9999 2.5 10.9999C3.05228 10.9999 3.5 10.5522 3.5 9.99991L3.5 1.00003C3.5 0.447746 3.05229 3.05176e-05 2.5 3.05176e-05Z" fill="black"/>
<path d="M2.5 13.4999C1.80964 13.4999 1.25 14.0596 1.25 14.7499C1.25 15.4403 1.80964 15.9999 2.5 15.9999C3.19036 15.9999 3.75 15.4403 3.75 14.7499C3.75 14.0596 3.19036 13.4999 2.5 13.4999Z" fill="black"/>
<path d="M8 3.05176e-05C7.44772 3.05176e-05 7 0.447746 7 1.00003L7 9.99991C7 10.5522 7.44772 10.9999 8 10.9999C8.55228 10.9999 9 10.5522 9 9.99991L9 1.00003C9 0.447746 8.55229 3.05176e-05 8 3.05176e-05Z" fill="black"/>
<path d="M8 13.4999C7.30964 13.4999 6.75 14.0596 6.75 14.7499C6.75 15.4403 7.30964 15.9999 8 15.9999C8.69036 15.9999 9.25 15.4403 9.25 14.7499C9.25 14.0596 8.69036 13.4999 8 13.4999Z" fill="black"/>
<path d="M12.5 1.00003C12.5 0.447746 12.9477 3.05176e-05 13.5 3.05176e-05C14.0523 3.05176e-05 14.5 0.447746 14.5 1.00003L14.5 9.99991C14.5 10.5522 14.0523 10.9999 13.5 10.9999C12.9477 10.9999 12.5 10.5522 12.5 9.99991L12.5 1.00003Z" fill="black"/>
<path d="M12.25 14.7499C12.25 14.0596 12.8096 13.4999 13.5 13.4999C14.1904 13.4999 14.75 14.0596 14.75 14.7499C14.75 15.4403 14.1904 15.9999 13.5 15.9999C12.8096 15.9999 12.25 15.4403 12.25 14.7499Z" fill="black"/>
</svg>
