<svg width="16" height="16" viewBox="0 0 16 16" fill="none" xmlns="http://www.w3.org/2000/svg">
<path d="M11.6287 3.78989C11.4939 3.0798 11.3458 2.5691 11.2273 2.34467C11.1034 2.11016 10.8512 2 10.586 2H1.41445C1.14924 2 0.897102 2.11016 0.773221 2.34466C0.478167 2.90319 0.000232363 5.2347 0.000242489 8C0.000246089 9.33862 0.0606537 10.3696 0.151773 11.1677L2.06508 9.93771C2.02541 9.29725 2.00024 8.60795 2.00024 7.99999C2.00024 6.52691 2.14798 4.57625 2.29182 4H9.70866C9.7555 4.18767 9.80276 4.52112 9.84519 4.93636L11.6287 3.78989Z" fill="black"/>
<path d="M1.01655 14H10.586C10.8512 14 11.1034 13.8898 11.2273 13.6553C11.5223 13.0968 12.0002 11.7653 12.0002 8C12.0002 7.70355 11.9948 7.41209 11.9846 7.12727L13.0002 6.47436V9.51051L15.1328 11.837C15.4416 12.1738 16.0002 11.9538 16.0002 11.4955V4C16.0002 3.99641 16.0002 3.99287 16.0001 3.98938C15.9984 3.80738 15.9469 3.62366 15.8413 3.45925C15.5426 2.99468 14.9239 2.86017 14.4593 3.15881L0.458888 12.1588C-0.00568664 12.4575 -0.140198 13.0762 0.158448 13.5408C0.384815 13.8929 0.675059 14 1.01655 14ZM4.40454 12L9.99681 8.40508C9.97386 9.81077 9.83964 11.4752 9.70866 12H4.40454Z" fill="black"/>
</svg>
