<svg data-testid="ICON_VOICE" width="16" height="16" viewBox="0 0 16 16">
<path d="M10 1C10 0.447715 10.4477 0 11 0C11.5523 0 12 0.447715 12 1V15C12 15.5523 11.5523 16 11 16C10.4477 16 10 15.5523 10 15V1Z"/>
<path d="M4 3C4 2.44772 4.44772 2 5 2C5.55228 2 6 2.44772 6 3V13C6 13.5523 5.55228 14 5 14C4.44772 14 4 13.5523 4 13V3Z"/>
<path d="M1 7C1 6.44772 1.44772 6 2 6C2.55228 6 3 6.44772 3 7V9C3 9.55228 2.55228 10 2 10C1.44772 10 1 9.55228 1 9V7Z"/>
<path d="M9 5C9 4.44772 8.55228 4 8 4C7.44772 4 7 4.44772 7 5V11C7 11.5523 7.44772 12 8 12C8.55228 12 9 11.5523 9 11V5Z"/>
<path d="M15 4C15 3.44772 14.5523 3 14 3C13.4477 3 13 3.44772 13 4V12C13 12.5523 13.4477 13 14 13C14.5523 13 15 12.5523 15 12V4Z"/>
</svg>
