<svg data-testid="ICON_ZOOM-OUT" width="16" height="16" viewBox="0 0 16 16">
<path d="M11.4142 6.00013L13.9999 3.41418V6C13.9999 6.55228 14.4477 7 15 7C15.5523 7 16 6.55228 16 6L15.9999 5.98884V1C15.9999 0.447715 15.5522 0 14.9999 0H10C9.44774 3.29844e-05 9 0.447736 9 1C9 1.55226 9.44768 1.99997 9.99994 2H12.5858L9.99999 4.58594L11.4142 6.00013Z"/>
<path d="M2 12.5856L4.58577 9.99965L5.99995 11.4138L3.41418 13.9998H6C6.55229 13.9998 7 14.4477 7 15C7 15.5523 6.55228 16 6 16L5.97862 15.9998H1C0.447715 15.9998 0 15.5521 0 14.9998V10C0.0001211 9.44782 0.44779 9 1 9C1.55221 9 1.99988 9.44759 2 9.99978V12.5856Z"/>
<path d="M8 10.4999C9.38071 10.4999 10.5 9.38059 10.5 7.99988C10.5 6.61917 9.38071 5.49988 8 5.49988C6.61928 5.49988 5.5 6.61917 5.5 7.99988C5.5 9.38059 6.61928 10.4999 8 10.4999Z"/>
</svg>
