<svg data-testid="ICON_ZOOM-MEETING" width="16" height="16" viewBox="0 0 16 16">
    <path d="M13.0216 11.2011L14.501 12.4483C14.8636 12.754 15.0449 12.9068 15.191 12.9433C15.4898 13.0178 15.7994 12.871 15.9341 12.5911C16 12.4543 16 12.2155 16 11.738V5.32654C16 4.84904 16 4.61029 15.9341 4.47346C15.7994 4.19352 15.4898 4.04683 15.191 4.12132C15.0449 4.15774 14.8636 4.3106 14.501 4.61627L13.0216 5.86351C12.7806 6.06674 12.66 6.16835 12.5632 6.28448C12.3688 6.51756 12.2387 6.79843 12.1862 7.09871C12.16 7.24836 12.16 7.40708 12.16 7.72452V9.34006C12.16 9.6575 12.16 9.81622 12.1862 9.96587C12.2387 10.2661 12.3688 10.547 12.5632 10.7801C12.66 10.8963 12.7806 10.9979 13.0216 11.2011Z"/>
    <path d="M0 5.71195C0 5.11271 0 4.81309 0.115271 4.58421C0.216666 4.38289 0.378457 4.21921 0.577456 4.11664C0.803686 4 1.09984 4 1.69215 4H7.08861C8.63968 4 9.41528 4 10.0077 4.30541C10.5288 4.57402 10.9525 5.00269 11.2181 5.52992C11.5199 6.12928 11.5199 6.91389 11.5199 8.48312V11.3527C11.5199 11.9519 11.5199 12.2515 11.4046 12.4804C11.3033 12.6817 11.1415 12.8454 10.9425 12.948C10.7163 13.0646 10.4201 13.0646 9.82781 13.0646H4.43134C2.88022 13.0646 2.10467 13.0646 1.51222 12.7592C0.99109 12.4906 0.567396 12.062 0.301867 11.5347C0 10.9354 0 10.1508 0 8.58153V5.71195Z"/>
</svg>
