<svg width="16" height="16" viewBox="0 0 16 16" fill="none" xmlns="http://www.w3.org/2000/svg">
<path d="M2 0C1.44772 0 1 0.447715 1 1V9.26756C0.402199 9.61337 0 10.2597 0 11C0 11.7403 0.402199 12.3866 1 12.7324V15C1 15.5523 1.44772 16 2 16C2.55228 16 3 15.5523 3 15V12.7324C3.5978 12.3866 4 11.7403 4 11C4 10.2597 3.5978 9.61337 3 9.26756V1C3 0.447715 2.55228 0 2 0Z" fill="black"/>
<path d="M8 0C7.44772 0 7 0.447715 7 1V3.26756C6.4022 3.61337 6 4.25972 6 5C6 5.74028 6.4022 6.38663 7 6.73244V15C7 15.5523 7.44772 16 8 16C8.55229 16 9 15.5523 9 15V6.73244C9.5978 6.38663 10 5.74028 10 5C10 4.25972 9.5978 3.61337 9 3.26756V1C9 0.447715 8.55229 0 8 0Z" fill="black"/>
<path d="M13 1C13 0.447715 13.4477 0 14 0C14.5523 0 15 0.447715 15 1V7.26756C15.5978 7.61337 16 8.25972 16 9C16 9.74028 15.5978 10.3866 15 10.7324V15C15 15.5523 14.5523 16 14 16C13.4477 16 13 15.5523 13 15V10.7324C12.4022 10.3866 12 9.74028 12 9C12 8.25972 12.4022 7.61337 13 7.26756V1Z" fill="black"/>
</svg>
