<svg width="16" height="16" viewBox="0 0 16 16" fill="none" xmlns="http://www.w3.org/2000/svg">
<path d="M8 4.5C7.44772 4.5 7 4.94772 7 5.5L7 8C7 8.55228 7.44772 9 8 9C8.55229 9 9 8.55228 9 8V5.5C9 4.94772 8.55229 4.5 8 4.5Z" fill="black"/>
<path d="M8 10C7.30964 10 6.75 10.5596 6.75 11.25C6.75 11.9404 7.30964 12.5 8 12.5C8.69036 12.5 9.25 11.9404 9.25 11.25C9.25 10.5596 8.69036 10 8 10Z" fill="black"/>
<path fill-rule="evenodd" clip-rule="evenodd" d="M4.89538 1.75885C5.71757 0.854077 6.78812 0 8 0C9.21188 0 10.2824 0.854077 11.1046 1.75885C11.9769 2.7187 12.8023 3.99599 13.5108 5.32775C14.2228 6.66605 14.8377 8.09927 15.2768 9.39633C15.7069 10.6668 16 11.8977 16 12.8C16 13.6031 15.5119 14.1856 14.9905 14.5627C14.4717 14.938 13.7968 15.2086 13.0872 15.4083C11.6555 15.811 9.80569 16 8 16C6.19431 16 4.34447 15.811 2.91278 15.4083C2.20315 15.2086 1.52833 14.938 1.00949 14.5627C0.488113 14.1856 0 13.6031 0 12.8C0 11.8977 0.29307 10.6668 0.723192 9.39633C1.1623 8.09927 1.7772 6.66605 2.48917 5.32775C3.19766 3.99599 4.02315 2.7187 4.89538 1.75885ZM2.00003 12.7879C2.01254 12.8133 2.05685 12.8768 2.19364 12.9757C2.44042 13.1543 2.85935 13.3452 3.46222 13.5148C4.65553 13.8505 6.30569 14.0308 8 14.0308C9.69431 14.0308 11.3445 13.8505 12.5378 13.5148C13.1407 13.3452 13.5596 13.1543 13.8064 12.9757C13.9432 12.8768 13.9875 12.8133 14 12.7879C13.9971 12.2116 13.7902 11.2323 13.3794 10.0191C12.9748 8.8238 12.4022 7.4878 11.7392 6.24148C11.0727 4.98863 10.3356 3.86591 9.61413 3.07192C8.84257 2.22285 8.28812 1.96923 8 1.96923C7.71188 1.96923 7.15743 2.22285 6.38587 3.07192C5.66435 3.86591 4.92734 4.98863 4.26083 6.24148C3.5978 7.4878 3.0252 8.8238 2.62056 10.0191C2.20982 11.2323 2.0029 12.2116 2.00003 12.7879ZM14.0042 12.7753C14.0042 12.7753 14.0042 12.7789 14.0009 12.7859C14.002 12.7788 14.0042 12.7753 14.0042 12.7753ZM1.99905 12.7859C1.99582 12.7789 1.99584 12.7753 1.99584 12.7753C1.99584 12.7753 1.998 12.7788 1.99905 12.7859Z" fill="black"/>
</svg>
