<svg width="16" height="16" viewBox="0 0 16 16" fill="none" xmlns="http://www.w3.org/2000/svg">
<path d="M4.81423 1.61054C4.31041 1.22742 3.68177 1 3 1C1.34315 1 0 2.34315 0 4C0 5.13748 0.633057 6.1271 1.56607 6.63576C1.84628 6.04267 2.15187 5.44119 2.48088 4.85487C2.19255 4.67941 2 4.36219 2 4C2 3.44772 2.44772 3 3 3C3.19916 3 3.38472 3.05822 3.54059 3.15857C3.94133 2.5884 4.36668 2.06274 4.81423 1.61054Z" fill="black"/>
<path d="M14.4339 6.63576C15.3669 6.1271 16 5.13748 16 4C16 2.34315 14.6569 1 13 1C12.3182 1 11.6896 1.22742 11.1858 1.61053C11.6333 2.06274 12.0587 2.5884 12.4594 3.15857C12.6153 3.05822 12.8008 3 13 3C13.5523 3 14 3.44772 14 4C14 4.36219 13.8074 4.6794 13.5191 4.85486C13.8481 5.44119 14.1537 6.04266 14.4339 6.63576Z" fill="black"/>
<path d="M4.92564 4.67796C5.5248 3.76875 6.12764 3.05732 6.70372 2.59073C7.27628 2.12699 7.70051 2 8 2C8.29949 2 8.72371 2.12699 9.29628 2.59073C9.87236 3.05732 10.4752 3.76875 11.0744 4.67796C12.272 6.49535 13.2403 8.76925 13.8661 10.4554C14.0937 11.0685 13.8893 11.6045 13.5116 11.8742C12.0267 12.934 9.99381 14 8 14C6.00619 14 3.97329 12.934 2.48843 11.8742C2.11065 11.6045 1.90628 11.0685 2.13386 10.4554C2.75968 8.76925 3.72798 6.49535 4.92564 4.67796ZM15.7412 9.75943C14.4522 6.28671 11.619 0 8 0C4.38098 0 1.5478 6.28671 0.258846 9.75943C-0.249377 11.1287 0.137741 12.6536 1.32653 13.502C2.91642 14.6368 5.37301 16 8 16C10.627 16 13.0836 14.6368 14.6735 13.502C15.8623 12.6536 16.2494 11.1287 15.7412 9.75943Z" fill="black"/>
<path d="M7 8C7 8.55228 6.55228 9 6 9C5.44772 9 5 8.55228 5 8C5 7.44772 5.44772 7 6 7C6.55228 7 7 7.44772 7 8Z" fill="black"/>
<path d="M11 8C11 8.55228 10.5523 9 10 9C9.44772 9 9 8.55228 9 8C9 7.44772 9.44772 7 10 7C10.5523 7 11 7.44772 11 8Z" fill="black"/>
<path d="M6.20711 11.7071C5.57714 11.0771 6.02331 10 6.91421 10H9.08579C9.97669 10 10.4229 11.0771 9.79289 11.7071L8.70711 12.7929C8.31658 13.1834 7.68342 13.1834 7.29289 12.7929L6.20711 11.7071Z" fill="black"/>
</svg>
