<svg width="16" height="16" viewBox="0 0 16 16" fill="none" xmlns="http://www.w3.org/2000/svg">
<path fill-rule="evenodd" clip-rule="evenodd" d="M16 8C16 12.4183 12.4183 16 8 16C3.58173 16 0 12.4183 0 8C0 3.58173 3.58173 0 8 0C12.4183 0 16 3.58173 16 8ZM12.8907 4.52347C13.5892 5.50427 14 6.70416 14 8C14 11.3137 11.3137 14 8 14C6.70418 14 5.50429 13.5892 4.52347 12.8907L12.8907 4.52347ZM11.4765 3.10925L3.10925 11.4765C2.4108 10.4957 2 9.29584 2 8C2 4.68628 4.68629 2 8 2C9.29584 2 10.4957 2.4108 11.4765 3.10925Z" fill="black"/>
</svg>
