<svg width="16" height="16" viewBox="0 0 16 16" fill="none" xmlns="http://www.w3.org/2000/svg">
<path d="M1 2.00024C1 1.44796 1.44772 1.00024 2 1.00024H10.5C12.7091 1.00024 14.5 2.79111 14.5 5.00024C14.5 6.08093 14.0714 7.06151 13.375 7.78133C14.3608 8.50986 15 9.6804 15 11.0002C15 13.2094 13.2091 15.0002 11 15.0002H2C1.44772 15.0002 1 14.5525 1 14.0002C1 13.448 1.44772 13.0002 2 13.0002H3V3.00024H2C1.44772 3.00024 1 2.55253 1 2.00024ZM7 7.00024H11V3.00024H7V7.00024ZM7 13.0002H11.5V9.00024H7V13.0002Z" fill="black"/>
</svg>
