<svg width="16" height="16" viewBox="0 0 16 16" fill="none" xmlns="http://www.w3.org/2000/svg">
<path fill-rule="evenodd" clip-rule="evenodd" d="M8 12.8698L12.4453 15.8305C13.1099 16.2732 14 15.7972 14 14.9993V1.61651C14 1.2381 13.7844 0.895125 13.4264 0.771584C12.572 0.476761 10.7632 1.52588e-05 8 1.52588e-05C5.23681 1.52588e-05 3.42803 0.476761 2.57364 0.771584C2.21562 0.895125 2 1.2381 2 1.61651V14.9993C2 15.7972 2.89014 16.2732 3.5547 15.8305L8 12.8698ZM4 13.1326L8 10.4684L12 13.1326V2.43425C11.151 2.22344 9.81861 1.99811 8 1.99811C6.18139 1.99811 4.84905 2.22343 4 2.43425V13.1326Z" fill="black"/>
</svg>
