<svg width="10" height="10" viewBox="0 0 10 10" fill="none" xmlns="http://www.w3.org/2000/svg">
<path fill-rule="evenodd" clip-rule="evenodd" d="M0.365731 1.41517C0.497293 0.890487 0.890487 0.497293 1.41517 0.365731C2.10035 0.193925 3.25929 0 5 0C6.74071 0 7.89965 0.193925 8.58483 0.365731C9.10951 0.497293 9.50271 0.890486 9.63427 1.41517C9.80608 2.10035 10 3.25929 10 5C10 6.74071 9.80608 7.89965 9.63427 8.58483C9.50271 9.10951 9.10951 9.50271 8.58483 9.63427C7.89965 9.80608 6.74071 10 5 10C3.25929 10 2.10035 9.80608 1.41517 9.63427C0.890487 9.50271 0.497293 9.10951 0.365731 8.58483C0.193925 7.89965 0 6.74071 0 5C0 3.25929 0.193925 2.10035 0.365731 1.41517ZM7.5 5.87501C7.98325 5.87501 8.375 5.48326 8.375 5.00001C8.375 4.51676 7.98325 4.12501 7.5 4.12501H2.5C2.01675 4.12501 1.625 4.51676 1.625 5.00001C1.625 5.48326 2.01675 5.87501 2.5 5.87501H7.5Z" fill="#EE3D3D"/>
</svg>
