<svg width="16" height="16" viewBox="0 0 16 16" fill="none" xmlns="http://www.w3.org/2000/svg">
<path fill-rule="evenodd" clip-rule="evenodd" d="M3 1C3 0.447715 3.44769 0 4 0C4.55231 0 5 0.447715 5 1V2.04727C5.86481 2.01804 6.86023 2 8 2C9.13977 2 10.1352 2.01804 11 2.04727V1C11 0.447715 11.4477 0 12 0C12.5523 0 13 0.447715 13 1V2.14651C14.0263 2.21609 14.7518 2.29866 15.2319 2.36649C15.6863 2.43067 16 2.82191 16 3.28078V14.7192C16 15.1781 15.6863 15.5693 15.2319 15.6335C14.1835 15.7816 11.9652 16 8 16C4.03479 16 1.81653 15.7816 0.768066 15.6335C0.313721 15.5693 0 15.1781 0 14.7192V3.28077C0 2.82191 0.313721 2.43067 0.768066 2.36649C1.24823 2.29866 1.97369 2.21609 3 2.14651V1ZM14 13.765V7H2V13.765C3.1756 13.8805 5.09442 14 8 14C10.9056 14 12.8244 13.8805 14 13.765ZM4 4C3.44769 4 3 4.44772 3 5C3 5.55228 3.44769 6 4 6C4.55231 6 5 5.55228 5 5C5 4.44772 4.55231 4 4 4ZM12 4C11.4477 4 11 4.44772 11 5C11 5.55228 11.4477 6 12 6C12.5523 6 13 5.55228 13 5C13 4.44772 12.5523 4 12 4Z" fill="black"/>
</svg>
