<svg width="16" height="16" viewBox="0 0 16 16" fill="none" xmlns="http://www.w3.org/2000/svg">
<path   d="M14.5 3C15.3284 3 16 2.32843 16 1.5C16 0.671573 15.3284 0 14.5 0C13.6716 0 13 0.671573 13 1.5C13 2.32843 13.6716 3 14.5 3ZM5.8897 10.055C3.78885 7.95412 2.66241 6.07375 2.07812 4.83382C1.95345 4.56926 1.95652 4.08867 2.46264 3.58255L2.71903 3.32615C3.09973 2.94546 3.44939 2.64027 3.75306 2.39922L5.67213 4.62746L5.61678 4.73477L5.59952 4.76611C5.583 4.79617 5.54273 4.86949 5.50128 4.9587C5.42038 5.13286 5.27235 5.4951 5.27579 5.97063C5.28008 6.56235 5.49697 7.08766 5.75953 7.52432C6.02852 7.97165 6.42107 8.45145 6.95715 8.98753C7.49322 9.52361 7.97303 9.91616 8.42036 10.1851C8.85701 10.4477 9.38233 10.6646 9.97404 10.6689C10.4496 10.6723 10.8118 10.5243 10.986 10.4434C11.0752 10.4019 11.1485 10.3617 11.1786 10.3452L11.2099 10.3279L11.3172 10.2725L13.5455 12.1916C13.3044 12.4953 12.9992 12.845 12.6185 13.2256L12.3621 13.482C11.856 13.9882 11.3754 13.9912 11.1109 13.8666C9.87093 13.2823 7.99056 12.1558 5.8897 10.055ZM1.04842 2.16833C0.0966798 3.12008 -0.308371 4.48783 0.262139 5.69853C0.938123 7.13306 2.1937 9.20548 4.46645 11.4782C6.73919 13.751 8.81162 15.0066 10.2461 15.6825C11.4568 16.253 12.8246 15.848 13.7763 14.8963L14.0327 14.6399C14.9426 13.73 15.5034 12.9476 15.8209 12.435C16.0501 12.0652 15.9482 11.6047 15.6205 11.3225L12.1215 8.30898C11.8129 8.04318 11.3727 7.99214 11.0087 8.17994L10.2906 8.55039C10.2725 8.55969 10.2545 8.56963 10.2365 8.57962L10.2364 8.57963L10.2363 8.57968C10.1614 8.62109 10.0853 8.66314 10.0014 8.66253C9.78901 8.66099 9.31663 8.5005 8.3804 7.56427C7.44418 6.62804 7.28368 6.15567 7.28215 5.94331C7.28154 5.85939 7.32359 5.78328 7.365 5.70833C7.375 5.69022 7.38497 5.67218 7.39429 5.65412L7.76473 4.93601C7.95254 4.57195 7.9015 4.13176 7.6357 3.82314L4.62219 0.324138C4.33996 -0.00356319 3.87951 -0.105388 3.50963 0.123729C2.99704 0.441246 2.21463 1.00212 1.30482 1.91194L1.04842 2.16833ZM13 4.5C13 5.32843 12.3284 6 11.5 6C10.6716 6 10 5.32843 10 4.5C10 3.67157 10.6716 3 11.5 3C12.3284 3 13 3.67157 13 4.5Z" fill="black"/>
</svg>
