<svg width="16" height="16" viewBox="0 0 16 16" fill="none" xmlns="http://www.w3.org/2000/svg">
<path fill-rule="evenodd" clip-rule="evenodd" d="M4.99694 0C3.06514 0 1.49909 1.56702 1.49909 3.5C1.49909 3.90649 1.56832 4.29675 1.69565 4.65967L0.150398 6.13867C0.0420117 6.24242 -0.000951421 6.37255 3.05176e-05 6.5C0.00199816 6.75538 0.195233 7 0.495798 7H9.49418C11.426 7 12.992 5.43298 12.992 3.5C12.992 1.56702 11.426 0 9.49418 0H4.99694ZM9.49418 2H4.99694C4.16902 2 3.49786 2.67157 3.49786 3.5C3.49786 4.32843 4.16902 5 4.99694 5H9.49418C10.3221 5 10.9933 4.32843 10.9933 3.5C10.9933 2.67157 10.3221 2 9.49418 2Z" fill="black"/>
<path fill-rule="evenodd" clip-rule="evenodd" d="M10.9933 16C12.9251 16 14.4911 14.433 14.4911 12.5C14.4911 12.0935 14.4219 11.7032 14.2946 11.3403L15.8398 9.86133C16.1654 9.54968 15.945 9 15.4944 9H6.49602C4.56422 9 2.99817 10.567 2.99817 12.5C2.99817 14.433 4.56422 16 6.49602 16H10.9933ZM6.49602 14H10.9933C11.8212 14 12.4923 13.3284 12.4923 12.5C12.4923 11.6716 11.8212 11 10.9933 11H6.49602C5.6681 11 4.99694 11.6716 4.99694 12.5C4.99694 13.3284 5.6681 14 6.49602 14Z" fill="black"/>
</svg>
