<svg width="16" height="16" viewBox="0 0 16 16" fill="none" xmlns="http://www.w3.org/2000/svg">
<path fill-rule="evenodd" clip-rule="evenodd" d="M0 4C0 1.79086 1.79086 0 4 0H12C14.2091 0 16 1.79086 16 4V12C16 14.2091 14.2091 16 12 16H4C1.79086 16 0 14.2091 0 12V4ZM12.7433 5.66897C13.1128 5.25846 13.0795 4.62617 12.669 4.25671C12.2585 3.88726 11.6262 3.92053 11.2567 4.33104L6.96181 9.5476L4.70711 7.2929C4.31658 6.90238 3.68342 6.90238 3.29289 7.2929C2.90237 7.68343 2.90237 8.31659 3.29289 8.70712L6.29289 11.7071C6.48688 11.9011 6.75204 12.0069 7.02629 11.9997C7.30053 11.9925 7.55977 11.8729 7.74329 11.669L12.7433 5.66897Z" fill="black"/>
</svg>
