<svg width="16" height="16" viewBox="0 0 16 16" fill="none" xmlns="http://www.w3.org/2000/svg">
<path fill-rule="evenodd" clip-rule="evenodd" d="M9.99954 2.04328C9.99985 2.02889 10 2.01446 10 2C10 0.895431 9.10457 0 8 0C6.89543 0 6 0.895431 6 2C6 2.01446 6.00015 2.02889 6.00046 2.04328C4.08489 2.12896 2.81731 2.32187 2.19803 2.43763C1.4741 2.57296 1 3.20561 1 3.89039V7C1 7.55228 1.44772 8 2 8H2.2L2.90995 15.0995C2.96107 15.6107 3.39124 16 3.90499 16H12.095C12.6088 16 13.0389 15.6107 13.09 15.0995L13.8 8H14C14.5523 8 15 7.55228 15 7V3.89039C15 3.20562 14.5259 2.57296 13.802 2.43763C13.1827 2.32187 11.9151 2.12896 9.99954 2.04328ZM11.79 8H4.20998L4.80997 14H11.19L11.79 8ZM13 6V4.32952C12.1123 4.19091 10.4458 4 8 4L7.99863 4C5.55361 4.00007 3.88754 4.19093 3 4.32951L3 6H13Z" fill="black"/>
</svg>
