<svg width="16" height="16" viewBox="0 0 16 16" fill="none" xmlns="http://www.w3.org/2000/svg">
<g clip-path="url(#clip0)">
<path d="M14.7071 1.70711C15.0976 1.31658 15.0976 0.683417 14.7071 0.292893C14.3166 -0.0976311 13.6834 -0.0976311 13.2929 0.292893L6 7.58579L2.70711 4.29289C2.31658 3.90237 1.68342 3.90237 1.29289 4.29289C0.902369 4.68342 0.902369 5.31658 1.29289 5.70711L5.29289 9.70711C5.68342 10.0976 6.31658 10.0976 6.70711 9.70711L14.7071 1.70711Z" fill="black"/>
<path d="M14.7071 7.70711C15.0976 7.31658 15.0976 6.68342 14.7071 6.29289C14.3166 5.90237 13.6834 5.90237 13.2929 6.29289L6 13.5858L2.70711 10.2929C2.31658 9.90237 1.68342 9.90237 1.29289 10.2929C0.902369 10.6834 0.902369 11.3166 1.29289 11.7071L5.29289 15.7071C5.68342 16.0976 6.31658 16.0976 6.70711 15.7071L14.7071 7.70711Z" fill="black"/>
</g>
<defs>
<clipPath id="clip0">
</clipPath>
</defs>
</svg>
