<svg width="16" height="16" viewBox="0 0 16 16" fill="none" xmlns="http://www.w3.org/2000/svg">
<g clip-path="url(#clip0)">
<g opacity="0.9">
<path d="M15.7593 5.15081C16.1187 4.73148 16.0701 4.10018 15.6508 3.74076C15.2315 3.38134 14.6002 3.4299 14.2407 3.84923L8.94351 10.0293L5.7071 6.79291C5.31658 6.40239 4.68341 6.40239 4.29289 6.79291C3.90236 7.18344 3.90236 7.8166 4.29289 8.20713L8.29289 12.2071C8.48985 12.4041 8.76003 12.51 9.03837 12.4993C9.31671 12.4886 9.57798 12.3623 9.75925 12.1508L15.7593 5.15081Z" fill="black"/>
<path d="M10.7593 5.15081L8.64867 7.61316L7.23028 6.19477L9.24074 3.84923C9.60017 3.4299 10.2315 3.38134 10.6508 3.74076C11.0701 4.10018 11.1187 4.73148 10.7593 5.15081Z" fill="black"/>
<path d="M1.70711 7.79291L5.3851 11.4207L4.75926 12.1508C4.57798 12.3623 4.31672 12.4886 4.03838 12.4993C3.76004 12.51 3.48985 12.4041 3.29289 12.2071L0.292893 9.20712C-0.097631 8.8166 -0.0976313 8.18344 0.292893 7.79291C0.683418 7.40239 1.31658 7.40239 1.70711 7.79291Z" fill="black"/>
</g>
</g>
<defs>
<clipPath id="clip0">
<!-- <path d="M0 0H16V16H0V0Z" fill="white"/> -->
</clipPath>
</defs>
</svg>
