<svg width="16" height="16" viewBox="0 0 16 16" fill="none" xmlns="http://www.w3.org/2000/svg">
<path fill-rule="evenodd" clip-rule="evenodd" d="M9 0C3.16667 0 2 1 2 1V3H1C0.447715 3 0 3.44772 0 4C0 4.55228 0.447715 5 1 5H2V7H1C0.447715 7 0 7.44772 0 8C0 8.55229 0.447715 9 1 9H2V11H1C0.447715 11 0 11.4477 0 12C0 12.5523 0.447715 13 1 13H2V15C2 15 3.16667 16 9 16C14.8333 16 16 15 16 15V1C16 1 14.8333 0 9 0ZM4 13V13.6063C4.86779 13.7951 6.41235 14 9 14C11.5877 14 13.1322 13.7951 14 13.6063V2.39373C13.1322 2.20494 11.5877 2 9 2C6.41235 2 4.86779 2.20494 4 2.39373V3H5C5.55228 3 6 3.44772 6 4C6 4.55228 5.55228 5 5 5H4V7H5C5.55228 7 6 7.44772 6 8C6 8.55229 5.55228 9 5 9H4V11H5C5.55228 11 6 11.4477 6 12C6 12.5523 5.55228 13 5 13H4Z" fill="black"/>
</svg>
