<svg width="16" height="16" viewBox="0 0 16 16" fill="none" xmlns="http://www.w3.org/2000/svg">
<path d="M15 16C15.5523 16 16 15.5523 16 15C16 14.4477 15.5523 14 15 14C6.2597 14 10.4241 14 1 14C0.447715 14 0 14.4477 0 15C0 15.5523 0.447715 16 1 16H15Z" fill="black"/>
<path d="M8.70711 11.7071C8.31658 12.0976 7.68342 12.0976 7.29289 11.7071L3.29289 7.70711C2.90237 7.31658 2.90237 6.68342 3.29289 6.29289C3.68342 5.90237 4.31658 5.90237 4.70711 6.29289L7 8.58579L7 1C7 0.447715 7.44772 -7.24234e-08 8 0C8.55229 7.24234e-08 9 0.447715 9 1L9 8.58579L11.2929 6.29289C11.6834 5.90237 12.3166 5.90237 12.7071 6.29289C13.0976 6.68342 13.0976 7.31658 12.7071 7.70711L8.70711 11.7071Z" fill="black"/>
</svg>
