<svg width="16" height="16" viewBox="0 0 16 16" fill="none" xmlns="http://www.w3.org/2000/svg">
<path d="M2 0C1.44772 0 1 0.447715 1 1V15C1 15.5523 1.44772 16 2 16C2.55228 16 3 15.5523 3 15V11.3828L4.64121 11.1777C5.49878 11.0705 6.36877 11.123 7.20721 11.3326L8.30772 11.6077C9.38571 11.8772 10.5043 11.9448 11.6069 11.8069L14.124 11.4923C14.6245 11.4297 15 11.0043 15 10.5V2.50002C15 2.21319 14.8768 1.94017 14.6618 1.75034C14.4468 1.56052 14.1606 1.47217 13.876 1.50774L11.3588 1.82239C10.5012 1.92959 9.63123 1.87705 8.79279 1.66744L7.69228 1.39231C6.61429 1.12282 5.49572 1.05527 4.39314 1.1931L3 1.36724V1C3 0.447715 2.55228 0 2 0ZM3 3.3828L4.64121 3.17765C5.49878 3.07046 6.36877 3.12299 7.20721 3.3326L8.30772 3.60773C9.38571 3.87722 10.5043 3.94477 11.6069 3.80695L13 3.6328V9.61724L11.3588 9.82239C10.5012 9.92959 9.63123 9.87705 8.79279 9.66744L7.69228 9.39231C6.61429 9.12282 5.49573 9.05527 4.39315 9.1931L3 9.36724V3.3828Z" fill="black"/>
</svg>
