<svg width="17" height="16" viewBox="0 0 17 16" fill="none" xmlns="http://www.w3.org/2000/svg">
<path d="M10.2929 2.70711C9.90236 2.31658 9.90236 1.68342 10.2929 1.29289C10.6834 0.902369 11.3166 0.902369 11.7071 1.29289L16.7071 6.29289C16.8946 6.48043 17 6.73478 17 7C17 7.00001 17 6.99999 17 7C17 7.27861 16.8861 7.53065 16.7022 7.71198L11.7071 12.7071C11.3166 13.0976 10.6834 13.0976 10.2929 12.7071C9.90236 12.3166 9.90236 11.6834 10.2929 11.2929L13.5858 8.00002L6.99999 8C5.85819 8 5.10104 8.35504 4.56872 8.83585C4.0155 9.33552 3.63775 10.0337 3.38952 10.806C3.14236 11.5749 3.04206 12.3605 3.00604 12.9656C2.98821 13.2652 2.98653 13.5134 2.98913 13.6839C2.99044 13.7689 2.9928 13.8341 2.9947 13.8761C2.99565 13.8971 2.99648 13.9123 2.99701 13.9212L2.99745 13.9287L2.99754 13.93C3.03596 14.4802 2.62158 14.9581 2.07124 14.9974C1.52036 15.0368 1.04188 14.6221 1.00254 14.0712L1.99999 13.9999C1.00254 14.0712 1.00257 14.0716 1.00254 14.0712L1.00241 14.0693L1.00223 14.0669L1.00177 14.0599L1.00045 14.0385C0.999416 14.0209 0.998112 13.9968 0.996742 13.9665C0.994005 13.906 0.990996 13.8208 0.989369 13.7145C0.986117 13.5021 0.988344 13.2034 1.00957 12.8468C1.05168 12.1394 1.17013 11.175 1.48547 10.194C1.79974 9.21622 2.32823 8.16446 3.22815 7.35164C4.14895 6.51995 5.3918 6 7 6L13.5858 6.00002L10.2929 2.70711Z" fill="black"/>
</svg>
