<svg width="16" height="16" viewBox="0 0 16 16" fill="none" xmlns="http://www.w3.org/2000/svg">
    <path d="M2.95774 0.385924C1.85317 0.385924 0.957743 1.28135 0.957743 2.38592L0.957743 5.39388C0.957743 6.49845 1.85317 7.39388 2.95774 7.39388L5.96319 7.39192C7.06776 7.39192 7.96319 6.49649 7.96319 5.39192V2.38397C7.96319 1.2794 7.06776 0.38397 5.96319 0.38397L2.95774 0.385924ZM5.95774 2.38592V5.38592L2.96018 5.38788L2.96018 2.38788L5.95774 2.38592Z" fill="black"/>
    <path d="M11.9553 0.384033C10.8508 0.384033 9.95532 1.27946 9.95532 2.38403L9.95288 5.39799C9.95288 6.50256 10.8483 7.39799 11.9529 7.39799L14.9553 7.39188C16.0599 7.39188 16.9553 6.49645 16.9553 5.39188L16.9577 2.37793C16.9577 1.27336 16.0623 0.37793 14.9577 0.37793L11.9553 0.384033ZM14.9523 2.37988L14.9499 5.38588L11.9553 5.39199L11.9578 2.38599L14.9523 2.37988Z" fill="black"/>
    <path d="M11.9529 9.38202C10.8483 9.38202 9.95288 10.2774 9.95288 11.382L9.95532 14.392C9.95532 15.4966 10.8508 16.392 11.9553 16.392L14.9578 16.3859C16.0624 16.3859 16.9578 15.4905 16.9578 14.3859L16.9554 11.3759C16.9554 10.2713 16.06 9.37591 14.9554 9.37591L11.9529 9.38202ZM14.95 11.3779L14.9524 14.3799L11.9578 14.386L11.9553 11.384L14.95 11.3779Z" fill="black"/>
    <path d="M2.95227 9.38592C1.8477 9.38592 0.952271 10.2814 0.952271 11.3859L0.957743 14.386C0.957743 15.4906 1.85317 16.386 2.95774 16.386L5.9741 16.3841C7.07867 16.3841 7.9741 15.4886 7.9741 14.3841L7.96863 11.384C7.96863 10.2794 7.0732 9.38397 5.96863 9.38397L2.95227 9.38592ZM5.96319 11.3859L5.96866 14.3781L2.96018 14.38L2.95471 11.3879L5.96319 11.3859Z" fill="black"/>
</svg>
