<svg width="16" height="16" viewBox="0 0 16 16" fill="none" xmlns="http://www.w3.org/2000/svg">
<path d="M5.87597 0C5.37554 0 4.95342 0.372635 4.89135 0.8692L4.5 4H1C0.447715 4 0 4.44772 0 5C0 5.55228 0.447715 6 1 6H4.25L3.75 10H1C0.447715 10 0 10.4477 0 11C0 11.5523 0.447715 12 1 12H3.5L3.13942 14.8846C3.06539 15.4769 3.52718 16 4.12403 16C4.62446 16 5.04658 15.6274 5.10865 15.1308L5.5 12H9.5L9.13942 14.8846C9.06539 15.4769 9.52718 16 10.124 16C10.6245 16 11.0466 15.6274 11.1087 15.1308L11.5 12H15C15.5523 12 16 11.5523 16 11C16 10.4477 15.5523 10 15 10H11.75L12.25 6H15C15.5523 6 16 5.55228 16 5C16 4.44772 15.5523 4 15 4H12.5L12.8606 1.11535C12.9346 0.523111 12.4728 0 11.876 0C11.3755 0 10.9534 0.372635 10.8913 0.8692L10.5 4L6.5 4L6.86058 1.11535C6.93461 0.523111 6.47282 0 5.87597 0ZM9.75 10H5.75L6.25 6H10.25L9.75 10Z" fill="black"/>
</svg>
