<svg width="16" height="16" viewBox="0 0 16 16" fill="none" xmlns="http://www.w3.org/2000/svg">
<path d="M1.00462 3.04155C1.53396 2.88401 2.09079 3.18541 2.24833 3.71475C2.98615 6.19388 5.28346 8 8 8C10.7165 8 13.0138 6.19388 13.7517 3.71475C13.9092 3.18541 14.466 2.88401 14.9954 3.04155C15.5247 3.19909 15.8261 3.75591 15.6686 4.28525C15.4116 5.14869 15.0128 5.95115 14.4991 6.66551L15.8 8.4C16.1314 8.84183 16.0418 9.46863 15.6 9.8C15.1582 10.1314 14.5314 10.0418 14.2 9.6L13.1141 8.15209C12.5305 8.63784 11.8766 9.04212 11.1699 9.34743L11.9487 11.6838C12.1234 12.2077 11.8402 12.774 11.3163 12.9487C10.7923 13.1233 10.226 12.8402 10.0513 12.3162L9.24707 9.9034C8.84074 9.96699 8.42424 10 8 10C7.57576 10 7.15927 9.96699 6.75295 9.9034L5.94868 12.3162C5.77403 12.8402 5.20771 13.1233 4.68377 12.9487C4.15983 12.774 3.87667 12.2077 4.05131 11.6838L4.83009 9.34745C4.1234 9.04213 3.46954 8.63785 2.88593 8.15209L1.8 9.6C1.46863 10.0418 0.841826 10.1314 0.399998 9.8C-0.0418299 9.46863 -0.131373 8.84183 0.199998 8.4L1.50086 6.66552C0.987196 5.95115 0.588394 5.1487 0.331421 4.28525C0.173882 3.75591 0.475286 3.19909 1.00462 3.04155Z" fill="black"/>
</svg>
