<svg width="16" height="16" viewBox="0 0 16 16" fill="none" xmlns="http://www.w3.org/2000/svg">
<path fill-rule="evenodd" clip-rule="evenodd" d="M2.26427 0.58517C1.42478 0.795669 0.795669 1.42478 0.58517 2.26427C0.310279 3.36057 0 5.21486 0 8C0 10.7851 0.310279 12.6394 0.58517 13.7357C0.795669 14.5752 1.42478 15.2043 2.26427 15.4148C3.36057 15.6897 5.21486 16 8 16C10.7851 16 12.6394 15.6897 13.7357 15.4148C14.5752 15.2043 15.2043 14.5752 15.4148 13.7357C15.6897 12.6394 16 10.7851 16 8C16 5.21486 15.6897 3.36056 15.4148 2.26427C15.2043 1.42478 14.5752 0.795669 13.7357 0.58517C12.6394 0.310279 10.7851 0 8 0C5.21486 0 3.36056 0.310279 2.26427 0.58517ZM7.13397 8.49987C7.04621 8.34785 7 8.17541 7 7.99988V3C7 2.44772 7.44772 2 8 2C8.55228 2 9 2.44772 9 3V7.73193L10.6138 10.5272C10.89 11.0055 10.7261 11.6171 10.2478 11.8932C9.76951 12.1694 9.15792 12.0055 8.88178 11.5272L7.13397 8.49987Z" fill="#F8C43F"/>
</svg>
