<svg width="10" height="10" viewBox="0 0 10 10" fill="none" xmlns="http://www.w3.org/2000/svg">
<path fill-rule="evenodd" clip-rule="evenodd" d="M0.365731 1.41517C0.497293 0.890487 0.890487 0.497293 1.41517 0.365731C2.10035 0.193925 3.25929 0 5 0C6.74071 0 7.89965 0.193925 8.58483 0.365731C9.10951 0.497293 9.50271 0.890486 9.63427 1.41517C9.80608 2.10035 10 3.25929 10 5C10 6.74071 9.80608 7.89965 9.63427 8.58483C9.50271 9.10951 9.10951 9.50271 8.58483 9.63427C7.89965 9.80608 6.74071 10 5 10C3.25929 10 2.10035 9.80608 1.41517 9.63427C0.890487 9.50271 0.497293 9.10951 0.365731 8.58483C0.193925 7.89965 0 6.74071 0 5C0 3.25929 0.193925 2.10035 0.365731 1.41517ZM5.79997 7.52498C6.08992 7.91158 6.63837 7.98993 7.02497 7.69998C7.41157 7.41003 7.48992 6.86158 7.19997 6.47498L5.87497 4.70832V2.49998C5.87497 2.01673 5.48322 1.62498 4.99997 1.62498C4.51672 1.62498 4.12497 2.01673 4.12497 2.49998V4.99998C4.12497 5.18931 4.18638 5.37352 4.29997 5.52498L5.79997 7.52498Z" fill="#F8C43F"/>
</svg>
