<svg width="16" height="16" viewBox="0 0 16 16" fill="none" xmlns="http://www.w3.org/2000/svg">
<path fill-rule="evenodd" clip-rule="evenodd" d="M3.7543 0C2.86134 0 2.07657 0.591956 1.83125 1.45056L0.0769521 7.59061C0.0258999 7.7693 0 7.95422 0 8.14005V13.4648C0 14.1268 0.35341 14.8679 1.13791 15.1585C2.07704 15.5063 4.09312 16 8 16C11.9069 16 13.923 15.5063 14.8621 15.1585C15.6466 14.8679 16 14.1268 16 13.4648V8.14005C16 7.95422 15.9741 7.7693 15.923 7.59061L14.1687 1.45056C13.9234 0.591955 13.1387 0 12.2457 0H3.7543ZM3.7543 2L12.2457 2L13.6743 7H12.273C11.7626 7 11.2872 7.25953 11.0112 7.68886L9.95405 9.33333H6.04595L4.98881 7.68887C4.71281 7.25953 4.23744 7 3.72704 7H2.32573L3.7543 2ZM2 9V13.3415C2.76219 13.5935 4.53222 14 8 14C11.4678 14 13.2378 13.5935 14 13.3415V9H12.546L11.4888 10.6445C11.2128 11.0738 10.7374 11.3333 10.227 11.3333H5.77298C5.26258 11.3333 4.78721 11.0738 4.51121 10.6445L3.45406 9H2Z" fill="black"/>
</svg>
