<svg width="16" height="16" viewBox="0 0 16 16" fill="none" xmlns="http://www.w3.org/2000/svg">
<path d="M13.1212 7.12163L13.0642 7.17865C13.3425 7.9605 13.4774 8.78193 13.4691 9.60217L14.5355 8.53584C16.4881 6.58322 16.4881 3.41739 14.5355 1.46477C12.5828 -0.487849 9.41701 -0.487852 7.46439 1.46477L5.99608 2.93308C4.04346 4.8857 4.04346 8.05152 5.99608 10.0041C6.78673 10.7948 7.77628 11.2653 8.80367 11.4156C8.73762 11.4972 8.66667 11.5762 8.5908 11.652L7.1251 13.1177C5.95353 14.2893 4.05404 14.2893 2.88246 13.1177C1.71089 11.9461 1.71089 10.0466 2.88246 8.87507L2.93687 8.82067C2.65862 8.03881 2.52366 7.21737 2.53199 6.39712L1.46825 7.46086C-0.484371 9.41348 -0.484371 12.5793 1.46825 14.5319C3.42087 16.4845 6.58669 16.4846 8.53931 14.5319L10.005 13.0662C10.5535 12.5178 10.9479 11.8736 11.1882 11.1874V11.1874C11.3731 10.6598 11.4668 10.1073 11.4694 9.55455C11.4706 9.30329 11.453 9.05195 11.4165 8.80283C11.2662 7.77542 10.7957 6.78583 10.005 5.99517C9.21437 5.20452 8.22481 4.73402 7.19742 4.58366C7.26347 4.50208 7.33442 4.42316 7.4103 4.34729L8.8786 2.87898C10.0502 1.70741 11.9497 1.70741 13.1212 2.87899C14.2928 4.05056 14.2928 5.95005 13.1212 7.12163ZM6.53227 6.53136C7.27897 6.54689 8.02098 6.83957 8.5908 7.40938C9.16062 7.97921 9.4533 8.72124 9.46882 9.46796C8.72212 9.45242 7.98011 9.15975 7.4103 8.58993C6.84047 8.0201 6.54779 7.27808 6.53227 6.53136Z" fill="black"/>
</svg>
