<svg width="16" height="16" viewBox="0 0 16 16" fill="none" xmlns="http://www.w3.org/2000/svg">
<path d="M10.5 5.99361C10.5 7.37285 9.38071 8.49094 8 8.49094C6.61929 8.49094 5.5 7.37285 5.5 5.99361C5.5 4.61437 6.61929 3.49627 8 3.49627C9.38071 3.49627 10.5 4.61437 10.5 5.99361ZM8.5 5.99361C8.5 5.71776 8.27614 5.49414 8 5.49414C7.72386 5.49414 7.5 5.71776 7.5 5.99361C7.5 6.26945 7.72386 6.49307 8 6.49307C8.27614 6.49307 8.5 6.26945 8.5 5.99361Z" fill="black"/>
<path d="M14 5.99361C14 2.68343 11.3137 0 8 0C4.68629 0 2 2.68343 2 5.99361C2 10.8586 5.95314 14.5719 7.44189 15.7978C7.76936 16.0674 8.23064 16.0674 8.55811 15.7978C10.0469 14.5719 14 10.8586 14 5.99361ZM12 5.99361C12 8.31531 10.8304 10.3636 9.48149 11.9357C8.96264 12.5404 8.44132 13.1704 8 13.5605C7.55868 13.1704 7.03736 12.5404 6.51851 11.9357C5.16961 10.3636 4 8.31531 4 5.99361C4 3.78682 5.79086 1.99787 8 1.99787C10.2091 1.99787 12 3.78682 12 5.99361Z" fill="black"/>
</svg>
