<svg width="15" height="17" viewBox="0 0 15 17" fill="none" xmlns="http://www.w3.org/2000/svg">
<path d="M7.29004 0.5C5.0809 0.5 3.29004 2.29086 3.29004 4.5V7.5C3.29004 9.70914 5.0809 11.5 7.29004 11.5C9.49918 11.5 11.29 9.70914 11.29 7.5V4.5C11.29 2.29086 9.49918 0.5 7.29004 0.5ZM9.29004 7.5C9.29004 8.60457 8.39461 9.5 7.29004 9.5C6.18547 9.5 5.29004 8.60457 5.29004 7.5V4.5C5.29004 3.39543 6.18547 2.5 7.29004 2.5C8.39461 2.5 9.29004 3.39543 9.29004 4.5V7.5Z" fill="black"/>
<path d="M1.29004 6.75C1.70425 6.75 2.04004 7.08579 2.04004 7.5C2.04004 10.3995 4.39055 12.75 7.29004 12.75C10.1895 12.75 12.54 10.3995 12.54 7.5C12.54 7.08579 12.8758 6.75 13.29 6.75C13.7043 6.75 14.04 7.08579 14.04 7.5C14.04 10.8881 11.5437 13.6932 8.29004 14.1764V15.5C8.29004 16.0523 7.84233 16.5 7.29004 16.5C6.73775 16.5 6.29004 16.0523 6.29004 15.5V14.1764C3.03633 13.6932 0.540039 10.8881 0.540039 7.5C0.540039 7.08579 0.875824 6.75 1.29004 6.75Z" fill="black"/>
</svg>
