<svg width="15" height="17" viewBox="0 0 15 17" fill="none" xmlns="http://www.w3.org/2000/svg">
<path d="M7.49707 0.5C5.28793 0.5 3.49707 2.29086 3.49707 4.5V7.5C3.49707 9.70914 5.28793 11.5 7.49707 11.5C9.70621 11.5 11.4971 9.70914 11.4971 7.5V4.5C11.4971 2.29086 9.70621 0.5 7.49707 0.5Z" fill="black"/>
<path d="M1.49707 6.75C1.91129 6.75 2.24707 7.08579 2.24707 7.5C2.24707 10.3995 4.59758 12.75 7.49707 12.75C10.3966 12.75 12.7471 10.3995 12.7471 7.5C12.7471 7.08579 13.0829 6.75 13.4971 6.75C13.9113 6.75 14.2471 7.08579 14.2471 7.5C14.2471 10.8881 11.7508 13.6932 8.49707 14.1764V15.5C8.49707 16.0523 8.04936 16.5 7.49707 16.5C6.94478 16.5 6.49707 16.0523 6.49707 15.5V14.1764C3.24336 13.6932 0.74707 10.8881 0.74707 7.5C0.74707 7.08579 1.08286 6.75 1.49707 6.75Z" fill="black"/>
</svg>
