<svg width="16" height="16" viewBox="0 0 16 16" fill="none" xmlns="http://www.w3.org/2000/svg">
<path d="M11 7C11.5523 7 12 7.44772 12 8C12 8.55228 11.5523 9 11 9C7.2224 9 8.17128 9 5 9C4.44772 9 4 8.55228 4 8C4 7.44772 4.44772 7 5 7H11Z" fill="black"/>
<path fill-rule="evenodd" clip-rule="evenodd" d="M16 8C16 12.4183 12.4183 16 8 16C3.58172 16 0 12.4183 0 8C0 3.58173 3.58172 0 8 0C12.4183 0 16 3.58173 16 8ZM14 8C14 11.3137 11.3137 14 8 14C4.68629 14 2 11.3137 2 8C2 4.68629 4.68629 2 8 2C11.3137 2 14 4.68629 14 8Z" fill="black"/>
</svg>
