<svg width="16" height="16" viewBox="0 0 16 16" fill="none" xmlns="http://www.w3.org/2000/svg">
<path fill-rule="evenodd" clip-rule="evenodd" d="M12.5 0C13.3284 0 14 0.67157 14 1.5V14.5C14 15.3284 13.3284 16 12.5 16H3.5C2.67157 16 2 15.3284 2 14.5V1.5C2 0.67157 2.67157 0 3.5 0H12.5ZM5.19428 2C5.41752 2 5.61371 2.14799 5.67504 2.36264L5.79278 2.77472C5.91543 3.20402 6.30782 3.5 6.7543 3.5H9.2457C9.69218 3.5 10.0846 3.20402 10.2072 2.77472L10.325 2.36264C10.3863 2.14799 10.5825 2 10.8057 2H12V14H4V2H5.19428Z" fill="black"/>
</svg>
