<svg width="16" height="16" viewBox="0 0 16 16" fill="none" xmlns="http://www.w3.org/2000/svg">
<path fill-rule="evenodd" clip-rule="evenodd" d="M1.04424 11.2059C0.900478 11.6731 1.11557 12.1758 1.5528 12.3944L1.55456 12.3953L1.55633 12.3962L1.55993 12.398L1.56736 12.4016L1.58312 12.409C1.59404 12.4141 1.60583 12.4193 1.61855 12.4248C1.64396 12.4357 1.67327 12.4474 1.70705 12.4598C1.77442 12.4846 1.86085 12.5128 1.97127 12.5429C2.1913 12.6029 2.51435 12.6729 2.9836 12.7399C3.92019 12.8737 5.47039 13 8.00002 13C10.5296 13 12.0798 12.8737 13.0164 12.7399C13.4857 12.6729 13.8087 12.6029 14.0288 12.5429C14.1392 12.5128 14.2256 12.4846 14.293 12.4598C14.3268 12.4474 14.3561 12.4357 14.3815 12.4248L14.3952 12.4188L14.4169 12.409L14.4327 12.4016L14.4401 12.398L14.4437 12.3962L14.4455 12.3953L14.4472 12.3944C14.8845 12.1758 15.0996 11.6731 14.9558 11.2059C14.5437 9.86659 14.2185 8.63769 13.9202 7.51054L13.9199 7.50937C13.8616 7.28889 13.8042 7.07229 13.7475 6.85952C13.4056 5.57736 13.0779 4.40624 12.674 3.43015C12.2695 2.4525 11.7509 1.57372 10.9697 0.946696C10.1644 0.300305 9.17972 0 8.00002 0C6.82031 0 5.83566 0.300305 5.03032 0.946696C4.24911 1.57372 3.73055 2.4525 3.326 3.43015C2.9221 4.40624 2.59444 5.57736 2.25253 6.85952C2.1957 7.07266 2.13828 7.28964 2.07982 7.51053C1.78154 8.63769 1.45634 9.86658 1.04424 11.2059ZM11.9844 8.01335C12.2067 8.85346 12.4502 9.77393 12.7357 10.7598L12.7336 10.7601C11.9202 10.8763 10.4704 11 8.00002 11C5.52964 11 4.07985 10.8763 3.26644 10.7601L3.26437 10.7598C3.54982 9.77393 3.79336 8.85346 4.01564 8.01335C4.07341 7.795 4.12974 7.58208 4.185 7.37485C4.53059 6.07889 4.82793 5.03126 5.17403 4.19485C5.51949 3.36 5.87593 2.83253 6.28221 2.50643C6.66437 2.1997 7.17972 2 8.00002 2C8.82031 2 9.33566 2.1997 9.71782 2.50643C10.1241 2.83253 10.4805 3.36 10.826 4.19485C11.1721 5.03126 11.4694 6.07889 11.815 7.37485C11.8702 7.58175 11.9264 7.79432 11.9841 8.0123L11.9844 8.01335Z" fill="black"/>
<path d="M10.5347 13.9397C9.76096 13.9754 8.92019 13.9982 8.03206 13.9989L7.953 13.9989C7.06483 13.9982 6.22399 13.975 5.45014 13.9387C5.51891 14.3141 5.67409 14.6605 5.89506 14.9579C6.34965 15.57 7.08266 15.9749 7.91446 15.9989C7.94039 15.9996 7.96642 16 7.99253 16C8.01864 16 8.04465 15.9996 8.07057 15.9989C8.90207 15.975 9.63486 15.5703 10.0895 14.9586C10.3105 14.6613 10.4658 14.315 10.5347 13.9397Z" fill="black"/>
</svg>
