<svg width="16" height="16" viewBox="0 0 16 16" fill="none" xmlns="http://www.w3.org/2000/svg">
<path d="M10.826 4.19485C10.9202 4.42244 11.0108 4.66567 11.0997 4.92528L12.8639 3.91717C12.8023 3.74999 12.7392 3.58753 12.6741 3.43015C12.2695 2.4525 11.7509 1.57372 10.9697 0.946696C10.1644 0.300305 9.17974 0 8.00004 0C6.82033 0 5.83568 0.300305 5.03034 0.946696C4.24913 1.57372 3.73057 2.4525 3.32602 3.43015C2.92212 4.40624 2.59446 5.57736 2.25255 6.85952C2.19571 7.07266 2.13829 7.28964 2.07984 7.51053C1.83017 8.45402 1.56163 9.46879 1.23905 10.5599L3.71409 9.14563C3.81969 8.75402 3.91965 8.37619 4.01565 8.01335C4.07343 7.795 4.12976 7.58208 4.18502 7.37485C4.53061 6.07889 4.82795 5.03126 5.17405 4.19485C5.51951 3.36 5.87595 2.83253 6.28223 2.50643C6.66439 2.1997 7.17974 2 8.00004 2C8.82033 2 9.33568 2.1997 9.71784 2.50643C10.1241 2.83253 10.4806 3.36 10.826 4.19485Z" fill="black"/>
<path fill-rule="evenodd" clip-rule="evenodd" d="M0.131807 13.4961C0.405818 13.9757 1.01667 14.1423 1.49619 13.8682L3.38058 12.7914C4.33959 12.9044 5.79909 13 8.00004 13C10.5297 13 12.0799 12.8737 13.0165 12.7399C13.4857 12.6729 13.8088 12.6029 14.0288 12.5429C14.1392 12.5128 14.2256 12.4846 14.293 12.4598C14.3268 12.4474 14.3561 12.4356 14.3815 12.4247L14.3952 12.4188L14.4169 12.409L14.4327 12.4015L14.4401 12.3979L14.4437 12.3962L14.4455 12.3953L14.4473 12.3944C14.8845 12.1758 15.0996 11.6731 14.9558 11.2059C14.5437 9.86657 14.2185 8.63767 13.9202 7.51052L13.9199 7.50935C13.8622 7.29124 13.8055 7.07695 13.7494 6.86639L15.4962 5.86822C15.9757 5.5942 16.1423 4.98335 15.8683 4.50383C15.5943 4.02432 14.9834 3.85772 14.5039 4.13173L0.503909 12.1318C0.0243917 12.4058 -0.142204 13.0166 0.131807 13.4961ZM11.9526 7.89311L6.54341 10.9841C6.98426 10.9943 7.46853 11 8.00004 11C10.4704 11 11.9202 10.8762 12.7336 10.76L12.7357 10.7597C12.4502 9.77391 12.2067 8.85344 11.9844 8.01333L11.9526 7.89311Z" fill="black"/>
<path d="M10.5348 13.9397C9.76099 13.9754 8.92022 13.9982 8.03209 13.9989H7.95303C7.06485 13.9982 6.22402 13.975 5.45017 13.9387C5.51894 14.314 5.67412 14.6604 5.89509 14.9579C6.34968 15.5699 7.08269 15.9749 7.91449 15.9988C7.94042 15.9996 7.96644 16 7.99256 16C8.01867 16 8.04468 15.9996 8.0706 15.9988C8.9021 15.9749 9.63489 15.5703 10.0895 14.9586C10.3106 14.6612 10.4658 14.315 10.5348 13.9397Z" fill="black"/>
</svg>
