<svg width="16" height="16" viewBox="0 0 16 16" fill="none" xmlns="http://www.w3.org/2000/svg">
<path d="M10.826 4.19485C10.9202 4.42244 11.0107 4.66567 11.0996 4.92528L12.8638 3.91717C12.8023 3.74999 12.7391 3.58753 12.674 3.43015C12.2695 2.4525 11.7509 1.57372 10.9697 0.946696C10.1644 0.300305 9.1797 0 8 0C6.82029 0 5.83564 0.300305 5.0303 0.946696C4.24909 1.57372 3.73053 2.4525 3.32598 3.43015C2.92208 4.40624 2.59442 5.57736 2.25251 6.85952C2.19568 7.07266 2.13826 7.28964 2.0798 7.51053C1.83013 8.45402 1.56159 9.46879 1.23901 10.5599L3.71405 9.14563C3.81965 8.75402 3.91962 8.37619 4.01562 8.01335C4.07339 7.795 4.12972 7.58208 4.18498 7.37485C4.53057 6.07889 4.82792 5.03126 5.17402 4.19485C5.51947 3.36 5.87591 2.83253 6.28219 2.50643C6.66435 2.1997 7.1797 2 8 2C8.82029 2 9.33564 2.1997 9.7178 2.50643C10.1241 2.83253 10.4805 3.36 10.826 4.19485Z" fill="black"/>
<path d="M0.131769 13.4961C0.405779 13.9757 1.01663 14.1423 1.49615 13.8682L3.38054 12.7914C4.33955 12.9044 5.79906 13 8 13C10.5296 13 12.0798 12.8737 13.0164 12.7399C13.4857 12.6729 13.8087 12.6029 14.0288 12.5429C14.1392 12.5128 14.2256 12.4846 14.293 12.4598C14.3268 12.4474 14.3561 12.4356 14.3815 12.4247L14.3951 12.4188L14.4169 12.409L14.4327 12.4015L14.4401 12.3979L14.4437 12.3962L14.4455 12.3953L14.4472 12.3944C14.8845 12.1758 15.0995 11.6731 14.9558 11.2059C14.5437 9.86657 14.2185 8.63767 13.9202 7.51052L13.9199 7.50935C13.8622 7.29124 13.8055 7.07695 13.7493 6.86639L15.4961 5.86822C15.9757 5.5942 16.1423 4.98335 15.8682 4.50383C15.5942 4.02432 14.9834 3.85772 14.5039 4.13173L0.50387 12.1318C0.0243535 12.4058 -0.142242 13.0166 0.131769 13.4961ZM11.9526 7.89311L11.9844 8.01333C12.2067 8.85344 12.4502 9.77391 12.7357 10.7597L12.7336 10.76C11.9202 10.8762 10.4704 11 8 11C7.46849 11 6.98422 10.9943 6.54337 10.9841L11.9526 7.89311Z" fill="black"/>
<path d="M10.5347 13.9397C9.76095 13.9754 8.92018 13.9982 8.03205 13.9989H7.95299C7.06482 13.9982 6.22398 13.975 5.45013 13.9387C5.5189 14.314 5.67408 14.6604 5.89505 14.9579C6.34964 15.5699 7.08265 15.9749 7.91445 15.9988C7.94038 15.9996 7.96641 16 7.99252 16C8.01863 16 8.04464 15.9996 8.07056 15.9988C8.90206 15.9749 9.63485 15.5703 10.0895 14.9586C10.3105 14.6612 10.4658 14.315 10.5347 13.9397Z" fill="black"/>
</svg>
