<svg width="16" height="16" viewBox="0 0 16 16" fill="none" xmlns="http://www.w3.org/2000/svg">
<path   d="M12 6C12 3.79086 10.2091 2 8 2C5.79086 2 4 3.79086 4 6C4 6.96995 4.43031 7.78398 5.15006 8.83482C5.2179 8.93388 5.29271 9.04111 5.37169 9.15434L5.37171 9.15437C5.56947 9.43786 5.79343 9.75892 6 10.0832V10H10V10.0832C10.2066 9.75891 10.4305 9.43784 10.6283 9.15434L10.6285 9.15404C10.7074 9.04092 10.7822 8.93379 10.8499 8.83482C11.5697 7.78398 12 6.96995 12 6ZM9.48464 11H6.51536C6.65733 11.2995 6.78727 11.6342 6.87679 12H9.12321C9.21273 11.6342 9.34267 11.2995 9.48464 11ZM8 14C7.44772 14 7 13.5523 7 13H9C9 13.5523 8.55228 14 8 14ZM8 0C11.3137 0 14 2.68629 14 6C14 7.81444 13.0592 9.16473 12.2312 10.353C11.5808 11.2865 11 12.12 11 13C11 14.6569 9.65685 16 8 16C6.34315 16 5 14.6569 5 13C5 12.12 4.41923 11.2865 3.76876 10.353C2.94084 9.16473 2 7.81444 2 6C2 2.68629 4.68629 0 8 0Z" fill="black"/>
</svg>
