<svg width="16" height="16" viewBox="0 0 16 16" fill="none" xmlns="http://www.w3.org/2000/svg">
<path fill-rule="evenodd" clip-rule="evenodd" d="M2.26427 0.58517C1.42478 0.795669 0.795669 1.42478 0.58517 2.26427C0.310279 3.36057 0 5.21486 0 8C0 10.7851 0.310279 12.6394 0.58517 13.7357C0.795669 14.5752 1.42478 15.2043 2.26427 15.4148C3.36057 15.6897 5.21486 16 8 16C10.7851 16 12.6394 15.6897 13.7357 15.4148C14.5752 15.2043 15.2043 14.5752 15.4148 13.7357C15.6897 12.6394 16 10.7851 16 8C16 5.21486 15.6897 3.36056 15.4148 2.26427C15.2043 1.42478 14.5752 0.795669 13.7357 0.58517C12.6394 0.310279 10.7851 0 8 0C5.21486 0 3.36056 0.310279 2.26427 0.58517ZM4.70712 6.12804C4.31659 5.73752 4.31744 5.1035 4.70796 4.71297C5.09849 4.32244 5.73251 4.32158 6.12303 4.7121L7.99997 6.58901L9.87691 4.7121C10.2674 4.32158 10.9015 4.32244 11.292 4.71297C11.6825 5.1035 11.6834 5.73752 11.2928 6.12804L9.41589 8.00494L11.2929 9.88195C11.6834 10.2725 11.6825 10.9065 11.292 11.2971C10.9015 11.6876 10.2674 11.6884 9.87692 11.2979L7.99997 9.421L6.12303 11.2979C5.73251 11.6884 5.09848 11.6876 4.70796 11.297C4.31744 10.9065 4.31657 10.2725 4.70708 9.88197L6.58405 8.00494L4.70712 6.12804Z" fill="#767A81"/>
</svg>
