<svg width="10" height="10" viewBox="0 0 10 10" fill="none" xmlns="http://www.w3.org/2000/svg">
<path   d="M0.365731 1.41517C0.497293 0.890487 0.890487 0.497293 1.41517 0.365731C2.10035 0.193925 3.25929 0 5 0C6.74071 0 7.89965 0.193925 8.58483 0.365731C9.10951 0.497293 9.50271 0.890486 9.63427 1.41517C9.80608 2.10035 10 3.25929 10 5C10 6.74071 9.80608 7.89965 9.63427 8.58483C9.50271 9.10951 9.10951 9.50271 8.58483 9.63427C7.89965 9.80608 6.74071 10 5 10C3.25929 10 2.10035 9.80608 1.41517 9.63427C0.890487 9.50271 0.497293 9.10951 0.365731 8.58483C0.193925 7.89965 0 6.74071 0 5C0 3.25929 0.193925 2.10035 0.365731 1.41517ZM8.11872 4.11873C8.46043 3.77702 8.46043 3.223 8.11872 2.88129C7.77701 2.53958 7.22299 2.53958 6.88128 2.88129L4.50003 5.26257L3.61871 4.38128C3.27699 4.03958 2.72297 4.03959 2.38127 4.3813C2.03957 4.72302 2.03958 5.27704 2.38129 5.61874L3.88134 7.11873C4.22305 7.46042 4.77706 7.46042 5.11877 7.11871L8.11872 4.11873Z" fill="#5AD269"/>
</svg>
