<svg width="16" height="16" viewBox="0 0 16 16" fill="none" xmlns="http://www.w3.org/2000/svg">
<path fill-rule="evenodd" clip-rule="evenodd" d="M2.26427 0.58517C1.42478 0.795669 0.795669 1.42478 0.58517 2.26427C0.310279 3.36057 0 5.21486 0 8C0 10.7851 0.310279 12.6394 0.58517 13.7357C0.795669 14.5752 1.42478 15.2043 2.26427 15.4148C3.36057 15.6897 5.21486 16 8 16C10.7851 16 12.6394 15.6897 13.7357 15.4148C14.5752 15.2043 15.2043 14.5752 15.4148 13.7357C15.6897 12.6394 16 10.7851 16 8C16 5.21486 15.6897 3.36056 15.4148 2.26427C15.2043 1.42478 14.5752 0.795669 13.7357 0.58517C12.6394 0.310279 10.7851 0 8 0C5.21486 0 3.36056 0.310279 2.26427 0.58517ZM5.62303 6.7121C5.23251 6.32158 4.59848 6.32245 4.20796 6.71298C3.81744 7.1035 3.81657 7.73752 4.20709 8.12804L6.79286 10.7139C7.18338 11.1044 7.81656 11.1044 8.20708 10.7139L12.7928 6.12804C13.1834 5.73752 13.1825 5.1035 12.792 4.71298C12.4015 4.32245 11.7674 4.32159 11.3769 4.71211L7.49997 8.58901L5.62303 6.7121Z" fill="#5AD269"/>
</svg>
