<svg width="17" height="17" viewBox="0 0 17 17" fill="none" xmlns="http://www.w3.org/2000/svg">
<path d="M13.7471 14.1221V12.3273C13.7471 12.01 13.6858 11.529 13.3617 11.0753C12.9231 10.4616 12.038 9.6649 10.3443 9.14864C10.6261 9.13139 10.9266 9.12207 11.2471 9.12207C14.7528 9.12207 15.8688 10.2373 16.1589 10.6432C16.2245 10.735 16.2471 10.8469 16.2471 10.9598V13.1221C16.2471 13.6744 15.7994 14.1221 15.2471 14.1221H13.7471Z" fill="black"/>
<path d="M10.2471 12.8991V14.1221H2.24707V12.8991C2.71223 12.6018 3.83928 12.1221 6.24707 12.1221C8.65486 12.1221 9.78191 12.6018 10.2471 12.8991ZM1.96476 13.1295C1.96476 13.1295 1.96886 13.1232 1.97871 13.1122C1.96996 13.1244 1.96476 13.1295 1.96476 13.1295ZM10.5154 13.1122C10.5253 13.1232 10.5294 13.1295 10.5294 13.1295C10.5294 13.1295 10.5242 13.1244 10.5154 13.1122ZM0.352906 11.9475C0.274166 12.0576 0.24707 12.1919 0.24707 12.3273V15.1221C0.24707 15.6744 0.694785 16.1221 1.24707 16.1221H11.2471C11.7994 16.1221 12.2471 15.6744 12.2471 15.1221V12.3273C12.2471 12.1919 12.22 12.0576 12.1412 11.9475C11.7931 11.4603 10.454 10.1221 6.24707 10.1221C2.04017 10.1221 0.701004 11.4603 0.352906 11.9475Z" fill="black"/>
<path d="M10.2471 4.12207C10.2471 6.33121 8.45621 8.12207 6.24707 8.12207C4.03793 8.12207 2.24707 6.33121 2.24707 4.12207C2.24707 1.91293 4.03793 0.12207 6.24707 0.12207C8.45621 0.12207 10.2471 1.91293 10.2471 4.12207ZM8.24707 4.12207C8.24707 3.0175 7.35164 2.12207 6.24707 2.12207C5.1425 2.12207 4.24707 3.0175 4.24707 4.12207C4.24707 5.22664 5.1425 6.12207 6.24707 6.12207C7.35164 6.12207 8.24707 5.22664 8.24707 4.12207Z" fill="black"/>
<path d="M11.2471 4.12207C11.2471 5.1868 10.9143 6.17379 10.347 6.98471C10.6312 7.07396 10.9335 7.12207 11.2471 7.12207C12.9039 7.12207 14.2471 5.77892 14.2471 4.12207C14.2471 2.46522 12.9039 1.12207 11.2471 1.12207C10.9335 1.12207 10.6312 1.17018 10.347 1.25943C10.9143 2.07035 11.2471 3.05734 11.2471 4.12207Z" fill="black"/>
</svg>
