<svg width="16" height="16" viewBox="0 0 16 16" fill="none" xmlns="http://www.w3.org/2000/svg">
<path d="M12 4C12 1.79086 10.2091 0 8 0C5.79086 0 4 1.79086 4 4C4 6.20914 5.79086 8 8 8C10.2091 8 12 6.20914 12 4ZM10 4C10 5.10457 9.10457 6 8 6C6.89543 6 6 5.10457 6 4C6 2.89543 6.89543 2 8 2C9.10457 2 10 2.89543 10 4Z" fill="black"/>
<path d="M1 12.2361C1 12.0808 1.03639 11.9272 1.13721 11.8091C1.56415 11.3092 3.1456 10 8 10C12.8544 10 14.4359 11.3092 14.8628 11.8091C14.9636 11.9272 15 12.0808 15 12.2361V15C15 15.5523 14.5523 16 14 16H2C1.44772 16 1 15.5523 1 15V12.2361ZM8 12C4.98918 12 3.57922 12.5385 3 12.8668V14H13V12.8668C12.4208 12.5385 11.0108 12 8 12Z" fill="black"/>
</svg>
