<svg width="15" height="16" viewBox="0 0 15 16" fill="none" xmlns="http://www.w3.org/2000/svg">
<path d="M3.33238 7.67575L5.67972 6.32051L4.38305 1.9992L9.70491 1.99918L8.97999 4.41509L11.5051 2.95721L12.0005 1.30626C12.1959 0.655236 11.7082 -1.36057e-07 11.0284 0L3.05957 1.41901e-05C2.37972 1.40232e-05 1.89208 0.655249 2.08746 1.30627L3.7253 6.7646L3.33238 7.67575Z" fill="black"/>
<path d="M0.501965 10.4674C0.0236721 10.7436 -0.140203 11.3552 0.135939 11.8335C0.412082 12.3118 1.02367 12.4756 1.50196 12.1995L5.31003 10.0009L6.00405 10.0025L6.46073 15.4937C6.47851 15.7783 6.71459 16 6.99984 16C7.2851 16 7.52118 15.7783 7.53896 15.4937L8.00654 10.0025L11.015 9.99591C11.3763 9.99591 11.6219 9.62909 11.4841 9.29509L10.4753 7.01873L13.5064 5.26871C13.9847 4.99256 14.1486 4.38097 13.8725 3.90268C13.5963 3.42439 12.9847 3.26051 12.5064 3.53665L0.501965 10.4674ZM8.78136 7.99673L8.78534 7.99673L8.78447 7.99493L8.78136 7.99673Z" fill="black"/>
</svg>
