<svg width="16" height="16" viewBox="0 0 16 16" fill="none" xmlns="http://www.w3.org/2000/svg">
<path d="M3.33238 7.67573L5.67971 6.32049L4.38305 1.99918L9.70491 1.99917L8.97999 4.41508L11.5051 2.95719L12.0005 1.30624C12.1959 0.655221 11.7082 -1.53948e-05 11.0284 -1.52588e-05L3.05957 -1.0687e-06C2.37972 -1.23558e-06 1.89208 0.655234 2.08746 1.30626L3.7253 6.76459L3.33238 7.67573Z" fill="black"/>
<path d="M0.501964 10.4674C0.0236712 10.7436 -0.140204 11.3552 0.135938 11.8334C0.412081 12.3117 1.02367 12.4756 1.50196 12.1995L5.31003 10.0009L6.00405 10.0025L6.46073 15.4937C6.47851 15.7783 6.71458 16 6.99984 16C7.2851 16 7.52117 15.7783 7.53895 15.4937L8.00654 10.0024L11.015 9.9959C11.3763 9.99589 11.6219 9.62908 11.4841 9.29508L10.4753 7.01872L13.5064 5.26869C13.9847 4.99255 14.1486 4.38096 13.8725 3.90267C13.5963 3.42437 12.9847 3.2605 12.5064 3.53664L0.501964 10.4674ZM8.78135 7.99671L8.78534 7.99671L8.78447 7.99491L8.78135 7.99671Z" fill="black"/>
</svg>