<svg width="16" height="16" viewBox="0 0 16 16" fill="none" xmlns="http://www.w3.org/2000/svg">
<path fill-rule="evenodd" clip-rule="evenodd" d="M7.56386 7.1273L6.28761 7.65813L8.34187 9.71239L8.8727 8.43614L13.3523 6.024L9.976 2.64768L7.56386 7.1273ZM9.33209 12.5395C9.1933 12.8733 8.7601 12.959 8.50456 12.7035L7.63471 11.8337L6.61831 10.8173L0.948562 15.82L0.897725 15.8648C0.683801 16.0536 0.36 16.0435 0.158255 15.8417C-0.0434906 15.64 -0.0536108 15.3162 0.135167 15.1023L0.179984 15.0515L5.18275 9.38169L3.2965 7.49544C3.04096 7.2399 3.12674 6.8067 3.46048 6.66791L6.13978 5.55352L8.84264 0.533976C9.165 -0.0647324 9.97338 -0.18337 10.4542 0.297446L15.7026 5.54581C16.1834 6.02662 16.0647 6.83501 15.466 7.15736L10.4465 9.86022L9.33209 12.5395Z" fill="black"/>
</svg>
