<svg width="16" height="16" viewBox="0 0 16 16" fill="none" xmlns="http://www.w3.org/2000/svg">
<path d="M3.80074 6.87041L3.28884 7.99674L6.74136 7.99673L6.19926 6.8704L7.66093 1.99918L2.33907 1.9992L3.80074 6.87041ZM9.44013 9.29509C9.57796 9.62909 9.33234 9.99591 8.97102 9.99591H6L5.53911 15.4937C5.52133 15.7783 5.28526 16 5 16C4.71474 16 4.47867 15.7783 4.46089 15.4937L3.99751 9.99593L1.05918 9.99592C0.697849 9.99592 0.452235 9.6291 0.590064 9.29511L1.68131 6.7646L0.0434753 1.30627C-0.151901 0.655249 0.335734 1.40044e-05 1.01558 1.45099e-05L8.98441 0C9.66427 0 10.1519 0.655236 9.95653 1.30626L8.31869 6.76459L9.44013 9.29509Z" fill="black"/>
</svg>