<svg width="10" height="10" viewBox="0 0 10 10" fill="none" xmlns="http://www.w3.org/2000/svg">
<path d="M1.41517 0.365731C0.890487 0.497293 0.497293 0.890487 0.365731 1.41517C0.193925 2.10035 0 3.25929 0 5C0 6.74071 0.193925 7.89965 0.365731 8.58483C0.497293 9.10951 0.890487 9.50271 1.41517 9.63427C2.10035 9.80608 3.25929 10 5 10C6.74071 10 7.89965 9.80608 8.58483 9.63427C9.10951 9.50271 9.50271 9.10951 9.63427 8.58483C9.80608 7.89965 10 6.74071 10 5C10 3.25929 9.80608 2.10035 9.63427 1.41517C9.50271 0.890486 9.10951 0.497293 8.58483 0.365731C7.89965 0.193925 6.74071 0 5 0C3.25929 0 2.10035 0.193925 1.41517 0.365731ZM5 8.125C3.27411 8.125 1.875 6.72589 1.875 5C1.875 3.27411 3.27411 1.875 5 1.875C6.72589 1.875 8.125 3.27411 8.125 5C8.125 6.72589 6.72589 8.125 5 8.125Z" fill="#8F959E"/>
</svg>
