<svg width="10" height="10" viewBox="0 0 10 10" fill="none" xmlns="http://www.w3.org/2000/svg">
<path   d="M1.41517 0.365731C0.890487 0.497293 0.497293 0.890487 0.365731 1.41517C0.193925 2.10035 0 3.25929 0 5C0 6.74071 0.193925 7.89965 0.365731 8.58483C0.497293 9.10951 0.890487 9.50271 1.41517 9.63427C2.10035 9.80608 3.25929 10 5 10C6.74071 10 7.89965 9.80608 8.58483 9.63427C9.10951 9.50271 9.50271 9.10951 9.63427 8.58483C9.80608 7.89965 10 6.74071 10 5C10 3.25929 9.80608 2.10035 9.63427 1.41517C9.50271 0.890486 9.10951 0.497293 8.58483 0.365731C7.89965 0.193925 6.74071 0 5 0C3.25929 0 2.10035 0.193925 1.41517 0.365731ZM2.39553 2.63269L2.29537 2.73284C1.9236 3.10461 1.76538 3.63889 1.98823 4.11182C2.25229 4.67218 2.74275 5.48173 3.63054 6.36952C4.51833 7.25731 5.32787 7.74777 5.88824 8.01183C6.36116 8.23468 6.89544 8.07646 7.26722 7.70468L7.36737 7.60453C7.72277 7.24913 7.94186 6.9435 8.06589 6.74327C8.15539 6.59879 8.11561 6.41893 7.98761 6.30868L6.88585 5.39656C6.76529 5.29274 6.59334 5.2728 6.45113 5.34616C6.35973 5.39331 6.28299 5.4575 6.20787 5.52033C6.14067 5.57655 6.07477 5.63167 6.00085 5.67251C5.97157 5.68869 5.94184 5.70512 5.90906 5.70488C5.8261 5.70428 5.324 5.42909 4.95829 5.06338C4.59257 4.69766 4.34022 4.21839 4.33962 4.13544C4.33938 4.10266 4.35581 4.07293 4.37199 4.04365C4.41411 3.96741 4.46418 3.89669 4.51458 3.82551C4.57195 3.74446 4.62975 3.66282 4.67673 3.57176C4.75009 3.42954 4.73015 3.2576 4.62632 3.13704L3.69138 2.01245C3.58113 1.88444 3.40127 1.84467 3.25678 1.93417C3.05655 2.0582 2.75092 2.27729 2.39553 2.63269Z" fill="#DD342E"/>
</svg>
