<svg width="40" height="40" viewBox="0 0 40 40" fill="none" xmlns="http://www.w3.org/2000/svg">
<g id="printer">
<path id="Vector" d="M9.33329 5.33334C8.59729 5.33334 7.99996 5.93067 7.99996 6.66667V9.33334H32V6.66667C32 5.93067 31.4026 5.33334 30.6666 5.33334H9.33329ZM5.33329 12C3.85996 12 2.66663 13.1933 2.66663 14.6667V26.6667C2.66663 28.14 3.85996 29.3333 5.33329 29.3333H7.99996V36H32V29.3333H34.6666C36.14 29.3333 37.3333 28.14 37.3333 26.6667V14.6667C37.3333 13.1933 36.14 12 34.6666 12H5.33329ZM10.6666 20H29.3333V33.3333H10.6666V20Z" fill="#282828"/>
</g>
</svg>
