<svg width="16" height="16" viewBox="0 0 16 16" fill="none" xmlns="http://www.w3.org/2000/svg">
<path fill-rule="evenodd" clip-rule="evenodd" d="M4 3.00003V3.05176e-05H12V3.00003H14C15.1046 3.00003 16 3.89546 16 5.00003V10C16 11.1046 15.1046 12 14 12H13.8889L13.3333 10H14V5.00003H2V10H2.66667L2.11111 12H2C0.895431 12 0 11.1046 0 10V5.00003C0 3.89546 0.895431 3.00003 2 3.00003H4ZM6 2.00003H10V3.00003H6V2.00003Z" fill="black"/>
<path fill-rule="evenodd" clip-rule="evenodd" d="M4.75 8.25015L3.63128 14H12.3687L11.25 8.25015H4.75ZM12.5 7.00003H3.5L1 16H15L12.5 7.00003Z" fill="black"/>
</svg>
