<svg width="16" height="16" viewBox="0 0 16 16" fill="none" xmlns="http://www.w3.org/2000/svg">
<path d="M7.5 14C9.63734 14 11.4899 12.7808 12.4003 11H14.5732C13.5436 13.913 10.7655 16 7.5 16C3.35786 16 0 12.6421 0 8.5C0 4.35786 3.35786 1 7.5 1C10.2785 1 12.704 2.51086 14 4.75583V2C14 1.44772 14.4477 1 15 1C15.5523 1 16 1.44772 16 2V8C16 8.55228 15.5523 9 15 9H10C9.44771 9 9 8.55229 9 8C9 7.44772 9.44771 7 10 7H12.793C12.14 4.69149 10.0176 3 7.5 3C4.46243 3 2 5.46243 2 8.5C2 11.5376 4.46243 14 7.5 14Z" fill="black"/>
</svg>
