<svg width="17" height="16" viewBox="0 0 17 16" fill="none" xmlns="http://www.w3.org/2000/svg">
<path d="M6.70711 2.70711C7.09763 2.31658 7.09763 1.68342 6.70711 1.29289C6.31658 0.902369 5.68342 0.902369 5.29289 1.29289L0.292894 6.29289C0.105357 6.48043 0 6.73478 0 7C0 7.00001 0 6.99999 0 7C1.52754e-06 7.27862 0.113947 7.53066 0.297779 7.71199L5.29289 12.7071C5.68342 13.0976 6.31658 13.0976 6.70711 12.7071C7.09763 12.3166 7.09763 11.6834 6.70711 11.2929L3.41424 8.00002L10 8C11.1418 8 11.899 8.35504 12.4313 8.83585C12.9845 9.33552 13.3622 10.0337 13.6105 10.806C13.8576 11.5749 13.9579 12.3605 13.994 12.9656C14.0118 13.2652 14.0135 13.5134 14.0109 13.6839C14.0096 13.7689 14.0072 13.8341 14.0053 13.8761C14.0043 13.8971 14.0035 13.9123 14.003 13.9212L14.0025 13.9287L14.0025 13.93C13.964 14.4802 14.3784 14.9581 14.9288 14.9974C15.4796 15.0368 15.9581 14.6221 15.9975 14.0712L15 13.9999C15.9975 14.0712 15.9974 14.0716 15.9975 14.0712L15.9976 14.0693L15.9978 14.0669L15.9982 14.0599L15.9995 14.0385C16.0006 14.0209 16.0019 13.9968 16.0033 13.9665C16.006 13.906 16.009 13.8208 16.0106 13.7145C16.0139 13.5021 16.0117 13.2034 15.9904 12.8468C15.9483 12.1394 15.8299 11.175 15.5145 10.194C15.2003 9.21622 14.6718 8.16446 13.7718 7.35164C12.851 6.51995 11.6082 6 10 6L3.41419 6.00002L6.70711 2.70711Z" fill="black"/>
</svg>
