<svg width="16" height="16" viewBox="0 0 16 16" fill="none" xmlns="http://www.w3.org/2000/svg">
<path fill-rule="evenodd" clip-rule="evenodd" d="M11.0234 8C11.0234 9.65685 9.66978 11 8 11C6.33023 11 4.97661 9.65685 4.97661 8C4.97661 6.34315 6.33023 5 8 5C9.66978 5 11.0234 6.34315 11.0234 8ZM9.0078 8C9.0078 8.55228 8.55659 9 8 9C7.44341 9 6.99221 8.55228 6.99221 8C6.99221 7.44772 7.44341 7 8 7C8.55659 7 9.0078 7.44772 9.0078 8Z" fill="black"/>
<path fill-rule="evenodd" clip-rule="evenodd" d="M8 1C12.1114 1 15.5041 4.05369 16 8C15.5041 11.9463 12.1114 15 8 15C3.88857 15 0.495935 11.9463 0 8C0.495935 4.05369 3.88857 1 8 1ZM8 13C5.00447 13 2.51518 10.837 2.03651 8C2.51518 5.16303 5.00447 3 8 3C10.9955 3 13.4848 5.16303 13.9635 8C13.4848 10.837 10.9955 13 8 13Z" fill="black"/>
</svg>
