<svg width="16" height="16" viewBox="0 0 16 16" fill="none" xmlns="http://www.w3.org/2000/svg">
<path fill-rule="evenodd" clip-rule="evenodd" d="M4.5 3C4.5 1.34314 5.84314 0 7.5 0H8.5C10.1569 0 11.5 1.34314 11.5 3H14.5C15.3284 3 16 3.67157 16 4.5V9C16 9.55228 15.5523 10 15 10V14.1096C15 14.7944 14.5259 15.4271 13.8019 15.5624C12.9879 15.7145 11.0537 16 8 16C4.94629 16 3.01208 15.7145 2.19806 15.5624C1.47412 15.4271 1 14.7944 1 14.1096V10C0.447715 10 0 9.55228 0 9V4.5C0 3.67157 0.67157 3 1.5 3H4.5ZM3 13.6705C3.8877 13.8091 5.5542 14 8 14C10.4458 14 12.1123 13.8091 13 13.6705V10H10C10 10.5523 9.55231 11 9 11H7C6.44769 11 6 10.5523 6 10H3V13.6705ZM7.5 2H8.5C9.05231 2 9.5 2.44769 9.5 3H6.5C6.5 2.44769 6.94769 2 7.5 2ZM2 5V8H6C6 7.44769 6.44769 7 7 7H9C9.55231 7 10 7.44769 10 8H14V5H2Z" fill="black"/>
</svg>
