<svg width="16" height="16" viewBox="0 0 16 16" fill="none" xmlns="http://www.w3.org/2000/svg">
<path d="M0.50391 10.1318C0.172678 10.321 -0.0092436 10.671 0.000230281 11.0274C0.0149178 12.1194 0.90464 13 2.00005 13H7.00005V14H4.50005C4.2239 14 4.00005 14.2239 4.00005 14.5V15.5C4.00005 15.7761 4.2239 16 4.50005 16H11.5C11.7762 16 12 15.7761 12 15.5V14.5C12 14.2239 11.7762 14 11.5 14H9.00005V13H14C15.1046 13 16 12.1046 16 11V3.01771C16.0033 2.84348 15.961 2.66615 15.8683 2.50386C15.5943 2.02434 14.9834 1.85775 14.5039 2.13176L0.50391 10.1318ZM14 11H3.01561L14 4.72318V11ZM2.00005 2H12.6925L15.337 0.512474C14.9827 0.193871 14.514 0 14 0H2.00005C0.895476 0 4.57764e-05 0.89543 4.57764e-05 2V9.13949L2.00005 8.01449V2Z" fill="black"/>
</svg>
