<svg width="17" height="17" viewBox="0 0 17 17" fill="none" xmlns="http://www.w3.org/2000/svg">
<path d="M2.68066 0.5H7.18066V2.5H2.68066V11.5H14.6807V10H16.6807V11.5C16.6807 12.6046 15.7852 13.5 14.6807 13.5H9.68066V14.5H12.1807C12.4568 14.5 12.6807 14.7239 12.6807 15V16C12.6807 16.2761 12.4568 16.5 12.1807 16.5H5.18066C4.90452 16.5 4.68066 16.2761 4.68066 16V15C4.68066 14.7239 4.90452 14.5 5.18066 14.5H7.68066V13.5H2.68066C1.57609 13.5 0.680664 12.6046 0.680664 11.5V2.5C0.680664 1.39543 1.57609 0.5 2.68066 0.5ZM10.6806 2.5C10.1283 2.49997 9.68066 2.05227 9.68066 1.5C9.68066 0.947715 10.1284 0.5 10.6807 0.5L15.6806 0.500122C16.2329 0.500122 16.6806 0.947837 16.6806 1.50012L16.6807 6.5C16.6807 7.05228 16.2329 7.5 15.6807 7.5C15.1284 7.5 14.6807 7.05235 14.6806 6.50012V3.9143L11.3448 7.25025L11.3434 7.24884C11.167 7.40512 10.9349 7.5 10.6807 7.5C10.1284 7.5 9.68066 7.05228 9.68066 6.5C9.68066 6.24576 9.77554 6.01368 9.93182 5.83723L9.93065 5.83606L13.2664 2.50012L10.6806 2.5Z" fill="black"/>
</svg>
