<svg width="17" height="17" viewBox="0 0 17 17" fill="none" xmlns="http://www.w3.org/2000/svg">
<path d="M2.74707 0.985352C1.6425 0.985352 0.74707 1.88078 0.74707 2.98535V11.9854C0.74707 13.0899 1.6425 13.9854 2.74707 13.9854H7.74707V14.9854H5.24707C4.97093 14.9854 4.74707 15.2092 4.74707 15.4854V16.4854C4.74707 16.7615 4.97093 16.9854 5.24707 16.9854H12.2471C12.5232 16.9854 12.7471 16.7615 12.7471 16.4854V15.4854C12.7471 15.2092 12.5232 14.9854 12.2471 14.9854H9.74707V13.9854H14.7471C15.8516 13.9854 16.7471 13.0899 16.7471 11.9854V2.98535C16.7471 1.88078 15.8516 0.985352 14.7471 0.985352H2.74707Z" fill="black"/>
</svg>
