<svg width="16" height="16" viewBox="0 0 16 16" fill="none" xmlns="http://www.w3.org/2000/svg">
<path d="M15.8633 4.4961C15.5891 4.01665 14.9937 3.85352 14.5142 4.12766L14 4.42172V4.4204L12 5.56395V5.56528L3.99996 10.1395L3.99996 10.1382L1.99996 11.2817L1.99996 11.2831L0.51015 12.1349C0.0307057 12.409 -0.13573 13.0199 0.138406 13.4994C0.337126 13.8469 0.714844 14 1.08709 14H14C14.5523 14 15 13.5523 15 13V12H14V6.72557L15.507 5.86388C15.9864 5.58975 16.1374 4.97554 15.8633 4.4961ZM12 7.86913V11L6.52428 11L12 7.86913Z" fill="black"/>
<path d="M13 3C13.3217 3 13.608 3.15195 13.7909 3.38801L10.9716 5H3.99996V8.98626L1.99996 10.1298L1.99996 4C1.99996 3.44769 2.44765 3 2.99996 3L13 3Z" fill="black"/>
</svg>
