<svg width="16" height="16" viewBox="0 0 16 16" fill="none" xmlns="http://www.w3.org/2000/svg">
<path d="M6 0H19.5V6H6V33H42V28.5H48V33C48 36.3137 45.3137 39 42 39H27V42H34.5C35.3284 42 36 42.6716 36 43.5V46.5C36 47.3284 35.3284 48 34.5 48H13.5C12.6716 48 12 47.3284 12 46.5V43.5C12 42.6716 12.6716 42 13.5 42H21V39H6C2.68629 39 0 36.3137 0 33V6C0 2.68629 2.68629 0 6 0ZM29.9998 6C28.3431 5.99991 27 4.6568 27 3C27 1.34315 28.3431 0 30 0L30.0474 0.000366996L44.9998 0.000366342C46.6567 0.00036627 47.9998 1.34351 47.9998 3.00037V17.9676L48 18C48 19.6569 46.6569 21 45 21C43.3433 21 42 19.6571 41.9998 18.0004V10.2429L31.9925 20.2507L31.9883 20.2465C31.459 20.7154 30.7627 21 30 21C28.3431 21 27 19.6569 27 18C27 17.2373 27.2846 16.541 27.7535 16.0117L27.75 16.0082L37.7573 6.00037L29.9998 6Z" fill="black"/>
</svg>
