<svg width="16" height="16" viewBox="0 0 16 16" fill="none" xmlns="http://www.w3.org/2000/svg">
<path d="M1.51161 30.3953C0.517912 30.9631 -0.0278529 32.0131 0.000568771 33.0823C0.0446313 36.3581 2.7138 39 6.00002 39H21V42H13.5C12.6716 42 12 42.6716 12 43.5V46.5C12 47.3284 12.6716 48 13.5 48H34.5C35.3284 48 36 47.3284 36 46.5V43.5C36 42.6716 35.3284 42 34.5 42H27V39H42C45.3137 39 48 36.3137 48 33V9.05314C48.0098 8.53045 47.883 7.99845 47.6048 7.51158C46.7827 6.07303 44.9502 5.57324 43.5116 6.39527L1.51161 30.3953ZM42 33H9.04671L42 14.1695V33ZM6.00002 6H38.0773L46.0108 1.53742C44.948 0.581614 43.5419 0 42 0H6.00002C2.68631 0 1.5259e-05 2.68629 1.5259e-05 6V27.4185L6.00002 24.0435V6Z" fill="black"/>
</svg>
