<svg width="16" height="16" viewBox="0 0 16 16" fill="none" xmlns="http://www.w3.org/2000/svg">
<path fill-rule="evenodd" clip-rule="evenodd" d="M15.952 1.30628C16.0685 0.943872 15.9692 0.54676 15.6957 0.281931C15.4223 0.0171032 15.0222 -0.0695049 14.6637 0.0585267L0.663674 5.0585C0.286419 5.19323 0.0259746 5.5401 0.00182759 5.93996C-0.0223194 6.33983 0.194491 6.71551 0.552792 6.89467L6.28634 9.76147L9.63623 15.5041C9.83512 15.8451 10.2159 16.0371 10.6083 15.9944C11.0007 15.9516 11.3313 15.6821 11.452 15.3063L15.952 1.30628ZM6.80256 7.78351L3.54321 6.15382L13.4278 2.62362L10.2341 12.5597L8.25222 9.16227L9.70712 7.70737C10.0976 7.31685 10.0976 6.68368 9.70712 6.29316C9.31659 5.90264 8.68343 5.90264 8.2929 6.29316L6.80256 7.78351Z" fill="black"/>
</svg>
