<svg width="16" height="16" viewBox="0 0 16 16" fill="none" xmlns="http://www.w3.org/2000/svg">
<path d="M9.52088 0.73327C9.50705 0.523513 9.44879 0.310752 9.26196 0.214401C9.05613 0.108251 8.67962 0 8.00001 0C7.32039 0 6.94389 0.108252 6.73806 0.214401C6.55123 0.310752 6.49296 0.523512 6.47913 0.733269L6.38104 2.22102C5.91491 2.35133 5.47169 2.53653 5.05879 2.76919L3.93707 1.78624C3.77897 1.6477 3.58732 1.53845 3.38708 1.60243C3.16648 1.67292 2.8237 1.8626 2.34314 2.34316C1.86259 2.82372 1.6729 3.1665 1.60242 3.3871C1.53844 3.58734 1.64768 3.77898 1.78622 3.93708L2.76917 5.05879C2.5365 5.47169 2.3513 5.91491 2.22099 6.38103L0.73327 6.47913C0.523513 6.49296 0.310753 6.55122 0.214401 6.73805C0.108251 6.94388 0 7.32039 0 8C0 8.67961 0.108251 9.05612 0.214401 9.26195C0.310752 9.44878 0.523512 9.50704 0.733268 9.52087L2.22095 9.61896C2.35126 10.0851 2.53646 10.5284 2.76914 10.9413L1.78623 12.063C1.64769 12.2211 1.53845 12.4127 1.60243 12.6129C1.67291 12.8335 1.8626 13.1763 2.34315 13.6569C2.82371 14.1374 3.16649 14.3271 3.38709 14.3976C3.58733 14.4616 3.77897 14.3523 3.93707 14.2138L5.05873 13.2309C5.47165 13.4636 5.9149 13.6488 6.38105 13.7791L6.47914 15.2667C6.49297 15.4765 6.55123 15.6892 6.73806 15.7856C6.94389 15.8917 7.3204 16 8.00001 16C8.67962 16 9.05613 15.8917 9.26196 15.7856C9.44879 15.6892 9.50706 15.4765 9.52089 15.2667L9.61897 13.7791C10.0851 13.6488 10.5284 13.4636 10.9413 13.2309L12.0629 14.2138C12.221 14.3523 12.4127 14.4616 12.6129 14.3976C12.8335 14.3271 13.1763 14.1374 13.6569 13.6569C14.1374 13.1763 14.3271 12.8335 14.3976 12.6129C14.4616 12.4127 14.3523 12.2211 14.2138 12.063L13.2309 10.9413C13.4636 10.5284 13.6488 10.0851 13.7791 9.61896L15.2667 9.52087C15.4765 9.50704 15.6893 9.44878 15.7856 9.26195C15.8918 9.05612 16 8.67961 16 8C16 7.32039 15.8918 6.94388 15.7856 6.73805C15.6893 6.55122 15.4765 6.49296 15.2667 6.47913L13.779 6.38103C13.6487 5.91491 13.4635 5.47169 13.2308 5.05879L14.2138 3.93709C14.3523 3.77899 14.4616 3.58734 14.3976 3.3871C14.3271 3.1665 14.1374 2.82372 13.6569 2.34317C13.1763 1.86261 12.8335 1.67292 12.6129 1.60244C12.4127 1.53846 12.221 1.6477 12.0629 1.78624L10.9412 2.76919C10.5283 2.53653 10.0851 2.35133 9.61898 2.22102L9.52088 0.73327ZM8.00001 12.0001C5.79087 12.0001 4.00001 10.2092 4.00001 8.00006C4.00001 5.79092 5.79087 4.00006 8.00001 4.00006C10.2091 4.00006 12 5.79092 12 8.00006C12 10.2092 10.2091 12.0001 8.00001 12.0001Z" fill="black"/>
</svg>
