<svg width="16" height="16" viewBox="0 0 16 16" fill="none" xmlns="http://www.w3.org/2000/svg">
<path d="M1.07581 2.03501C1.38064 2.01182 1.68882 2 1.99996 2C8.62737 2 14 7.37258 14 14C14 14.3111 13.9881 14.6193 13.9649 14.9241C13.9231 15.4748 14.3355 15.9552 14.8862 15.9971C15.4369 16.039 15.9173 15.6265 15.9592 15.0759C15.9862 14.7206 16 14.3618 16 14C16 6.26801 9.73194 0 1.99996 0C1.63815 0 1.27936 0.0137458 0.924104 0.0407705C0.37341 0.0826626 -0.039055 0.563048 0.00283705 1.11374C0.044729 1.66444 0.525115 2.0769 1.07581 2.03501Z" fill="black"/>
<path d="M1.99996 6C1.69873 6 1.40175 6.0166 1.10983 6.04887C0.560892 6.10956 0.0666948 5.71374 0.0060124 5.1648C-0.05467 4.61586 0.341142 4.12167 0.890083 4.06098C1.25483 4.02066 1.62517 4 1.99996 4C7.52281 4 12 8.47715 12 14C12 14.3748 11.9793 14.7451 11.939 15.1099C11.8783 15.6588 11.3841 16.0546 10.8352 15.9939C10.2862 15.9333 9.8904 15.4391 9.95109 14.8901C9.98335 14.5982 9.99996 14.3012 9.99996 14C9.99996 9.58172 6.41824 6 1.99996 6Z" fill="black"/>
<path d="M1.19888 10.08C1.45689 10.0277 1.72467 10 1.99995 10C4.20909 10 5.99995 11.7909 5.99995 14C5.99995 14.2753 5.97229 14.5431 5.91992 14.8011C5.81005 15.3423 6.15976 15.8701 6.701 15.98C7.24225 16.0899 7.77008 15.7402 7.87995 15.1989C7.95875 14.8107 7.99995 14.4097 7.99995 14C7.99995 10.6863 5.31366 8 1.99995 8C1.5903 8 1.18924 8.0412 0.801019 8.12C0.259773 8.22987 -0.0899287 8.7577 0.0199385 9.29895C0.129806 9.8402 0.657638 10.1899 1.19888 10.08Z" fill="black"/>
<path d="M1.99995 16C3.10452 16 3.99995 15.1046 3.99995 14C3.99995 12.8954 3.10452 12 1.99995 12C0.895385 12 -4.57749e-05 12.8954 -4.57749e-05 14C-4.57749e-05 15.1046 0.895385 16 1.99995 16Z" fill="black"/>
</svg>
