<svg width="16" height="16" viewBox="0 0 16 16" fill="none" xmlns="http://www.w3.org/2000/svg">
<path fill-rule="evenodd" clip-rule="evenodd" d="M8 14C11.3137 14 14 11.3137 14 8C14 4.68629 11.3137 2 8 2C4.68629 2 2 4.68629 2 8C2 11.3137 4.68629 14 8 14ZM8 16C12.4183 16 16 12.4183 16 8C16 3.58172 12.4183 0 8 0C3.58172 0 0 3.58172 0 8C0 12.4183 3.58172 16 8 16Z" fill="black"/>
<path d="M5.00948 9.24024C5.13186 10.7848 6.42401 12 8 12C9.57597 12 10.8681 10.7848 10.9905 9.24028C10.3019 9.36844 9.28252 9.50001 8 9.49998C6.71748 9.49995 5.69814 9.36838 5.00948 9.24024Z" fill="black"/>
<path d="M5 6C5 5.44772 5.44772 5 6 5C6.55228 5 7 5.44772 7 6V7C7 7.55228 6.55228 8 6 8C5.44772 8 5 7.55228 5 7V6Z" fill="black"/>
<path d="M9 6C9 5.44772 9.44772 5 10 5C10.5523 5 11 5.44772 11 6V7C11 7.55228 10.5523 8 10 8C9.44772 8 9 7.55228 9 7V6Z" fill="black"/>
</svg>
