<svg width="16" height="16" viewBox="0 0 16 16" fill="none" xmlns="http://www.w3.org/2000/svg">
<path fill-rule="evenodd" clip-rule="evenodd" d="M8 3.18324L6.93168 5.03741C6.49737 5.7912 5.78897 6.32879 4.96841 6.52729L2.94999 7.01557L4.30815 8.64979C4.86029 9.31415 5.13088 10.184 5.05806 11.0605L4.87892 13.2164L6.78663 12.3722C7.56218 12.029 8.43782 12.029 9.21337 12.3722L11.1211 13.2164L10.9419 11.0605C10.8691 10.184 11.1397 9.31415 11.6918 8.64979L13.05 7.01557L11.0316 6.52729C10.211 6.32879 9.50263 5.7912 9.06832 5.03741L8 3.18324ZM8.88836 0.524553C8.48539 -0.174851 7.51461 -0.174851 7.11164 0.524553L5.15495 3.92058C5.01019 4.17184 4.77405 4.35104 4.50053 4.4172L0.803681 5.31151C0.0423233 5.49568 -0.257664 6.46004 0.254642 7.07647L2.7422 10.0696C2.92624 10.2911 3.01644 10.581 2.99216 10.8732L2.66407 14.8219C2.5965 15.6352 3.38187 16.2312 4.10147 15.9127L7.59554 14.3666C7.85406 14.2522 8.14594 14.2522 8.40446 14.3666L11.8985 15.9127C12.6181 16.2312 13.4035 15.6352 13.3359 14.8219L13.0078 10.8732C12.9836 10.581 13.0738 10.2911 13.2578 10.0696L15.7454 7.07647C16.2577 6.46004 15.9577 5.49568 15.1963 5.31151L11.4995 4.4172C11.226 4.35104 10.9898 4.17184 10.845 3.92058L8.88836 0.524553Z" fill="black"/>
</svg>
