<svg width="16" height="16" viewBox="0 0 16 16" fill="none" xmlns="http://www.w3.org/2000/svg">
<path fill-rule="evenodd" clip-rule="evenodd" d="M16 14.7192C16 15.1781 15.6863 15.5693 15.2319 15.6335C14.1835 15.7816 11.9652 16 8 16C4.03479 16 1.81653 15.7816 0.768066 15.6335C0.313721 15.5693 0 15.1781 0 14.7192V1.28076C0 0.821898 0.313721 0.430663 0.768067 0.366515C1.81653 0.218383 4.03479 0 8 0C11.9652 0 14.1835 0.218384 15.2319 0.366516C15.6863 0.430664 16 0.821899 16 1.28076V14.7192ZM2 12V13.765C3.03508 13.8667 4.64634 13.9715 7 13.9951V12H2ZM7 10H2V8H7V10ZM9 12V13.9951C11.3537 13.9715 12.9649 13.8667 14 13.765V12H9ZM14 10H9V8H14V10ZM14 4L14 6H9V4H14ZM2 6H7V4H2L2 6Z" fill="black"/>
</svg>
