<svg width="16" height="16" viewBox="0 0 16 16" fill="none" xmlns="http://www.w3.org/2000/svg">
<path fill-rule="evenodd" clip-rule="evenodd" d="M8 0C10.2091 0 12 1.79086 12 4H13C14.6569 4 16 5.34315 16 7V13C16 14.6569 14.6569 16 13 16H3C1.34315 16 0 14.6569 0 13V7C0 5.34315 1.34315 4 3 4L4 4C4 1.79086 5.79086 0 8 0ZM11 6H5V14H11V6ZM12 14V6H13C13.5523 6 14 6.44772 14 7V13C14 13.5523 13.5523 14 13 14H12ZM3 6H4V14H3C2.44772 14 2 13.5523 2 13V7C2 6.44772 2.44772 6 3 6ZM10 4C10 2.89543 9.10457 2 8 2C6.89543 2 6 2.89543 6 4L10 4Z" fill="black"/>
</svg>
