<svg width="16" height="16" viewBox="0 0 16 16" fill="none" xmlns="http://www.w3.org/2000/svg">
<path d="M0.772978 2.34466C0.896859 2.11016 1.149 2 1.41421 2H10.5858C10.851 2 11.1031 2.11016 11.227 2.34467C11.5221 2.9032 12 5.23471 12 8C12 11.7653 11.5221 13.0968 11.227 13.6553C11.1031 13.8898 10.851 14 10.5858 14H1.41422C1.149 14 0.896859 13.8898 0.772978 13.6553C0.477931 13.0968 1.01272e-05 11.7653 1.60907e-10 8C-1.0126e-05 5.2347 0.477925 2.90319 0.772978 2.34466ZM2 7.99999C2.00001 9.47308 2.14775 11.4237 2.29159 12H9.70842C9.85225 11.4237 10 9.47308 10 8C10 6.52692 9.85225 4.57626 9.70842 4H2.29158C2.14774 4.57625 1.99999 6.52691 2 7.99999Z" fill="black"/>
<path d="M15.1326 4.163C15.4413 3.82621 16 4.04617 16 4.50452V11.4955C16 11.9538 15.4413 12.1738 15.1326 11.837L13 9.51051V6.48949L15.1326 4.163Z" fill="black"/>
</svg>
