<svg width="17" height="13" viewBox="0 0 17 13" fill="none" xmlns="http://www.w3.org/2000/svg">
<path d="M1.52005 0.844661C1.64393 0.610157 1.89607 0.5 2.16128 0.5H11.3329C11.5981 0.5 11.8502 0.610159 11.9741 0.844666C12.2691 1.4032 12.7471 3.73471 12.7471 6.5C12.7471 10.2653 12.2691 11.5968 11.9741 12.1553C11.8502 12.3898 11.5981 12.5 11.3329 12.5H2.16129C1.89607 12.5 1.64393 12.3898 1.52005 12.1553C1.225 11.5968 0.74708 10.2653 0.74707 6.5C0.74706 3.7347 1.22499 1.40319 1.52005 0.844661Z" fill="black"/>
<path d="M15.8797 2.663C16.1884 2.32621 16.7471 2.54617 16.7471 3.00452V9.99549C16.7471 10.4538 16.1884 10.6738 15.8797 10.337L13.7471 8.01051V4.98949L15.8797 2.663Z" fill="black"/>
</svg>
