<svg width="17" height="13" viewBox="0 0 17 13" fill="none" xmlns="http://www.w3.org/2000/svg">
<path d="M1.31302 0.844661C1.4369 0.610157 1.68903 0.5 1.95425 0.5H11.1258C11.391 0.5 11.6432 0.610159 11.7671 0.844666C12.0621 1.4032 12.54 3.73471 12.54 6.5C12.54 10.2653 12.0621 11.5968 11.7671 12.1553C11.6432 12.3898 11.391 12.5 11.1258 12.5H1.95426C1.68904 12.5 1.4369 12.3898 1.31302 12.1553C1.01797 11.5968 0.540049 10.2653 0.540039 6.5C0.540029 3.7347 1.01796 1.40319 1.31302 0.844661ZM2.54004 6.49999C2.54004 7.97308 2.68779 9.92374 2.83163 10.5H10.2485C10.3923 9.92374 10.54 7.97308 10.54 6.5C10.54 5.02692 10.3923 3.07626 10.2485 2.5H2.83162C2.68778 3.07625 2.54003 5.02691 2.54004 6.49999Z" fill="black"/>
<path d="M15.6726 2.663C15.9814 2.32621 16.54 2.54617 16.54 3.00452V9.99549C16.54 10.4538 15.9814 10.6738 15.6726 10.337L13.54 8.01051V4.98949L15.6726 2.663Z" fill="black"/>
</svg>
